<?xml version="1.0" standalone="no"?>
<!DOCTYPE svg PUBLIC "-//W3C//DTD SVG 1.1//EN" "http://www.w3.org/Graphics/SVG/1.1/DTD/svg11.dtd" >
<svg xmlns="http://www.w3.org/2000/svg">
<metadata></metadata>
<defs>
<font id="cloudbold" horiz-adv-x="0" >
<font-face units-per-em="2048" ascent="1536" descent="-512" />
<missing-glyph horiz-adv-x="634" />
<glyph unicode="&#x3b;&#x3b;For&#x20;Education&#x20;Used&#x20;Only&#x3b;&#x3b;" horiz-adv-x="1720" d="M123 719q0 198 99 367.5t269.5 268.5t370.5 99q148 0 284 -58.5t235 -157.5t157.5 -235t58.5 -284q0 -200 -99 -370.5t-268.5 -269.5t-367.5 -99q-150 0 -287 58.5t-236 157.5t-157.5 236t-58.5 287zM297 719q0 -155 75.5 -286t205.5 -207t284 -76t284 76t205.5 207 t75.5 286t-75.5 286t-205.5 207t-284 76t-284 -76t-205.5 -207t-75.5 -286zM424 719q0 217 113 343t325 126q134 0 230.5 -53t146.5 -150l-207 -151q-45 122 -170 122q-176 0 -176 -237q0 -116 43.5 -179t132.5 -63q64 0 100.5 31.5t61.5 97.5l233 -117 q-48 -118 -147.5 -180.5t-247.5 -62.5q-212 0 -325 127.5t-113 345.5z" />
<glyph unicode="&#x3b;&#x3b;Registered&#x3b;&#x3b;" horiz-adv-x="1085" d="M61 973q0 131 64.5 241.5t175.5 175t242 64.5q199 0 340 -141t141 -340t-141 -340t-340 -141q-131 0 -242 64.5t-175.5 175t-64.5 241.5zM154 973q0 -161 114 -275t275 -114t275 114t114 275t-114 275t-275 114t-275 -114t-114 -275zM319 694v559h246q104 0 160.5 -51 t56.5 -121q0 -53 -28.5 -95.5t-83.5 -65.5l133 -226h-187l-120 207h-4v-207h-173zM492 1026h71q47 0 47 49q0 22 -12 37.5t-35 15.5h-71v-102z" />
<glyph unicode="&#x3b;&#x3b;Multiply&#x3b;&#x3b;" horiz-adv-x="954" d="M41 449l209 206l-209 209l205 197l205 -205l206 205l205 -197l-209 -209l209 -206l-205 -197l-206 203l-205 -203z" />
<glyph unicode="&#x3b;&#x3b;Divide&#x3b;&#x3b;" horiz-adv-x="954" d="M61 543v225h820v-225h-820zM354 236v215h236v-215h-236zM354 860v215h236v-215h-236z" />
<glyph unicode="&#x2018;&#x2018;" horiz-adv-x="749" d="M61 963v104q0 137 25 223.5t78 163.5l151 -45q-69 -90 -88 -195h109v-251h-275zM414 963v104q0 138 24.5 224t77.5 163l154 -45q-69 -90 -88 -195h106v-251h-274z" />
<glyph unicode="&#x2019;&#x2019;" horiz-adv-x="749" d="M61 1182v252h275v-105q0 -137 -25 -223.5t-78 -163.5l-151 45q69 93 84 195h-105zM414 1182v252h274v-105q0 -139 -24 -225t-78 -162l-152 45q67 87 86 195h-106z" />
<glyph unicode="&#x3b;&#x3b;Trademark&#x3b;&#x3b;" horiz-adv-x="1214" d="M41 1278v156h469v-156h-131v-326h-209v326h-129zM571 952v482h234l59 -170l64 170h231v-482h-172v162l-63 -162h-117l-64 162v-162h-172z" />
<glyph unicode="&#xe24;&#xe32;" horiz-adv-x="1609" d="M78 987q269 57 457 57q183 0 288 -51q139 51 264 51q90 0 162.5 -22.5t129.5 -70t88.5 -130t31.5 -194.5v-1037h-289v1031q0 180 -129 180q-42 0 -96 -13q16 -72 16 -155v-1043h-288v1035q0 101 -40.5 138.5t-119.5 37.5q-34 0 -104 -8l57 -111q-68 -42 -87.5 -98 t-19.5 -178v-162h170v-244h-311q-88 0 -117.5 29.5t-29.5 113.5v293q0 132 17.5 184t84.5 107z" />
<glyph unicode="&#xe26;&#xe32;" horiz-adv-x="1609" d="M20 0v244h138l-47 129v63q0 132 17.5 184t84.5 107l-135 260q269 57 457 57q183 0 288 -51q139 51 264 51q90 0 162.5 -22.5t129.5 -70t88.5 -130t31.5 -194.5v-1037h-289v1031q0 180 -129 180q-42 0 -96 -13q16 -72 16 -155v-1043h-288v1035q0 101 -40.5 138.5 t-119.5 37.5q-34 0 -104 -8l57 -111q-68 -42 -87.5 -98t-19.5 -178v-218q0 -110 -40.5 -149t-159.5 -39h-179z" />
<glyph unicode=" "  horiz-adv-x="634" />
<glyph unicode="&#x09;" horiz-adv-x="634" />
<glyph unicode="&#xa0;" horiz-adv-x="634" />
<glyph unicode="!" horiz-adv-x="487" d="M100 0v285h289v-285h-289zM100 432v1002h289v-1002h-289z" />
<glyph unicode="&#x22;" horiz-adv-x="747" d="M49 1264v170h285v-170l-21 -301h-243zM412 1264v170h286v-170l-20 -301h-246z" />
<glyph unicode="#" horiz-adv-x="1361" d="M76 346v244h225l35 254h-217v243h248l47 347h286l-47 -347h156l47 347h287l-47 -347h190v-243h-221l-35 -254h213v-244h-244l-45 -346h-286l45 346h-156l-45 -346h-287l45 346h-194zM588 590h155l35 254h-155z" />
<glyph unicode="$" horiz-adv-x="1261" d="M135 106l107 234q105 -64 192.5 -90.5t192.5 -26.5q98 0 153.5 34t55.5 116q0 39 -23 67.5t-62.5 46t-90.5 32t-107 30t-112 34t-107 49.5t-90.5 72t-62.5 105t-23 145q0 147 88 236.5t235 118.5v186h289v-182q159 -21 307 -92l-86 -230q-176 88 -342 88 q-100 0 -151.5 -28t-51.5 -95q0 -41 23 -69.5t62.5 -46t90.5 -30t107 -25.5t112 -29.5t107 -44.5t90.5 -67t62.5 -101.5t23 -143.5q0 -345 -354 -407v-185h-289v183q-186 22 -346 116z" />
<glyph unicode="%" horiz-adv-x="1691" d="M88 1100q0 166 86.5 260t231.5 94t231 -94t86 -260q0 -167 -86.5 -261t-230.5 -94q-145 0 -231.5 94.5t-86.5 260.5zM201 0l958 1434h330l-959 -1434h-329zM350 1100q0 -113 56 -113q55 0 55 113q0 112 -55 112q-56 0 -56 -112zM967 334q0 166 86 260t231 94t231.5 -94 t86.5 -260t-86.5 -260t-231.5 -94t-231 94t-86 260zM1229 334q0 -113 55 -113t55 113q0 112 -55 112t-55 -112z" />
<glyph unicode="&#x26;" horiz-adv-x="1495" d="M92 377q0 142 70 249.5t215 192.5q-103 160 -103 301q0 161 102.5 247.5t276.5 86.5q171 0 277 -80.5t133 -224.5l-277 -84q-16 74 -44 109.5t-80 35.5q-45 0 -72 -26t-27 -70q0 -48 29.5 -99t97.5 -141l225 -303l134 316h352v-244h-148l-73 -174q-50 -111 -74 -152 q38 -48 71 -71t72 -23q50 0 111 49l84 -233q-130 -59 -240 -59q-159 0 -276 114q-143 -114 -379 -114q-120 0 -212 36t-143.5 95t-76.5 126.5t-25 139.5zM381 391q0 -30 9 -58t28 -53.5t54.5 -41t82.5 -15.5q115 0 201 86l-230 305q-72 -43 -108.5 -96t-36.5 -127z" />
<glyph unicode="'" horiz-adv-x="382" d="M49 1264v170h285v-170l-21 -301h-243z" />
<glyph unicode="(" horiz-adv-x="612" d="M96 625q0 309 62 506.5t196 322.5l250 -123q-118 -107 -168.5 -271t-50.5 -435t50.5 -435.5t168.5 -271.5l-250 -123q-134 125 -196 323t-62 507z" />
<glyph unicode=")" horiz-adv-x="612" d="M8 -82q118 107 168.5 271.5t50.5 435.5t-50.5 435t-168.5 271l250 123q134 -125 196 -322.5t62 -506.5t-62 -507t-196 -323z" />
<glyph unicode="*" horiz-adv-x="817" d="M29 1087l100 248l154 -71l-9 170h273l-10 -170l151 71l100 -248l-155 -51l106 -137l-221 -158l-108 172l-109 -172l-219 158l102 137z" />
<glyph unicode="+" horiz-adv-x="954" d="M55 516v279h277v280h289v-280h278v-279h-278v-280h-289v280h-277z" />
<glyph unicode="," horiz-adv-x="374" d="M41 -242q49 65 76 120t35 122h-80v229h233v-159q0 -110 -26.5 -184t-85.5 -152z" />
<glyph unicode="-" horiz-adv-x="616" d="M55 403v244h506v-244h-506z" />
<glyph unicode="." horiz-adv-x="374" d="M72 0v229h233v-229h-233z" />
<glyph unicode="/" horiz-adv-x="1032" d="M0 -205l719 1639h313l-719 -1639h-313z" />
<glyph unicode="0" horiz-adv-x="1226" d="M55 717q0 388 127 562.5t430 174.5q304 0 431.5 -174.5t127.5 -562.5t-127.5 -562.5t-431.5 -174.5q-303 0 -430 174.5t-127 562.5zM344 717q0 -121 12 -203t41.5 -144.5t82.5 -92t132 -29.5q80 0 133.5 29.5t83.5 92t42 145t12 202.5q0 255 -58 374t-213 119 q-79 0 -132 -31t-82.5 -97t-41.5 -152.5t-12 -212.5z" />
<glyph unicode="1" horiz-adv-x="1226" d="M170 1243l465 211h158v-1210h280v-244h-850v244h281v866l-236 -109z" />
<glyph unicode="2" horiz-adv-x="1226" d="M72 0v193l499 516q116 120 150 164q84 107 84 196q0 72 -52.5 106.5t-138.5 34.5q-108 0 -162 -62.5t-59 -174.5l-289 61q12 132 82.5 228t182.5 144t254 48q208 0 339.5 -106t131.5 -265q0 -51 -8 -96t-18.5 -81.5t-38 -81.5t-48 -75t-69 -84t-80 -87t-99.5 -104 q-21 -21 -31 -32l-167 -174h618v-268h-1081z" />
<glyph unicode="3" horiz-adv-x="1226" d="M74 408l288 63q8 -109 74 -178.5t182 -69.5q115 0 180.5 54t65.5 155q0 197 -307 197h-197v243h203q130 0 194 49t64 138q0 73 -52.5 112t-152.5 39t-153.5 -43.5t-61.5 -119.5l-288 49q26 166 162.5 262t332.5 96q103 0 192 -21.5t159 -63t110.5 -109.5t40.5 -154 q0 -219 -186 -342q229 -110 229 -336q0 -147 -70.5 -249.5t-189 -150.5t-275.5 -48q-221 0 -372 112.5t-172 315.5z" />
<glyph unicode="4" horiz-adv-x="1226" d="M45 223v187l668 1044l248 -123l-551 -864h295v348h288v-348h189v-244h-189v-223h-288v223h-660z" />
<glyph unicode="5" horiz-adv-x="1226" d="M74 410l272 77q9 -118 86 -191t182 -73q111 0 179.5 71.5t68.5 197.5q0 103 -51.5 171t-167.5 68q-98 0 -194 -59h-291l37 762h878v-254h-604l-12 -246q118 41 241 41q77 0 143.5 -16.5t124 -53.5t98 -92.5t64 -137t23.5 -183.5q0 -254 -145.5 -383t-399.5 -129 q-94 0 -182.5 27.5t-161.5 80t-123.5 135.5t-64.5 187z" />
<glyph unicode="6" horiz-adv-x="1226" d="M86 682q0 232 62 404t189.5 270t309.5 98q143 0 252.5 -53.5t198.5 -163.5l-224 -168q-87 141 -237 141q-122 0 -191 -90.5t-69 -253.5q123 99 291 99q209 0 340 -121.5t131 -345.5q0 -78 -16.5 -150t-55 -140t-96 -118t-145 -80t-195.5 -30q-185 0 -308.5 87.5t-180 242 t-56.5 372.5zM375 471q0 -50 12 -92t38 -78.5t73.5 -57t111.5 -20.5q126 0 183 71t57 177q0 49 -12.5 92t-39.5 79.5t-75 57.5t-113 21t-112.5 -21t-73 -57.5t-37.5 -79t-12 -92.5z" />
<glyph unicode="7" horiz-adv-x="1226" d="M63 1165v269h1100v-138l-547 -1296h-311l490 1165h-732z" />
<glyph unicode="8" horiz-adv-x="1226" d="M111 406q0 247 194 358q-143 108 -143 319q0 168 111.5 269.5t338.5 101.5q229 0 341 -101.5t112 -269.5q0 -209 -143 -319q194 -113 194 -358q0 -92 -29.5 -167.5t-88.5 -134.5t-157.5 -91.5t-228.5 -32.5q-129 0 -227 32.5t-157 91.5t-88 134.5t-29 167.5zM399 440 q0 -100 52 -158.5t161 -58.5q110 0 162.5 58.5t52.5 158.5q0 85 -53 141t-162 56q-107 0 -160 -56t-53 -141zM451 1053q0 -172 161 -172q84 0 124 46.5t40 125.5q0 73 -40 115t-124 42q-161 0 -161 -157z" />
<glyph unicode="9" horiz-adv-x="1226" d="M86 936q0 78 16.5 150t55 140t96 118t145 80t195.5 30q185 0 308.5 -87.5t180 -242t56.5 -372.5q0 -232 -62 -404t-189.5 -270t-309.5 -98q-143 0 -252.5 53.5t-198.5 163.5l223 168q87 -142 238 -142q122 0 191 90.5t69 253.5q-122 -98 -291 -98q-209 0 -340 121.5 t-131 345.5zM375 963q0 -50 12.5 -92.5t39 -79t74.5 -57.5t113 -21t112.5 21t73.5 57.5t38 79t12 92.5t-12.5 92t-38.5 78t-73.5 56.5t-111.5 20.5q-126 0 -182.5 -70.5t-56.5 -176.5z" />
<glyph unicode=":" horiz-adv-x="374" d="M72 0v229h233v-229h-233zM72 795v229h233v-229h-233z" />
<glyph unicode=";" horiz-adv-x="374" d="M41 -242q49 65 76 120t35 122h-80v229h233v-100q0 -147 -23 -227t-89 -168zM72 795v229h233v-229h-233z" />
<glyph unicode="&#x3c;" horiz-adv-x="954" d="M109 551v182l735 572v-336l-408 -328l408 -328v-333z" />
<glyph unicode="=" horiz-adv-x="954" d="M55 315v279h844v-279h-844zM55 717v278h844v-278h-844z" />
<glyph unicode="&#x3e;" horiz-adv-x="954" d="M111 -20v333l407 328l-407 328v336l735 -572v-182z" />
<glyph unicode="?" horiz-adv-x="1034" d="M68 1100q21 172 144 263t310 91q84 0 156 -19t133 -59t96 -111t35 -165q0 -81 -25.5 -153t-65 -128.5t-80 -111.5t-77.5 -127t-51 -150h-289q11 93 46 174.5t76.5 139t81.5 111t66.5 112.5t26.5 120q0 60 -35.5 91.5t-91.5 31.5q-160 0 -166 -180zM354 0v285h289v-285 h-289z" />
<glyph unicode="@" horiz-adv-x="1681" d="M96 510q0 166 46.5 302t137 235.5t233.5 154.5t327 55q348 0 546.5 -182.5t198.5 -509.5q0 -67 -10 -132.5t-34.5 -132t-61.5 -116t-95 -81t-131 -31.5q-75 0 -130.5 40.5t-78.5 102.5q-48 -74 -111.5 -108.5t-156.5 -34.5q-158 0 -251 110t-93 305q0 229 106 347 t302 118q162 0 362 -96v-358q0 -195 55 -195q18 0 35 23.5t30 85.5t13 153q0 218 -132 346.5t-363 128.5q-134 0 -232 -40.5t-154.5 -114t-83 -166.5t-26.5 -209t26.5 -209t83 -166.5t154.5 -114t232 -40.5q194 0 331 67l82 -203q-99 -42 -192.5 -62t-220.5 -20 q-184 0 -327 55t-233.5 155t-137 236t-46.5 302zM694 487q0 -86 27.5 -135t69.5 -49q149 0 149 309v84q-46 25 -94 25q-76 0 -114 -63t-38 -171z" />
<glyph unicode="A" horiz-adv-x="1425" d="M35 0l524 1434h307l525 -1434h-312l-110 309h-512l-111 -309h-311zM549 553h325l-163 463z" />
<glyph unicode="B" horiz-adv-x="1230" d="M121 0v1434h536q233 0 353 -94t120 -279q0 -228 -176 -338q195 -84 195 -315q0 -213 -118.5 -310.5t-373.5 -97.5h-536zM410 244h206q125 0 184.5 44t59.5 148q0 87 -59 122.5t-183 35.5h-208v-350zM410 838h208q113 0 168.5 44t55.5 142q0 88 -57 127t-175 39h-200v-352 z" />
<glyph unicode="C" horiz-adv-x="1398" d="M90 715q0 164 33 292t89.5 211t138 137t173.5 76.5t201 22.5q140 0 252.5 -39.5t204 -133.5t137.5 -239l-272 -88q-33 137 -119.5 196.5t-202.5 59.5q-60 0 -109.5 -14t-94.5 -48.5t-75.5 -89.5t-48.5 -142t-18 -201t18 -200.5t48.5 -141t76 -89t94.5 -48t109 -13.5 q117 0 205 68t121 217l278 -78q-32 -120 -92 -209t-140.5 -140.5t-172.5 -76t-199 -24.5q-109 0 -200.5 22t-173.5 75.5t-138.5 136t-89.5 210t-33 291.5z" />
<glyph unicode="D" horiz-adv-x="1368" d="M121 0v1434h418q103 0 189.5 -10t155.5 -29t124 -48.5t96 -65.5t71.5 -84t50 -100t31.5 -117t16.5 -131t4.5 -147q0 -131 -18.5 -232t-66.5 -192t-127 -150t-205 -93.5t-296 -34.5h-444zM410 244h161q90 0 158 14t113.5 43t75 66t45 92t21 110.5t5.5 132.5q0 67 -2.5 114 t-10 97.5t-21.5 84.5t-36.5 68t-56 55t-79.5 37.5t-106.5 24t-137.5 7.5h-129v-946z" />
<glyph unicode="E" horiz-adv-x="1155" d="M121 0v1434h932v-244h-643v-350h612v-244h-612v-352h663v-244h-952z" />
<glyph unicode="F" horiz-adv-x="1052" d="M121 0v1434h850v-244h-561v-371h530v-244h-530v-575h-289z" />
<glyph unicode="G" horiz-adv-x="1427" d="M90 715q0 164 34 292t92 211t141 137t176 76.5t202 22.5q452 0 584 -414l-266 -84q-72 254 -318 254q-356 0 -356 -495q0 -113 19 -200t50.5 -141.5t78 -89t97 -48t111.5 -13.5q68 0 118.5 15t92.5 51t66.5 102.5t31.5 163.5h-385v244h678v-172q0 -317 -162 -482 t-440 -165q-109 0 -201.5 22t-176 75.5t-141.5 136t-92 210t-34 291.5z" />
<glyph unicode="H" horiz-adv-x="1378" d="M121 0v1434h289v-615h559v615h288v-1434h-288v575h-559v-575h-289z" />
<glyph unicode="I" horiz-adv-x="782" d="M98 0v244h148v946h-148v244h584v-244h-147v-946h147v-244h-584z" />
<glyph unicode="J" horiz-adv-x="800" d="M10 109l129 235q74 -84 148 -84q104 0 104 141v789h-172v244h461v-1047q0 -203 -96 -305t-256 -102q-186 0 -318 129z" />
<glyph unicode="K" horiz-adv-x="1302" d="M121 0v1434h289v-590l487 590h369l-494 -588q111 -53 181.5 -139.5t131.5 -231.5l199 -475h-315l-168 406q-42 98 -86 150t-115 85l-190 -229v-412h-289z" />
<glyph unicode="L" horiz-adv-x="1073" d="M121 0v1434h289v-1190h583v-244h-872z" />
<glyph unicode="M" horiz-adv-x="1669" d="M100 0l76 1434h299l359 -949l358 949h301l76 -1434h-289l-39 756l-289 -756h-235l-289 756l-39 -756h-289z" />
<glyph unicode="N" horiz-adv-x="1368" d="M121 0v1434h262l575 -869v869h289v-1434h-262l-575 866v-866h-289z" />
<glyph unicode="O" horiz-adv-x="1452" d="M90 717q0 165 30 291.5t83.5 210.5t134 137t175 75.5t212.5 22.5q119 0 214 -22.5t175.5 -75.5t134 -137t83.5 -210.5t30 -291.5t-30 -291.5t-83.5 -210.5t-134 -137t-175.5 -75.5t-214 -22.5q-118 0 -212.5 22.5t-175 75.5t-134 137t-83.5 210.5t-30 291.5zM379 717 q0 -142 24 -240.5t72 -153t108 -77.5t142 -23q83 0 143.5 23t108 77.5t72 153t24.5 240.5t-24.5 240.5t-72 152.5t-108 77t-143.5 23q-82 0 -142 -23t-108 -77t-72 -152.5t-24 -240.5z" />
<glyph unicode="P" horiz-adv-x="1196" d="M121 0v1434h465q252 0 382 -108t130 -325q0 -247 -127.5 -359t-382.5 -112h-178v-530h-289zM410 774h178q115 0 168 49t53 178q0 109 -52.5 149t-168.5 40h-178v-416z" />
<glyph unicode="Q" horiz-adv-x="1452" d="M90 717q0 165 30 291.5t83.5 210.5t134 137t175 75.5t212.5 22.5q119 0 214 -22.5t175.5 -75.5t134 -137t83.5 -210.5t30 -291.5q0 -540 -328 -682q59 -24 128.5 -30.5t191.5 -6.5l-94 -244q-228 0 -364.5 49.5t-254.5 180.5q-103 8 -186 36t-152 83.5t-115.5 138 t-72 202.5t-25.5 273zM379 717q0 -142 24 -240.5t72 -153t108 -77.5t142 -23q83 0 143.5 23t108 77.5t72 153t24.5 240.5t-24.5 240.5t-72 152.5t-108 77t-143.5 23q-82 0 -142 -23t-108 -77t-72 -152.5t-24 -240.5z" />
<glyph unicode="R" horiz-adv-x="1193" d="M121 0v1434h487q237 0 363.5 -107t126.5 -301q0 -342 -295 -420l354 -606h-330l-340 584h-77v-584h-289zM410 827h198q105 0 153 42t48 149q0 79 -51.5 125.5t-149.5 46.5h-198v-363z" />
<glyph unicode="S" horiz-adv-x="1234" d="M80 119l113 231q114 -73 201 -100t212 -27q252 0 252 187q0 49 -25.5 83t-68 53.5t-98.5 34t-117.5 29.5t-122.5 33.5t-117 51.5t-98.5 79t-68 121.5t-25.5 173.5q0 96 39 171t107.5 121t158 69.5t194.5 23.5q267 0 498 -113l-96 -229q-188 98 -402 98q-94 0 -152 -36 t-58 -105q0 -55 25.5 -94t68 -61t98.5 -37t117 -28.5t122.5 -30.5t117.5 -47t98.5 -73t68 -114.5t25.5 -165.5q0 -97 -28 -173t-76 -125t-117.5 -81t-147 -45.5t-170.5 -13.5q-286 0 -528 139z" />
<glyph unicode="T" horiz-adv-x="1204" d="M74 1190v244h1054v-244h-383v-1190h-288v1190h-383z" />
<glyph unicode="U" horiz-adv-x="1398" d="M121 463v971h289v-971q0 -63 24 -111t66 -75.5t91.5 -40.5t106.5 -13t107 13t92.5 40.5t67 75.5t24.5 111v971h289v-971q0 -102 -33 -185t-88 -137.5t-130.5 -91.5t-157 -53t-171.5 -16q-89 0 -171 16.5t-157 53.5t-129.5 91.5t-87 137t-32.5 184.5z" />
<glyph unicode="V" horiz-adv-x="1394" d="M35 1434h309l352 -940l355 940h309l-545 -1434h-235z" />
<glyph unicode="W" horiz-adv-x="2070" d="M35 1434h301l272 -883l273 883h309l272 -883l273 883h301l-443 -1434h-262l-297 958l-295 -958h-262z" />
<glyph unicode="X" horiz-adv-x="1353" d="M31 0l473 739l-445 695h342l275 -428l274 428h342l-446 -695l475 -739h-342l-303 473l-303 -473h-342z" />
<glyph unicode="Y" horiz-adv-x="1222" d="M35 1434h325l250 -473l252 473h326l-432 -801v-633h-289v633z" />
<glyph unicode="Z" horiz-adv-x="1273" d="M82 0v125l657 1055h-626v254h1046v-125l-659 -1055h690v-254h-1108z" />
<glyph unicode="[" horiz-adv-x="612" d="M102 -205v1639h447v-244h-158v-1151h158v-244h-447z" />
<glyph unicode="\" horiz-adv-x="1032" d="M0 1434h313l719 -1639h-313z" />
<glyph unicode="]" horiz-adv-x="612" d="M61 39h158v1151h-158v244h447v-1639h-447v244z" />
<glyph unicode="^" horiz-adv-x="1136" d="M14 819l422 615h264l422 -615h-338l-217 322l-215 -322h-338z" />
<glyph unicode="_" horiz-adv-x="1040" d="M68 0h905v-244h-905v244z" />
<glyph unicode="`" horiz-adv-x="438" d="M16 1333l205 172l201 -344l-74 -65z" />
<glyph unicode="a" horiz-adv-x="1071" d="M51 309q0 72 22.5 127t60.5 89t94 55.5t115.5 29.5t133.5 8q85 0 185 -14v76q0 61 -35.5 91t-96.5 30q-50 0 -80 -24.5t-40 -65.5l-314 37q24 137 145.5 216.5t290.5 79.5q118 0 210.5 -37t150 -118.5t57.5 -198.5v-328q0 -210 23 -362h-291q-18 54 -20 100 q-51 -60 -122 -90t-149 -30q-164 0 -252 84.5t-88 244.5zM340 307q0 -42 29 -63t80 -21q88 0 150.5 55t62.5 140h-127q-95 0 -145 -25t-50 -86z" />
<glyph unicode="b" horiz-adv-x="1181" d="M98 0q23 174 23 373v1122h289v-580q100 129 280 129q179 0 289.5 -131t110.5 -383q0 -271 -117 -410.5t-322 -139.5q-156 0 -262 120q-10 -46 -35 -100h-256zM410 328q47 -54 91.5 -79.5t100.5 -25.5q92 0 145.5 81t53.5 226q0 134 -48.5 202.5t-131.5 68.5 q-93 0 -152 -90.5t-59 -255.5v-127z" />
<glyph unicode="c" horiz-adv-x="1081" d="M92 512q0 246 130.5 389t379.5 143q159 0 273.5 -66t175.5 -179l-250 -150q-36 74 -88.5 113t-110.5 39q-110 0 -165.5 -76.5t-55.5 -212.5t55.5 -212.5t165.5 -76.5q61 0 116 41.5t85 116.5l262 -117q-58 -133 -175 -208.5t-288 -75.5q-249 0 -379.5 143t-130.5 389z " />
<glyph unicode="d" horiz-adv-x="1181" d="M92 498q0 267 116 406.5t318 139.5q146 0 246 -112v563h289v-1122q0 -207 22 -373h-256q-24 53 -41 121q-125 -141 -292 -141q-86 0 -158 31.5t-127 93.5t-86 162.5t-31 230.5zM381 498q0 -135 49.5 -205t132.5 -70q93 0 151 90.5t58 255.5v109q-44 64 -87.5 93.5 t-106.5 29.5q-89 0 -143 -81.5t-54 -221.5z" />
<glyph unicode="e" horiz-adv-x="1173" d="M92 512q0 246 131 389t379 143q232 0 354.5 -133.5t122.5 -353.5v-151h-688q46 -183 271 -183q132 0 307 84l92 -227q-207 -100 -406 -100q-261 0 -412 142.5t-151 389.5zM397 641h391q-6 80 -56 120t-130 40q-159 0 -205 -160z" />
<glyph unicode="f" horiz-adv-x="782" d="M37 780v244h137v145q0 167 92.5 257t257.5 90q79 0 195 -29l-64 -242q-59 27 -102 27q-90 0 -90 -96v-152h260v-244h-260v-780h-289v780h-137z" />
<glyph unicode="g" horiz-adv-x="1107" d="M68 -317l104 211q100 -54 177 -72.5t183 -18.5q205 0 205 119q0 37 -21.5 57.5t-74.5 20.5h-471v113l100 243q-178 87 -178 320q0 174 107.5 271t324.5 97q92 0 174 -20h398v-213h-160q20 -59 20 -135q0 -175 -107 -272t-325 -97h-10l-39 -94h209q187 0 264.5 -74 t77.5 -211q0 -76 -24.5 -137t-67 -102t-104 -68t-132.5 -39t-155 -12q-287 0 -475 113zM381 676q0 -64 35 -99.5t108 -35.5q144 0 144 135t-144 135q-143 0 -143 -135z" />
<glyph unicode="h" horiz-adv-x="1140" d="M121 0v1495h289v-567q59 60 126.5 88t157.5 28q157 0 241.5 -97t84.5 -290v-657h-289v651q0 76 -38 113t-105 37q-178 0 -178 -322v-479h-289z" />
<glyph unicode="i" horiz-adv-x="573" d="M45 780v244h272q79 0 107.5 -21.5t28.5 -91.5v-911h-289v780h-119zM170 1163v271h279v-271h-279z" />
<glyph unicode="j" horiz-adv-x="573" d="M43 -289q73 97 97 164t24 184v721h-119v244h272q79 0 107.5 -21.5t28.5 -91.5v-839q0 -172 -30.5 -278t-127.5 -224zM170 1163v271h279v-271h-279z" />
<glyph unicode="k" horiz-adv-x="1126" d="M121 0v1495h289v-807l311 336h381l-354 -375q61 -30 102.5 -85.5t87.5 -162.5l168 -401h-315l-115 276q-53 124 -121 168l-145 -155v-289h-289z" />
<glyph unicode="l" horiz-adv-x="624" d="M121 264v1231h289v-1163q0 -96 69 -96q31 0 72 18l41 -240q-112 -34 -205 -34q-125 0 -195.5 65t-70.5 219z" />
<glyph unicode="m" horiz-adv-x="1714" d="M121 0v1024h289v-102q41 63 94.5 92.5t128.5 29.5q91 0 162.5 -41.5t109.5 -117.5q53 77 134.5 118t177.5 41q172 0 274 -92.5t102 -271.5v-680h-288v684q0 57 -37 87t-84 30q-90 0 -136.5 -67.5t-46.5 -194.5v-539h-288v672q0 62 -37.5 95.5t-91.5 33.5 q-78 0 -126 -69.5t-48 -194.5v-537h-289z" />
<glyph unicode="n" horiz-adv-x="1140" d="M121 0v1024h289v-96q59 60 126.5 88t157.5 28q157 0 241.5 -97t84.5 -290v-657h-289v651q0 76 -38 113t-105 37q-178 0 -178 -318v-483h-289z" />
<glyph unicode="o" horiz-adv-x="1204" d="M92 512q0 246 130.5 389t379.5 143t378.5 -143t129.5 -389t-129.5 -389t-378.5 -143t-379.5 143t-130.5 389zM381 512q0 -136 55.5 -212.5t165.5 -76.5t164.5 76.5t54.5 212.5t-54.5 212.5t-164.5 76.5t-165.5 -76.5t-55.5 -212.5z" />
<glyph unicode="p" horiz-adv-x="1181" d="M121 -410v1434h289v-109q100 129 280 129q179 0 289.5 -131t110.5 -383q0 -271 -117 -410.5t-322 -139.5q-141 0 -241 100v-490h-289zM410 328q47 -54 91.5 -79.5t100.5 -25.5q92 0 145.5 81t53.5 226q0 134 -48.5 202.5t-131.5 68.5q-93 0 -152 -90.5t-59 -255.5v-127z " />
<glyph unicode="q" horiz-adv-x="1181" d="M92 494q0 271 117 410.5t321 139.5q137 0 242 -102v82h289v-1434h-289v514q-129 -124 -280 -124q-179 0 -289.5 131t-110.5 383zM381 494q0 -133 49.5 -202t130.5 -69q93 0 152 90.5t59 255.5v127q-47 54 -91.5 79.5t-100.5 25.5q-92 0 -145.5 -81t-53.5 -226z" />
<glyph unicode="r" horiz-adv-x="757" d="M121 0v1024h289v-96q72 116 196 116q54 0 113 -20l-49 -268q-64 20 -113 20q-88 0 -117.5 -60.5t-29.5 -187.5v-528h-289z" />
<glyph unicode="s" horiz-adv-x="995" d="M59 115l134 221q166 -113 299 -113q28 0 48.5 2.5t42 10t33 23.5t11.5 40q0 31 -29 52.5t-75 35.5t-101.5 28.5t-111.5 38t-102 56.5t-75 91.5t-29 135.5q0 106 59.5 177t149.5 100.5t203 29.5q100 0 199 -23.5t174 -64.5l-107 -233q-144 78 -276 78q-52 0 -82.5 -16.5 t-30.5 -47.5q0 -26 29 -45t75 -33.5t101.5 -29.5t111 -39.5t101.5 -57t75 -87.5t29 -126q0 -88 -32 -154.5t-90.5 -106t-134.5 -59t-169 -19.5q-266 0 -430 135z" />
<glyph unicode="t" horiz-adv-x="776" d="M37 780v244h137v328h289v-328h254v-244h-254v-403q0 -83 25.5 -118.5t80.5 -35.5q61 0 127 41l60 -231q-127 -53 -240 -53q-167 0 -254.5 90t-87.5 290v420h-137z" />
<glyph unicode="u" horiz-adv-x="1140" d="M121 369v655h289v-643q0 -79 36 -118.5t99 -39.5q87 0 136.5 80t49.5 225v496h289v-651q0 -207 22 -373h-286q-22 59 -25 115q-41 -65 -108 -100t-150 -35q-352 0 -352 389z" />
<glyph unicode="v" horiz-adv-x="1089" d="M20 1024h312l211 -608l215 608h309l-401 -1024h-244z" />
<glyph unicode="w" horiz-adv-x="1462" d="M20 1024h314l121 -512l133 512h286l132 -512l122 512h314l-303 -1024h-252l-156 539l-156 -539h-251z" />
<glyph unicode="x" horiz-adv-x="1079" d="M20 0l345 526l-324 498h350l148 -289l149 289h350l-323 -498l344 -526h-350l-170 319l-168 -319h-351z" />
<glyph unicode="y" horiz-adv-x="1089" d="M20 1024h314l211 -606l213 606h309l-578 -1434h-311l211 519z" />
<glyph unicode="z" horiz-adv-x="989" d="M51 0v129l432 641h-413v254h848v-129l-435 -641h453v-254h-885z" />
<glyph unicode="{" horiz-adv-x="612" d="M45 514v221q70 21 91.5 54.5t21.5 111.5v295q0 132 62 185t216 53h131v-244h-47q-40 0 -57 -14.5t-17 -51.5v-252q0 -166 -116 -247q116 -83 116 -248v-238q0 -47 15.5 -63.5t58.5 -16.5h47v-243h-131q-154 0 -216 52.5t-62 184.5v295q0 78 -21.5 111.5t-91.5 54.5z" />
<glyph unicode="|" horiz-adv-x="585" d="M150 -225v1781h288v-1781h-288z" />
<glyph unicode="}" horiz-adv-x="612" d="M45 59h47q41 0 57.5 14t16.5 52v252q0 166 117 248q-117 79 -117 247v238q0 47 -15.5 63.5t-58.5 16.5h-47v244h131q154 0 216.5 -53t62.5 -185v-295q0 -78 21 -111.5t91 -54.5v-221q-70 -21 -91 -54.5t-21 -111.5v-295q0 -132 -62.5 -184.5t-216.5 -52.5h-131v243z" />
<glyph unicode="~" horiz-adv-x="1013" d="M55 520q0 189 69.5 290t205.5 101q54 0 110 -24.5t94 -54t77 -54t63 -24.5q21 0 29 27t8 110h247q0 -190 -68 -290.5t-206 -100.5q-54 0 -111 24.5t-95 54t-76 54t-60 24.5q-14 0 -22 -10t-12.5 -40t-4.5 -87h-248z" />
<glyph unicode="&#xa1;" horiz-adv-x="487" d="M100 -246v1002h289v-1002h-289zM100 903v285h289v-285h-289z" />
<glyph unicode="&#xa2;" horiz-adv-x="1261" d="M143 715q0 205 91.5 340.5t269.5 175.5v203h289v-203q105 -24 183.5 -84t125.5 -146l-250 -149q-36 74 -88.5 113t-110.5 39q-110 0 -165.5 -76.5t-55.5 -212.5t55.5 -212.5t165.5 -76.5q61 0 116 41.5t85 116.5l262 -117q-95 -217 -323 -270v-197h-289v199 q-178 40 -269.5 175.5t-91.5 340.5z" />
<glyph unicode="&#xa3;" horiz-adv-x="1261" d="M82 0v244q84 0 136 13t83 46.5t42 83t11 129.5v51h-229v244h229v260q0 186 108.5 284.5t289.5 98.5q138 0 237.5 -70t128.5 -198l-233 -94q-20 118 -127 118q-55 0 -85 -36.5t-30 -108.5v-254h320v-244h-320v-43q0 -98 -12.5 -160t-44.5 -120h592v-244h-1096z" />
<glyph unicode="&#xa5;" horiz-adv-x="1261" d="M53 1434h326l250 -473l252 473h325l-315 -584h203v-244h-320v-88h320v-244h-320v-274h-289v274h-319v244h319v88h-319v244h203z" />
<glyph unicode="&#xa6;" horiz-adv-x="585" d="M150 -225v788h288v-788h-288zM150 768v788h288v-788h-288z" />
<glyph unicode="&#xa7;" horiz-adv-x="1007" d="M74 707q0 175 112 290q-28 67 -28 150q0 104 53.5 174.5t139.5 101.5t198 31q210 0 373 -88l-105 -242q-113 86 -250 86q-131 0 -131 -86q0 -37 27.5 -70t71 -59.5t96.5 -55t106 -64.5t96.5 -79.5t71 -108.5t27.5 -144q0 -178 -113 -291q29 -78 29 -150 q0 -104 -53.5 -174.5t-139.5 -101.5t-198 -31q-210 0 -373 88l104 242q113 -86 250 -86q131 0 131 86q0 37 -27.5 70t-71 59.5t-96 55t-105.5 65t-96.5 80t-71 108.5t-27.5 144zM362 725q0 -34 14 -63.5t45.5 -57t58 -46t76.5 -50t77 -49.5q10 33 10 65q0 34 -14 63.5 t-45.5 57t-58 46t-76.5 49t-76 48.5q-11 -33 -11 -63z" />
<glyph unicode="&#xa8;" horiz-adv-x="698" d="M35 1165v246h252v-246h-252zM412 1165v246h252v-246h-252z" />
<glyph unicode="&#xaa;" horiz-adv-x="745" d="M20 938q0 55 18 98.5t48.5 71.5t72 47t85.5 27t92 8q59 0 131 -14q0 98 -111 98q-95 0 -237 -64l-49 172q148 72 311 72q66 0 121.5 -14t101.5 -44t72 -83t26 -125v-209q0 -141 13 -242h-238q-6 33 -10 99q-32 -59 -88.5 -89t-120.5 -30q-96 0 -167 60t-71 161zM256 956 q0 -71 70 -71q62 0 101.5 46t39.5 103q-50 8 -90 8q-60 0 -90.5 -19t-30.5 -67z" />
<glyph unicode="&#xab;" horiz-adv-x="1056" d="M82 393v238l436 420v-373l-166 -166l166 -166v-373zM539 393v238l438 420v-373l-166 -166l166 -166v-373z" />
<glyph unicode="&#xac;" horiz-adv-x="954" d="M61 524v254h830v-450h-289v196h-541z" />
<glyph unicode="&#xad;" horiz-adv-x="616" d="M55 403v244h506v-244h-506z" />
<glyph unicode="&#xaf;" horiz-adv-x="688" d="M35 1165v232h618v-232h-618z" />
<glyph unicode="&#xb0;" horiz-adv-x="667" d="M61 1180q0 274 273 274q272 0 272 -274q0 -273 -272 -273q-273 0 -273 273zM256 1180q0 -78 78 -78t78 78q0 84 -78 84t-78 -84z" />
<glyph unicode="&#xb1;" horiz-adv-x="954" d="M55 0v279h844v-279h-844zM55 668v278h277v281h289v-281h278v-278h-278v-281h-289v281h-277z" />
<glyph unicode="&#xb2;" horiz-adv-x="694" d="M35 922v149l213 217q76 78 106.5 119t30.5 78q0 55 -49 55q-32 0 -47.5 -23.5t-22.5 -64.5l-227 51q23 96 102 156.5t199 60.5q74 0 135.5 -22.5t104.5 -77t43 -133.5q0 -85 -39 -148t-138 -165l-47 -48h256v-204h-620z" />
<glyph unicode="&#xb3;" horiz-adv-x="694" d="M29 1133l209 53q3 -49 27.5 -77t64.5 -28q44 0 72 21t28 59q0 34 -27.5 58t-83.5 24h-124v180h129q40 0 58.5 18.5t18.5 43.5q0 29 -15.5 42t-49.5 13q-73 0 -80 -70l-211 46q19 97 106.5 150.5t200.5 53.5q145 0 215 -59t70 -143q0 -101 -86 -172q115 -62 115 -191 q0 -124 -89.5 -189t-230.5 -65q-124 0 -210.5 60t-106.5 172z" />
<glyph unicode="&#xb4;" horiz-adv-x="438" d="M16 1161l201 344l205 -172l-332 -237z" />
<glyph unicode="&#xb5;" horiz-adv-x="1140" d="M121 -410v1434h289v-643q0 -79 36 -118.5t99 -39.5q87 0 136.5 80t49.5 225v496h289v-651q0 -207 22 -373h-286q-22 59 -25 115q-41 -65 -108 -100t-150 -35q-23 0 -63 4v-394h-289z" />
<glyph unicode="&#xb6;" horiz-adv-x="1290" d="M55 967q0 77 13.5 142t48 126.5t88.5 104t140.5 68.5t199.5 26h629v-1639h-289v1395h-97v-1395h-288v707q-99 0 -176.5 25.5t-127.5 68.5t-82 104t-45.5 126.5t-13.5 140.5z" />
<glyph unicode="&#xb7;" horiz-adv-x="374" d="M72 539v229h233v-229h-233z" />
<glyph unicode="&#xb8;" horiz-adv-x="509" d="M16 -410l47 160q14 -5 63 -15.5t85 -10.5q53 0 53 26q0 31 -80 31h-114l47 219h198l-16 -82q86 -10 125 -52.5t39 -107.5q0 -105 -69.5 -153.5t-178.5 -48.5q-95 0 -199 34z" />
<glyph unicode="&#xb9;" horiz-adv-x="694" d="M31 1616l231 104h209v-606h154v-192h-545v192h156v381l-130 -57z" />
<glyph unicode="&#xba;" horiz-adv-x="860" d="M74 1085q0 171 90 270t266 99t265 -98.5t89 -270.5t-89 -270t-265 -98t-266 98.5t-90 269.5zM309 1085q0 -88 30 -138t91 -50q119 0 119 188q0 189 -119 189q-61 0 -91 -50.5t-30 -138.5z" />
<glyph unicode="&#xbb;" horiz-adv-x="1056" d="M82 -27v373l164 166l-164 166v373l436 -420v-238zM539 -27v373l163 166l-163 166v373l438 -420v-238z" />
<glyph unicode="&#xbc;" horiz-adv-x="1677" d="M31 1350l231 104h209v-606h154v-193h-545v193h156v381l-130 -58zM299 0l1006 1434h290l-1005 -1434h-291zM999 94v137l363 568l170 -107l-266 -418h80v103h208v-103h103v-180h-103v-94h-208v94h-347z" />
<glyph unicode="&#xbd;" horiz-adv-x="1677" d="M31 1350l231 104h209v-606h154v-193h-545v193h156v381l-130 -58zM223 0l1006 1434h291l-1006 -1434h-291zM1018 0v150l213 217q77 79 107 119t30 77q0 55 -49 55q-32 0 -47.5 -23.5t-22.5 -64.5l-227 52q23 96 102 156.5t199 60.5q54 0 103 -13.5t90 -40.5t65.5 -73.5 t24.5 -106.5q0 -45 -10 -82.5t-36 -76.5t-53 -70.5t-77 -83.5l-48 -47h256v-205h-620z" />
<glyph unicode="&#xbe;" horiz-adv-x="1677" d="M29 866l209 54q3 -49 27.5 -77t64.5 -28q44 0 72 21t28 59q0 34 -27.5 58t-83.5 24h-124v180h129q40 0 58.5 18.5t18.5 43.5q0 29 -15.5 42t-49.5 13q-73 0 -80 -70l-211 45q19 97 106.5 151t200.5 54q145 0 215 -59t70 -144q0 -101 -86 -172q115 -62 115 -190 q0 -124 -89.5 -189t-230.5 -65q-125 0 -211 59.5t-106 171.5zM285 0l1005 1434h291l-1006 -1434h-290zM999 94v137l363 568l170 -107l-266 -418h80v103h208v-103h103v-180h-103v-94h-208v94h-347z" />
<glyph unicode="&#xbf;" horiz-adv-x="1034" d="M68 88q0 81 25.5 153t65 128.5t80 111.5t77.5 127t51 150h288q-11 -93 -46 -174.5t-76.5 -139.5t-81.5 -111.5t-66.5 -112.5t-26.5 -120q0 -60 35.5 -91.5t91.5 -31.5q160 0 166 181l291 -70q-21 -172 -144 -263t-311 -91q-84 0 -156 19t-132.5 59t-95.5 110.5t-35 165.5 zM367 903v285h288v-285h-288z" />
<glyph unicode="&#xc0;" horiz-adv-x="1425" d="M35 0l524 1434h307l525 -1434h-312l-110 309h-512l-111 -309h-311zM492 1743l204 172l201 -344l-74 -66zM549 553h325l-163 463z" />
<glyph unicode="&#xc1;" horiz-adv-x="1425" d="M35 0l524 1434h307l525 -1434h-312l-110 309h-512l-111 -309h-311zM549 553h325l-163 463zM551 1571l201 344l204 -172l-331 -238z" />
<glyph unicode="&#xc2;" horiz-adv-x="1425" d="M35 0l524 1434h307l525 -1434h-312l-110 309h-512l-111 -309h-311zM362 1561l242 307h215l240 -307h-275l-73 94l-74 -94h-275zM549 553h325l-163 463z" />
<glyph unicode="&#xc3;" horiz-adv-x="1425" d="M35 0l524 1434h307l525 -1434h-312l-110 309h-512l-111 -309h-311zM385 1620q17 122 70 175.5t123 53.5q55 0 136.5 -33.5t104.5 -33.5q19 0 28.5 16t14.5 51l178 -45q-17 -122 -69.5 -175.5t-122.5 -53.5q-55 0 -137 33.5t-105 33.5q-19 0 -28.5 -16t-14.5 -51zM549 553 h325l-163 463z" />
<glyph unicode="&#xc4;" horiz-adv-x="1425" d="M35 0l524 1434h307l525 -1434h-312l-110 309h-512l-111 -309h-311zM397 1575v246h252v-246h-252zM549 553h325l-163 463zM774 1575v246h252v-246h-252z" />
<glyph unicode="&#xc5;" horiz-adv-x="1425" d="M35 0l524 1434h307l525 -1434h-312l-110 309h-512l-111 -309h-311zM518 1739q0 91 53 140.5t142 49.5q88 0 141 -50t53 -140q0 -91 -53 -142t-141 -51q-89 0 -142 51t-53 142zM549 553h325l-163 463zM662 1739q0 -25 14 -39t37 -14t37 14t14 39t-14 38t-37 13t-37 -13 t-14 -38z" />
<glyph unicode="&#xc6;" horiz-adv-x="1781" d="M35 0l524 1434h1120v-244h-551v-350h521v-244h-521v-352h572v-244h-860v309h-383l-111 -309h-311zM549 553h291v637h-62z" />
<glyph unicode="&#xc7;" horiz-adv-x="1398" d="M90 715q0 164 33 292t89.5 211t138 137t173.5 76.5t201 22.5q140 0 252.5 -39.5t204 -133.5t137.5 -239l-272 -88q-33 137 -119.5 196.5t-202.5 59.5q-60 0 -109.5 -14t-94.5 -48.5t-75.5 -89.5t-48.5 -142t-18 -201t18 -200.5t48.5 -141t76 -89t94.5 -48t109 -13.5 q117 0 205 68t121 217l278 -78q-56 -208 -188 -315t-318 -129l-12 -68q86 -10 125 -52.5t39 -107.5q0 -105 -69.5 -153.5t-178.5 -48.5q-95 0 -199 34l47 160q14 -5 63 -15.5t85 -10.5q53 0 53 26q0 31 -80 31h-114l43 205q-535 55 -535 729z" />
<glyph unicode="&#xc8;" horiz-adv-x="1155" d="M121 0v1434h932v-244h-643v-350h612v-244h-612v-352h663v-244h-952zM356 1743l205 172l201 -344l-74 -66z" />
<glyph unicode="&#xc9;" horiz-adv-x="1155" d="M121 0v1434h932v-244h-643v-350h612v-244h-612v-352h663v-244h-952zM414 1571l200 344l205 -172l-332 -238z" />
<glyph unicode="&#xca;" horiz-adv-x="1155" d="M121 0v1434h932v-244h-643v-350h612v-244h-612v-352h663v-244h-952zM262 1561l242 307h215l239 -307h-274l-74 94l-73 -94h-275z" />
<glyph unicode="&#xcb;" horiz-adv-x="1155" d="M121 0v1434h932v-244h-643v-350h612v-244h-612v-352h663v-244h-952zM299 1575v246h252v-246h-252zM676 1575v246h252v-246h-252z" />
<glyph unicode="&#xcc;" horiz-adv-x="782" d="M98 0v244h148v946h-148v244h584v-244h-147v-946h147v-244h-584zM174 1743l205 172l201 -344l-74 -66z" />
<glyph unicode="&#xcd;" horiz-adv-x="782" d="M98 0v244h148v946h-148v244h584v-244h-147v-946h147v-244h-584zM233 1571l201 344l205 -172l-332 -238z" />
<glyph unicode="&#xce;" horiz-adv-x="782" d="M43 1561l242 307h215l239 -307h-274l-74 94l-74 -94h-274zM98 0v244h148v946h-148v244h584v-244h-147v-946h147v-244h-584z" />
<glyph unicode="&#xcf;" horiz-adv-x="782" d="M76 1575v246h252v-246h-252zM98 0v244h148v946h-148v244h584v-244h-147v-946h147v-244h-584zM453 1575v246h252v-246h-252z" />
<glyph unicode="&#xd0;" horiz-adv-x="1368" d="M-6 594v244h127v596h418q103 0 189.5 -10t155.5 -29t124 -48.5t96 -65.5t71.5 -84t50 -100t31.5 -117t16.5 -131t4.5 -147q0 -131 -18.5 -232t-66.5 -192t-127 -150t-205 -93.5t-296 -34.5h-444v594h-127zM410 244h161q90 0 158 14t113.5 43t75 66t45 92t21 110.5 t5.5 132.5q0 67 -2.5 114t-10 97.5t-21.5 84.5t-36.5 68t-56 55t-79.5 37.5t-106.5 24t-137.5 7.5h-129v-352h338v-244h-338v-350z" />
<glyph unicode="&#xd1;" horiz-adv-x="1368" d="M121 0v1434h262l575 -869v869h289v-1434h-262l-575 866v-866h-289zM375 1620q17 122 69.5 175.5t122.5 53.5q55 0 137 -33.5t105 -33.5q19 0 28.5 16t14.5 51l178 -45q-17 -122 -69.5 -175.5t-122.5 -53.5q-55 0 -137 33.5t-105 33.5q-19 0 -28.5 -16t-14.5 -51z" />
<glyph unicode="&#xd2;" horiz-adv-x="1452" d="M90 717q0 165 30 291.5t83.5 210.5t134 137t175 75.5t212.5 22.5q119 0 214 -22.5t175.5 -75.5t134 -137t83.5 -210.5t30 -291.5t-30 -291.5t-83.5 -210.5t-134 -137t-175.5 -75.5t-214 -22.5q-118 0 -212.5 22.5t-175 75.5t-134 137t-83.5 210.5t-30 291.5zM379 717 q0 -142 24 -240.5t72 -153t108 -77.5t142 -23q83 0 143.5 23t108 77.5t72 153t24.5 240.5t-24.5 240.5t-72 152.5t-108 77t-143.5 23q-82 0 -142 -23t-108 -77t-72 -152.5t-24 -240.5zM522 1743l205 172l201 -344l-74 -66z" />
<glyph unicode="&#xd3;" horiz-adv-x="1452" d="M90 717q0 165 30 291.5t83.5 210.5t134 137t175 75.5t212.5 22.5q119 0 214 -22.5t175.5 -75.5t134 -137t83.5 -210.5t30 -291.5t-30 -291.5t-83.5 -210.5t-134 -137t-175.5 -75.5t-214 -22.5q-118 0 -212.5 22.5t-175 75.5t-134 137t-83.5 210.5t-30 291.5zM379 717 q0 -142 24 -240.5t72 -153t108 -77.5t142 -23q83 0 143.5 23t108 77.5t72 153t24.5 240.5t-24.5 240.5t-72 152.5t-108 77t-143.5 23q-82 0 -142 -23t-108 -77t-72 -152.5t-24 -240.5zM522 1571l201 344l205 -172l-332 -238z" />
<glyph unicode="&#xd4;" horiz-adv-x="1452" d="M90 717q0 165 30 291.5t83.5 210.5t134 137t175 75.5t212.5 22.5q119 0 214 -22.5t175.5 -75.5t134 -137t83.5 -210.5t30 -291.5t-30 -291.5t-83.5 -210.5t-134 -137t-175.5 -75.5t-214 -22.5q-118 0 -212.5 22.5t-175 75.5t-134 137t-83.5 210.5t-30 291.5zM377 1561 l241 307h216l239 -307h-274l-74 94l-74 -94h-274zM379 717q0 -142 24 -240.5t72 -153t108 -77.5t142 -23q83 0 143.5 23t108 77.5t72 153t24.5 240.5t-24.5 240.5t-72 152.5t-108 77t-143.5 23q-82 0 -142 -23t-108 -77t-72 -152.5t-24 -240.5z" />
<glyph unicode="&#xd5;" horiz-adv-x="1452" d="M90 717q0 165 30 291.5t83.5 210.5t134 137t175 75.5t212.5 22.5q119 0 214 -22.5t175.5 -75.5t134 -137t83.5 -210.5t30 -291.5t-30 -291.5t-83.5 -210.5t-134 -137t-175.5 -75.5t-214 -22.5q-118 0 -212.5 22.5t-175 75.5t-134 137t-83.5 210.5t-30 291.5zM379 717 q0 -142 24 -240.5t72 -153t108 -77.5t142 -23q83 0 143.5 23t108 77.5t72 153t24.5 240.5t-24.5 240.5t-72 152.5t-108 77t-143.5 23q-82 0 -142 -23t-108 -77t-72 -152.5t-24 -240.5zM399 1620q17 122 70 175.5t123 53.5q55 0 137 -33.5t105 -33.5q19 0 28.5 16t14.5 51 l178 -45q-17 -122 -70 -175.5t-123 -53.5q-55 0 -136.5 33.5t-104.5 33.5q-19 0 -28.5 -16t-14.5 -51z" />
<glyph unicode="&#xd6;" horiz-adv-x="1452" d="M90 717q0 165 30 291.5t83.5 210.5t134 137t175 75.5t212.5 22.5q119 0 214 -22.5t175.5 -75.5t134 -137t83.5 -210.5t30 -291.5t-30 -291.5t-83.5 -210.5t-134 -137t-175.5 -75.5t-214 -22.5q-118 0 -212.5 22.5t-175 75.5t-134 137t-83.5 210.5t-30 291.5zM379 717 q0 -142 24 -240.5t72 -153t108 -77.5t142 -23q83 0 143.5 23t108 77.5t72 153t24.5 240.5t-24.5 240.5t-72 152.5t-108 77t-143.5 23q-82 0 -142 -23t-108 -77t-72 -152.5t-24 -240.5zM412 1575v246h252v-246h-252zM788 1575v246h252v-246h-252z" />
<glyph unicode="&#xd8;" horiz-adv-x="1452" d="M90 717q0 165 30 291.5t83.5 210.5t134 137t175 75.5t212.5 22.5q147 0 262 -37l70 119h282l-145 -250q168 -182 168 -569q0 -165 -30 -291.5t-83.5 -210.5t-134 -137t-175.5 -75.5t-214 -22.5q-150 0 -262 36l-68 -118h-282l143 249q-166 184 -166 570zM379 717 q0 -177 39 -289l440 764q-62 18 -133 18q-82 0 -142 -23t-108 -77t-72 -152.5t-24 -240.5zM594 242q53 -19 131 -19q83 0 143.5 23t108 77.5t72 153t24.5 240.5q0 180 -41 289z" />
<glyph unicode="&#xd9;" horiz-adv-x="1398" d="M121 463v971h289v-971q0 -63 24 -111t66 -75.5t91.5 -40.5t106.5 -13t107 13t92.5 40.5t67 75.5t24.5 111v971h289v-971q0 -102 -33 -185t-88 -137.5t-130.5 -91.5t-157 -53t-171.5 -16q-89 0 -171 16.5t-157 53.5t-129.5 91.5t-87 137t-32.5 184.5zM496 1743l204 172 l201 -344l-74 -66z" />
<glyph unicode="&#xda;" horiz-adv-x="1398" d="M121 463v971h289v-971q0 -63 24 -111t66 -75.5t91.5 -40.5t106.5 -13t107 13t92.5 40.5t67 75.5t24.5 111v971h289v-971q0 -102 -33 -185t-88 -137.5t-130.5 -91.5t-157 -53t-171.5 -16q-89 0 -171 16.5t-157 53.5t-129.5 91.5t-87 137t-32.5 184.5zM496 1571l200 344 l205 -172l-332 -238z" />
<glyph unicode="&#xdb;" horiz-adv-x="1398" d="M121 463v971h289v-971q0 -63 24 -111t66 -75.5t91.5 -40.5t106.5 -13t107 13t92.5 40.5t67 75.5t24.5 111v971h289v-971q0 -102 -33 -185t-88 -137.5t-130.5 -91.5t-157 -53t-171.5 -16q-89 0 -171 16.5t-157 53.5t-129.5 91.5t-87 137t-32.5 184.5zM350 1561l242 307 h215l240 -307h-275l-74 94l-73 -94h-275z" />
<glyph unicode="&#xdc;" horiz-adv-x="1398" d="M121 463v971h289v-971q0 -63 24 -111t66 -75.5t91.5 -40.5t106.5 -13t107 13t92.5 40.5t67 75.5t24.5 111v971h289v-971q0 -102 -33 -185t-88 -137.5t-130.5 -91.5t-157 -53t-171.5 -16q-89 0 -171 16.5t-157 53.5t-129.5 91.5t-87 137t-32.5 184.5zM385 1575v246h252 v-246h-252zM762 1575v246h252v-246h-252z" />
<glyph unicode="&#xdd;" horiz-adv-x="1222" d="M35 1434h325l250 -473l252 473h326l-432 -801v-633h-289v633zM412 1571l200 344l205 -172l-332 -238z" />
<glyph unicode="&#xde;" horiz-adv-x="1159" d="M121 0v1434h289v-232h129q516 0 516 -485q0 -486 -516 -486h-129v-231h-289zM410 475h129q113 0 170 55.5t57 186.5q0 132 -57 186.5t-170 54.5h-129v-483z" />
<glyph unicode="&#xdf;" horiz-adv-x="1232" d="M121 0v1057q0 128 37.5 220t105 143t148.5 73.5t182 22.5q215 0 508 -99l-314 -489q90 -49 152.5 -97t112.5 -109.5t74 -138t24 -171.5q0 -111 -30 -195t-83.5 -135t-123.5 -76.5t-154 -25.5q-126 0 -262 53l77 231q87 -41 152 -41q135 0 135 183q0 128 -72 210t-245 160 v230l162 251q-69 15 -111 15q-83 0 -134.5 -44.5t-51.5 -144.5v-1083h-289z" />
<glyph unicode="&#xe0;" horiz-adv-x="1071" d="M51 309q0 72 22.5 127t60.5 89t94 55.5t115.5 29.5t133.5 8q85 0 185 -14v76q0 61 -35.5 91t-96.5 30q-50 0 -80 -24.5t-40 -65.5l-314 37q24 137 145.5 216.5t290.5 79.5q118 0 210.5 -37t150 -118.5t57.5 -198.5v-328q0 -210 23 -362h-291q-18 54 -20 100 q-51 -60 -122 -90t-149 -30q-164 0 -252 84.5t-88 244.5zM330 1333l205 172l200 -344l-73 -65zM340 307q0 -42 29 -63t80 -21q88 0 150.5 55t62.5 140h-127q-95 0 -145 -25t-50 -86z" />
<glyph unicode="&#xe1;" horiz-adv-x="1071" d="M51 309q0 72 22.5 127t60.5 89t94 55.5t115.5 29.5t133.5 8q85 0 185 -14v76q0 61 -35.5 91t-96.5 30q-50 0 -80 -24.5t-40 -65.5l-314 37q24 137 145.5 216.5t290.5 79.5q118 0 210.5 -37t150 -118.5t57.5 -198.5v-328q0 -210 23 -362h-291q-18 54 -20 100 q-51 -60 -122 -90t-149 -30q-164 0 -252 84.5t-88 244.5zM334 1161l201 344l204 -172l-331 -237zM340 307q0 -42 29 -63t80 -21q88 0 150.5 55t62.5 140h-127q-95 0 -145 -25t-50 -86z" />
<glyph unicode="&#xe2;" horiz-adv-x="1071" d="M51 309q0 72 22.5 127t60.5 89t94 55.5t115.5 29.5t133.5 8q85 0 185 -14v76q0 61 -35.5 91t-96.5 30q-50 0 -80 -24.5t-40 -65.5l-314 37q24 137 145.5 216.5t290.5 79.5q118 0 210.5 -37t150 -118.5t57.5 -198.5v-328q0 -210 23 -362h-291q-18 54 -20 100 q-51 -60 -122 -90t-149 -30q-164 0 -252 84.5t-88 244.5zM186 1151l242 307h215l240 -307h-275l-73 94l-74 -94h-275zM340 307q0 -42 29 -63t80 -21q88 0 150.5 55t62.5 140h-127q-95 0 -145 -25t-50 -86z" />
<glyph unicode="&#xe3;" horiz-adv-x="1071" d="M51 309q0 72 22.5 127t60.5 89t94 55.5t115.5 29.5t133.5 8q85 0 185 -14v76q0 61 -35.5 91t-96.5 30q-50 0 -80 -24.5t-40 -65.5l-314 37q24 137 145.5 216.5t290.5 79.5q118 0 210.5 -37t150 -118.5t57.5 -198.5v-328q0 -210 23 -362h-291q-18 54 -20 100 q-51 -60 -122 -90t-149 -30q-164 0 -252 84.5t-88 244.5zM209 1210q17 122 69.5 176t122.5 54q55 0 137 -34t105 -34q19 0 28.5 16t14.5 52l178 -45q-17 -122 -69.5 -176t-122.5 -54q-55 0 -137 34t-105 34q-19 0 -28.5 -16t-14.5 -52zM340 307q0 -42 29 -63t80 -21 q88 0 150.5 55t62.5 140h-127q-95 0 -145 -25t-50 -86z" />
<glyph unicode="&#xe4;" horiz-adv-x="1071" d="M51 309q0 72 22.5 127t60.5 89t94 55.5t115.5 29.5t133.5 8q85 0 185 -14v76q0 61 -35.5 91t-96.5 30q-50 0 -80 -24.5t-40 -65.5l-314 37q24 137 145.5 216.5t290.5 79.5q118 0 210.5 -37t150 -118.5t57.5 -198.5v-328q0 -210 23 -362h-291q-18 54 -20 100 q-51 -60 -122 -90t-149 -30q-164 0 -252 84.5t-88 244.5zM221 1165v246h252v-246h-252zM340 307q0 -42 29 -63t80 -21q88 0 150.5 55t62.5 140h-127q-95 0 -145 -25t-50 -86zM598 1165v246h252v-246h-252z" />
<glyph unicode="&#xe5;" horiz-adv-x="1071" d="M51 309q0 72 22.5 127t60.5 89t94 55.5t115.5 29.5t133.5 8q85 0 185 -14v76q0 61 -35.5 91t-96.5 30q-50 0 -80 -24.5t-40 -65.5l-314 37q24 137 145.5 216.5t290.5 79.5q118 0 210.5 -37t150 -118.5t57.5 -198.5v-328q0 -210 23 -362h-291q-18 54 -20 100 q-51 -60 -122 -90t-149 -30q-164 0 -252 84.5t-88 244.5zM340 307q0 -42 29 -63t80 -21q88 0 150.5 55t62.5 140h-127q-95 0 -145 -25t-50 -86zM340 1329q0 91 53 141t142 50q88 0 141 -50t53 -141t-53 -141.5t-141 -50.5q-89 0 -142 50.5t-53 141.5zM483 1329 q0 -25 14.5 -39t37.5 -14t37 14t14 39t-14 38t-37 13t-37.5 -13t-14.5 -38z" />
<glyph unicode="&#xe6;" horiz-adv-x="1746" d="M51 309q0 90 34.5 152.5t98 95.5t138 47t170.5 14q68 0 178 -12l10 66q-18 129 -137 129q-112 0 -133 -90l-314 37q24 137 145.5 216.5t290.5 79.5q191 0 310 -102q127 102 334 102q232 0 354.5 -133.5t122.5 -353.5v-151h-688q46 -183 270 -183q132 0 307 84l92 -227 q-207 -100 -405 -100q-305 0 -453 186q-69 -88 -169.5 -137t-209.5 -49q-155 0 -250.5 82.5t-95.5 246.5zM340 309q0 -86 113 -86q64 0 134.5 42t90.5 110l-6 43h-150q-182 0 -182 -109zM971 641h391q-6 80 -56 120t-130 40q-159 0 -205 -160z" />
<glyph unicode="&#xe7;" horiz-adv-x="1081" d="M92 512q0 246 130.5 389t379.5 143q159 0 273.5 -66t175.5 -179l-250 -150q-36 74 -88.5 113t-110.5 39q-110 0 -165.5 -76.5t-55.5 -212.5t55.5 -212.5t165.5 -76.5q61 0 116 41.5t85 116.5l262 -117q-108 -245 -377 -278l-12 -68q86 -10 125 -52.5t39 -107.5 q0 -105 -69.5 -153.5t-178.5 -48.5q-95 0 -199 34l47 160q14 -5 63 -15.5t85 -10.5q53 0 53 26q0 31 -80 31h-115l46 207q-196 30 -298 168.5t-102 355.5z" />
<glyph unicode="&#xe8;" horiz-adv-x="1173" d="M92 512q0 246 131 389t379 143q232 0 354.5 -133.5t122.5 -353.5v-151h-688q46 -183 271 -183q132 0 307 84l92 -227q-207 -100 -406 -100q-261 0 -412 142.5t-151 389.5zM397 641h391q-6 80 -56 120t-130 40q-159 0 -205 -160zM399 1333l205 172l201 -344l-74 -65z" />
<glyph unicode="&#xe9;" horiz-adv-x="1173" d="M92 512q0 246 131 389t379 143q232 0 354.5 -133.5t122.5 -353.5v-151h-688q46 -183 271 -183q132 0 307 84l92 -227q-207 -100 -406 -100q-261 0 -412 142.5t-151 389.5zM395 1161l201 344l205 -172l-332 -237zM397 641h391q-6 80 -56 120t-130 40q-159 0 -205 -160z " />
<glyph unicode="&#xea;" horiz-adv-x="1173" d="M92 512q0 246 131 389t379 143q232 0 354.5 -133.5t122.5 -353.5v-151h-688q46 -183 271 -183q132 0 307 84l92 -227q-207 -100 -406 -100q-261 0 -412 142.5t-151 389.5zM254 1151l242 307h215l239 -307h-274l-74 94l-74 -94h-274zM397 641h391q-6 80 -56 120t-130 40 q-159 0 -205 -160z" />
<glyph unicode="&#xeb;" horiz-adv-x="1173" d="M92 512q0 246 131 389t379 143q232 0 354.5 -133.5t122.5 -353.5v-151h-688q46 -183 271 -183q132 0 307 84l92 -227q-207 -100 -406 -100q-261 0 -412 142.5t-151 389.5zM287 1165v246h252v-246h-252zM397 641h391q-6 80 -56 120t-130 40q-159 0 -205 -160zM664 1165 v246h251v-246h-251z" />
<glyph unicode="&#xec;" horiz-adv-x="573" d="M41 1333l205 172l200 -344l-73 -65zM45 780v244h272q79 0 107.5 -21.5t28.5 -91.5v-911h-289v780h-119z" />
<glyph unicode="&#xed;" horiz-adv-x="573" d="M45 780v244h272q79 0 107.5 -21.5t28.5 -91.5v-911h-289v780h-119zM86 1161l201 344l205 -172l-332 -237z" />
<glyph unicode="&#xee;" horiz-adv-x="573" d="M-70 1151l242 307h215l240 -307h-275l-73 94l-74 -94h-275zM45 780v244h272q79 0 107.5 -21.5t28.5 -91.5v-911h-289v780h-119z" />
<glyph unicode="&#xef;" horiz-adv-x="573" d="M-31 1165v246h252v-246h-252zM45 780v244h272q79 0 107.5 -21.5t28.5 -91.5v-911h-289v780h-119zM346 1165v246h252v-246h-252z" />
<glyph unicode="&#xf0;" horiz-adv-x="1204" d="M92 512q0 235 121 383.5t311 148.5q55 0 146 -16q-51 83 -101 143l-176 -84l-82 158l127 62q-41 35 -80 61l236 148q76 -55 108 -82l175 84l81 -156l-122 -62q129 -150 201.5 -332.5t72.5 -379.5q0 -288 -129 -448t-379 -160q-249 0 -379.5 143t-130.5 389zM381 512 q0 -136 55.5 -212.5t165.5 -76.5t164.5 76.5t54.5 212.5t-54.5 212.5t-164.5 76.5t-165.5 -76.5t-55.5 -212.5z" />
<glyph unicode="&#xf1;" horiz-adv-x="1114" d="M106 0v1024h289v-96q59 60 127 88t158 28q157 0 241.5 -97t84.5 -290v-657h-289v651q0 75 -38.5 112.5t-105.5 37.5q-178 0 -178 -318v-483h-289zM221 1210q17 122 70 176t123 54q55 0 136.5 -34t104.5 -34q19 0 28.5 16t14.5 52l179 -45q-17 -122 -70 -176t-123 -54 q-55 0 -137 34t-105 34q-19 0 -28.5 -16t-14.5 -52z" />
<glyph unicode="&#xf2;" horiz-adv-x="1204" d="M92 512q0 246 130.5 389t379.5 143t378.5 -143t129.5 -389t-129.5 -389t-378.5 -143t-379.5 143t-130.5 389zM381 512q0 -136 55.5 -212.5t165.5 -76.5t164.5 76.5t54.5 212.5t-54.5 212.5t-164.5 76.5t-165.5 -76.5t-55.5 -212.5zM399 1333l205 172l201 -344l-74 -65z " />
<glyph unicode="&#xf3;" horiz-adv-x="1204" d="M92 512q0 246 130.5 389t379.5 143t378.5 -143t129.5 -389t-129.5 -389t-378.5 -143t-379.5 143t-130.5 389zM381 512q0 -136 55.5 -212.5t165.5 -76.5t164.5 76.5t54.5 212.5t-54.5 212.5t-164.5 76.5t-165.5 -76.5t-55.5 -212.5zM399 1161l201 344l205 -172l-332 -237z " />
<glyph unicode="&#xf4;" horiz-adv-x="1204" d="M92 512q0 246 130.5 389t379.5 143t378.5 -143t129.5 -389t-129.5 -389t-378.5 -143t-379.5 143t-130.5 389zM254 1151l242 307h215l239 -307h-274l-74 94l-74 -94h-274zM381 512q0 -136 55.5 -212.5t165.5 -76.5t164.5 76.5t54.5 212.5t-54.5 212.5t-164.5 76.5 t-165.5 -76.5t-55.5 -212.5z" />
<glyph unicode="&#xf5;" horiz-adv-x="1204" d="M92 512q0 246 130.5 389t379.5 143t378.5 -143t129.5 -389t-129.5 -389t-378.5 -143t-379.5 143t-130.5 389zM276 1210q17 122 70 176t123 54q55 0 137 -34t105 -34q19 0 28.5 16t14.5 52l178 -45q-17 -122 -70 -176t-123 -54q-55 0 -136.5 34t-104.5 34q-19 0 -28.5 -16 t-14.5 -52zM381 512q0 -136 55.5 -212.5t165.5 -76.5t164.5 76.5t54.5 212.5t-54.5 212.5t-164.5 76.5t-165.5 -76.5t-55.5 -212.5z" />
<glyph unicode="&#xf6;" horiz-adv-x="1204" d="M92 512q0 246 130.5 389t379.5 143t378.5 -143t129.5 -389t-129.5 -389t-378.5 -143t-379.5 143t-130.5 389zM287 1165v246h252v-246h-252zM381 512q0 -136 55.5 -212.5t165.5 -76.5t164.5 76.5t54.5 212.5t-54.5 212.5t-164.5 76.5t-165.5 -76.5t-55.5 -212.5zM664 1165 v246h251v-246h-251z" />
<glyph unicode="&#xf8;" horiz-adv-x="1204" d="M92 512q0 246 130.5 389t379.5 143q83 0 168 -20l59 102h258l-122 -211q145 -139 145 -403q0 -246 -129.5 -389t-378.5 -143q-86 0 -168 20l-59 -102h-260l123 211q-146 140 -146 403zM381 512q0 -80 16 -129l242 416q-12 2 -37 2q-110 0 -165.5 -76.5t-55.5 -212.5z M565 225q10 -2 37 -2q110 0 164.5 76.5t54.5 212.5q0 68 -16 127z" />
<glyph unicode="&#xf9;" horiz-adv-x="1140" d="M121 369v655h289v-643q0 -79 36 -118.5t99 -39.5q87 0 136.5 80t49.5 225v496h289v-651q0 -207 22 -373h-286q-22 59 -25 115q-41 -65 -108 -100t-150 -35q-352 0 -352 389zM362 1333l205 172l201 -344l-74 -65z" />
<glyph unicode="&#xfa;" horiz-adv-x="1140" d="M121 369v655h289v-643q0 -79 36 -118.5t99 -39.5q87 0 136.5 80t49.5 225v496h289v-651q0 -207 22 -373h-286q-22 59 -25 115q-41 -65 -108 -100t-150 -35q-352 0 -352 389zM373 1161l200 344l205 -172l-332 -237z" />
<glyph unicode="&#xfb;" horiz-adv-x="1140" d="M121 369v655h289v-643q0 -79 36 -118.5t99 -39.5q87 0 136.5 80t49.5 225v496h289v-651q0 -207 22 -373h-286q-22 59 -25 115q-41 -65 -108 -100t-150 -35q-352 0 -352 389zM219 1151l242 307h215l239 -307h-274l-74 94l-73 -94h-275z" />
<glyph unicode="&#xfc;" horiz-adv-x="1140" d="M121 369v655h289v-643q0 -79 36 -118.5t99 -39.5q87 0 136.5 80t49.5 225v496h289v-651q0 -207 22 -373h-286q-22 59 -25 115q-41 -65 -108 -100t-150 -35q-352 0 -352 389zM252 1165v246h252v-246h-252zM629 1165v246h252v-246h-252z" />
<glyph unicode="&#xfd;" horiz-adv-x="1089" d="M20 1024h314l211 -606l213 606h309l-578 -1434h-311l211 519zM346 1161l201 344l205 -172l-332 -237z" />
<glyph unicode="&#xfe;" horiz-adv-x="1181" d="M121 -410v1905h289v-580q100 129 280 129q179 0 289.5 -131t110.5 -383q0 -271 -117 -410.5t-322 -139.5q-142 0 -241 102v-492h-289zM410 328q47 -54 91.5 -79.5t100.5 -25.5q92 0 145.5 81t53.5 226q0 134 -48.5 202.5t-131.5 68.5q-93 0 -152 -90.5t-59 -255.5v-127z " />
<glyph unicode="&#xff;" horiz-adv-x="1089" d="M20 1024h314l211 -606l213 606h309l-578 -1434h-311l211 519zM231 1165v246h252v-246h-252zM608 1165v246h252v-246h-252z" />
<glyph unicode="&#x100;" horiz-adv-x="1425" d="M35 0l524 1434h307l525 -1434h-312l-110 309h-512l-111 -309h-311zM401 1575v231h619v-231h-619zM549 553h325l-163 463z" />
<glyph unicode="&#x101;" horiz-adv-x="1071" d="M51 309q0 72 22.5 127t60.5 89t94 55.5t115.5 29.5t133.5 8q85 0 185 -14v76q0 61 -35.5 91t-96.5 30q-50 0 -80 -24.5t-40 -65.5l-314 37q24 137 145.5 216.5t290.5 79.5q118 0 210.5 -37t150 -118.5t57.5 -198.5v-328q0 -210 23 -362h-291q-18 54 -20 100 q-51 -60 -122 -90t-149 -30q-164 0 -252 84.5t-88 244.5zM225 1165v232h619v-232h-619zM340 307q0 -42 29 -63t80 -21q88 0 150.5 55t62.5 140h-127q-95 0 -145 -25t-50 -86z" />
<glyph unicode="&#x102;" horiz-adv-x="1425" d="M35 0l524 1434h307l525 -1434h-312l-110 309h-512l-111 -309h-311zM446 1796v72h224v-53q0 -23 12.5 -36.5t28.5 -13.5q18 0 30.5 13t12.5 37v53h225v-72q0 -118 -71.5 -176.5t-194.5 -58.5q-122 0 -194.5 58.5t-72.5 176.5zM549 553h325l-163 463z" />
<glyph unicode="&#x103;" horiz-adv-x="1071" d="M51 309q0 72 22.5 127t60.5 89t94 55.5t115.5 29.5t133.5 8q85 0 185 -14v76q0 61 -35.5 91t-96.5 30q-50 0 -80 -24.5t-40 -65.5l-314 37q24 137 145.5 216.5t290.5 79.5q118 0 210.5 -37t150 -118.5t57.5 -198.5v-328q0 -210 23 -362h-291q-18 54 -20 100 q-51 -60 -122 -90t-149 -30q-164 0 -252 84.5t-88 244.5zM268 1386v72h224v-53q0 -23 12 -36t28 -13q18 0 30.5 12.5t12.5 36.5v53h226v-72q0 -118 -71.5 -176.5t-194.5 -58.5q-122 0 -194.5 58.5t-72.5 176.5zM340 307q0 -42 29 -63t80 -21q88 0 150.5 55t62.5 140h-127 q-95 0 -145 -25t-50 -86z" />
<glyph unicode="&#x104;" horiz-adv-x="1425" d="M35 0l524 1434h307l525 -1434q-64 -42 -99 -85.5t-35 -100.5q0 -66 86 -66h62l-88 -192h-27q-128 0 -191 49t-63 151q0 80 35 136.5t111 107.5h-103l-110 309h-512l-111 -309h-311zM549 553h325l-163 463z" />
<glyph unicode="&#x105;" horiz-adv-x="1071" d="M51 309q0 72 22.5 127t60.5 89t94 55.5t115.5 29.5t133.5 8q85 0 185 -14v76q0 61 -35.5 91t-96.5 30q-50 0 -80 -24.5t-40 -65.5l-314 37q24 137 145.5 216.5t290.5 79.5q118 0 210.5 -37t150 -118.5t57.5 -198.5v-328q0 -210 23 -362q-64 -42 -98.5 -85.5t-34.5 -100.5 q0 -66 86 -66h61l-88 -192h-27q-128 0 -191 49t-63 151q0 80 35 136.5t111 107.5h-82q-18 54 -20 100q-51 -60 -122 -90t-149 -30q-164 0 -252 84.5t-88 244.5zM340 307q0 -42 29 -63t80 -21q88 0 150.5 55t62.5 140h-127q-95 0 -145 -25t-50 -86z" />
<glyph unicode="&#x106;" horiz-adv-x="1398" d="M90 715q0 164 33 292t89.5 211t138 137t173.5 76.5t201 22.5q140 0 252.5 -39.5t204 -133.5t137.5 -239l-272 -88q-33 137 -119.5 196.5t-202.5 59.5q-60 0 -109.5 -14t-94.5 -48.5t-75.5 -89.5t-48.5 -142t-18 -201t18 -200.5t48.5 -141t76 -89t94.5 -48t109 -13.5 q117 0 205 68t121 217l278 -78q-32 -120 -92 -209t-140.5 -140.5t-172.5 -76t-199 -24.5q-109 0 -200.5 22t-173.5 75.5t-138.5 136t-89.5 210t-33 291.5zM541 1571l200 344l205 -172l-332 -238z" />
<glyph unicode="&#x107;" horiz-adv-x="1081" d="M92 512q0 246 130.5 389t379.5 143q159 0 273.5 -66t175.5 -179l-250 -150q-36 74 -88.5 113t-110.5 39q-110 0 -165.5 -76.5t-55.5 -212.5t55.5 -212.5t165.5 -76.5q61 0 116 41.5t85 116.5l262 -117q-58 -133 -175 -208.5t-288 -75.5q-249 0 -379.5 143t-130.5 389z M397 1161l201 344l205 -172l-332 -237z" />
<glyph unicode="&#x108;" horiz-adv-x="1398" d="M90 715q0 164 33 292t89.5 211t138 137t173.5 76.5t201 22.5q140 0 252.5 -39.5t204 -133.5t137.5 -239l-272 -88q-33 137 -119.5 196.5t-202.5 59.5q-60 0 -109.5 -14t-94.5 -48.5t-75.5 -89.5t-48.5 -142t-18 -201t18 -200.5t48.5 -141t76 -89t94.5 -48t109 -13.5 q117 0 205 68t121 217l278 -78q-32 -120 -92 -209t-140.5 -140.5t-172.5 -76t-199 -24.5q-109 0 -200.5 22t-173.5 75.5t-138.5 136t-89.5 210t-33 291.5zM381 1561l242 307h215l239 -307h-274l-74 94l-74 -94h-274z" />
<glyph unicode="&#x109;" horiz-adv-x="1081" d="M92 512q0 246 130.5 389t379.5 143q159 0 273.5 -66t175.5 -179l-250 -150q-36 74 -88.5 113t-110.5 39q-110 0 -165.5 -76.5t-55.5 -212.5t55.5 -212.5t165.5 -76.5q61 0 116 41.5t85 116.5l262 -117q-58 -133 -175 -208.5t-288 -75.5q-249 0 -379.5 143t-130.5 389z M246 1151l241 307h215l240 -307h-274l-74 94l-74 -94h-274z" />
<glyph unicode="&#x10a;" horiz-adv-x="1398" d="M90 715q0 164 33 292t89.5 211t138 137t173.5 76.5t201 22.5q140 0 252.5 -39.5t204 -133.5t137.5 -239l-272 -88q-33 137 -119.5 196.5t-202.5 59.5q-60 0 -109.5 -14t-94.5 -48.5t-75.5 -89.5t-48.5 -142t-18 -201t18 -200.5t48.5 -141t76 -89t94.5 -48t109 -13.5 q117 0 205 68t121 217l278 -78q-32 -120 -92 -209t-140.5 -140.5t-172.5 -76t-199 -24.5q-109 0 -200.5 22t-173.5 75.5t-138.5 136t-89.5 210t-33 291.5zM602 1575v246h252v-246h-252z" />
<glyph unicode="&#x10b;" horiz-adv-x="1081" d="M92 512q0 246 130.5 389t379.5 143q159 0 273.5 -66t175.5 -179l-250 -150q-36 74 -88.5 113t-110.5 39q-110 0 -165.5 -76.5t-55.5 -212.5t55.5 -212.5t165.5 -76.5q61 0 116 41.5t85 116.5l262 -117q-58 -133 -175 -208.5t-288 -75.5q-249 0 -379.5 143t-130.5 389z M469 1165v246h252v-246h-252z" />
<glyph unicode="&#x10c;" horiz-adv-x="1398" d="M90 715q0 164 33 292t89.5 211t138 137t173.5 76.5t201 22.5q140 0 252.5 -39.5t204 -133.5t137.5 -239l-272 -88q-33 137 -119.5 196.5t-202.5 59.5q-60 0 -109.5 -14t-94.5 -48.5t-75.5 -89.5t-48.5 -142t-18 -201t18 -200.5t48.5 -141t76 -89t94.5 -48t109 -13.5 q117 0 205 68t121 217l278 -78q-32 -120 -92 -209t-140.5 -140.5t-172.5 -76t-199 -24.5q-109 0 -200.5 22t-173.5 75.5t-138.5 136t-89.5 210t-33 291.5zM381 1868h274l74 -96l74 96h274l-239 -307h-215z" />
<glyph unicode="&#x10d;" horiz-adv-x="1081" d="M92 512q0 246 130.5 389t379.5 143q159 0 273.5 -66t175.5 -179l-250 -150q-36 74 -88.5 113t-110.5 39q-110 0 -165.5 -76.5t-55.5 -212.5t55.5 -212.5t165.5 -76.5q61 0 116 41.5t85 116.5l262 -117q-58 -133 -175 -208.5t-288 -75.5q-249 0 -379.5 143t-130.5 389z M246 1458h274l74 -96l74 96h274l-240 -307h-215z" />
<glyph unicode="&#x10e;" horiz-adv-x="1368" d="M121 0v1434h418q103 0 189.5 -10t155.5 -29t124 -48.5t96 -65.5t71.5 -84t50 -100t31.5 -117t16.5 -131t4.5 -147q0 -131 -18.5 -232t-66.5 -192t-127 -150t-205 -93.5t-296 -34.5h-444zM252 1868h274l74 -96l74 96h274l-239 -307h-215zM410 244h161q90 0 158 14 t113.5 43t75 66t45 92t21 110.5t5.5 132.5q0 67 -2.5 114t-10 97.5t-21.5 84.5t-36.5 68t-56 55t-79.5 37.5t-106.5 24t-137.5 7.5h-129v-946z" />
<glyph unicode="&#x10f;" horiz-adv-x="1443" d="M92 498q0 267 116 406.5t318 139.5q146 0 246 -112v563h289v-1122q0 -207 22 -373h-256q-24 53 -41 121q-125 -141 -292 -141q-86 0 -158 31.5t-127 93.5t-86 162.5t-31 230.5zM381 498q0 -135 49.5 -205t132.5 -70q93 0 151 90.5t58 255.5v109q-44 64 -87.5 93.5 t-106.5 29.5q-89 0 -143 -81.5t-54 -221.5zM1176 1182v252h274v-105q0 -138 -24.5 -224t-77.5 -163l-152 45q69 93 84 195h-104z" />
<glyph unicode="&#x111;" horiz-adv-x="1181" d="M92 498q0 267 116 406.5t318 139.5q146 0 246 -112v219h-242v244h242v100h289v-100h121v-244h-121v-778q0 -207 22 -373h-256q-24 53 -41 121q-125 -141 -292 -141q-86 0 -158 31.5t-127 93.5t-86 162.5t-31 230.5zM381 498q0 -135 49.5 -205t132.5 -70q93 0 151 90.5 t58 255.5v109q-44 64 -87.5 93.5t-106.5 29.5q-89 0 -143 -81.5t-54 -221.5z" />
<glyph unicode="&#x112;" horiz-adv-x="1155" d="M121 0v1434h932v-244h-643v-350h612v-244h-612v-352h663v-244h-952zM303 1575v231h619v-231h-619z" />
<glyph unicode="&#x113;" horiz-adv-x="1173" d="M92 512q0 246 131 389t379 143q232 0 354.5 -133.5t122.5 -353.5v-151h-688q46 -183 271 -183q132 0 307 84l92 -227q-207 -100 -406 -100q-261 0 -412 142.5t-151 389.5zM293 1165v232h618v-232h-618zM397 641h391q-6 80 -56 120t-130 40q-159 0 -205 -160z" />
<glyph unicode="&#x114;" horiz-adv-x="1155" d="M121 0v1434h932v-244h-643v-350h612v-244h-612v-352h663v-244h-952zM346 1796v72h223v-53q0 -23 12.5 -36.5t28.5 -13.5q18 0 30.5 13t12.5 37v53h226v-72q0 -118 -72 -176.5t-195 -58.5q-122 0 -194 58.5t-72 176.5z" />
<glyph unicode="&#x115;" horiz-adv-x="1173" d="M92 512q0 246 131 389t379 143q232 0 354.5 -133.5t122.5 -353.5v-151h-688q46 -183 271 -183q132 0 307 84l92 -227q-207 -100 -406 -100q-261 0 -412 142.5t-151 389.5zM336 1386v72h223v-53q0 -23 12.5 -36t28.5 -13q18 0 30.5 12.5t12.5 36.5v53h225v-72 q0 -118 -71.5 -176.5t-194.5 -58.5q-122 0 -194 58.5t-72 176.5zM397 641h391q-6 80 -56 120t-130 40q-159 0 -205 -160z" />
<glyph unicode="&#x116;" horiz-adv-x="1155" d="M121 0v1434h932v-244h-643v-350h612v-244h-612v-352h663v-244h-952zM487 1575v246h252v-246h-252z" />
<glyph unicode="&#x117;" horiz-adv-x="1173" d="M92 512q0 246 131 389t379 143q232 0 354.5 -133.5t122.5 -353.5v-151h-688q46 -183 271 -183q132 0 307 84l92 -227q-207 -100 -406 -100q-261 0 -412 142.5t-151 389.5zM397 641h391q-6 80 -56 120t-130 40q-159 0 -205 -160zM475 1165v246h252v-246h-252z" />
<glyph unicode="&#x118;" horiz-adv-x="1155" d="M121 0v1434h932v-244h-643v-350h612v-244h-612v-352h663v-244q-64 -42 -98.5 -85.5t-34.5 -100.5q0 -66 86 -66h61l-88 -192h-26q-128 0 -191 49t-63 151q0 80 35 136.5t110 107.5h-743z" />
<glyph unicode="&#x119;" horiz-adv-x="1173" d="M92 512q0 246 131 389t379 143q232 0 354.5 -133.5t122.5 -353.5v-151h-688q46 -183 271 -183q132 0 307 84l92 -227q-148 -71 -275 -88q-57 -39 -87.5 -81t-30.5 -97q0 -66 86 -66h61l-88 -192h-27q-128 0 -191 49t-63 151q0 74 29.5 128.5t91.5 99.5q-223 23 -349 163 t-126 365zM397 641h391q-6 80 -56 120t-130 40q-159 0 -205 -160z" />
<glyph unicode="&#x11a;" horiz-adv-x="1155" d="M121 0v1434h932v-244h-643v-350h612v-244h-612v-352h663v-244h-952zM264 1868h275l73 -96l74 96h275l-240 -307h-215z" />
<glyph unicode="&#x11b;" horiz-adv-x="1173" d="M92 512q0 246 131 389t379 143q232 0 354.5 -133.5t122.5 -353.5v-151h-688q46 -183 271 -183q132 0 307 84l92 -227q-207 -100 -406 -100q-261 0 -412 142.5t-151 389.5zM254 1458h274l74 -96l74 96h274l-239 -307h-215zM397 641h391q-6 80 -56 120t-130 40 q-159 0 -205 -160z" />
<glyph unicode="&#x11c;" horiz-adv-x="1427" d="M90 715q0 164 34 292t92 211t141 137t176 76.5t202 22.5q452 0 584 -414l-266 -84q-72 254 -318 254q-356 0 -356 -495q0 -113 19 -200t50.5 -141.5t78 -89t97 -48t111.5 -13.5q68 0 118.5 15t92.5 51t66.5 102.5t31.5 163.5h-385v244h678v-172q0 -317 -162 -482 t-440 -165q-109 0 -201.5 22t-176 75.5t-141.5 136t-92 210t-34 291.5zM365 1561l241 307h215l240 -307h-275l-73 94l-74 -94h-274z" />
<glyph unicode="&#x11d;" horiz-adv-x="1107" d="M68 -317l104 211q100 -54 177 -72.5t183 -18.5q205 0 205 119q0 37 -21.5 57.5t-74.5 20.5h-471v113l100 243q-178 87 -178 320q0 174 107.5 271t324.5 97q92 0 174 -20h398v-213h-160q20 -59 20 -135q0 -175 -107 -272t-325 -97h-10l-39 -94h209q187 0 264.5 -74 t77.5 -211q0 -76 -24.5 -137t-67 -102t-104 -68t-132.5 -39t-155 -12q-287 0 -475 113zM170 1151l242 307h215l239 -307h-274l-74 94l-74 -94h-274zM381 676q0 -64 35 -99.5t108 -35.5q144 0 144 135t-144 135q-143 0 -143 -135z" />
<glyph unicode="&#x11e;" horiz-adv-x="1427" d="M90 715q0 164 34 292t92 211t141 137t176 76.5t202 22.5q452 0 584 -414l-266 -84q-72 254 -318 254q-356 0 -356 -495q0 -113 19 -200t50.5 -141.5t78 -89t97 -48t111.5 -13.5q68 0 118.5 15t92.5 51t66.5 102.5t31.5 163.5h-385v244h678v-172q0 -317 -162 -482 t-440 -165q-109 0 -201.5 22t-176 75.5t-141.5 136t-92 210t-34 291.5zM446 1796v72h224v-53q0 -23 12.5 -36.5t28.5 -13.5q18 0 30.5 13t12.5 37v53h225v-72q0 -118 -71.5 -176.5t-194.5 -58.5q-122 0 -194.5 58.5t-72.5 176.5z" />
<glyph unicode="&#x11f;" horiz-adv-x="1107" d="M68 -317l104 211q100 -54 177 -72.5t183 -18.5q205 0 205 119q0 37 -21.5 57.5t-74.5 20.5h-471v113l100 243q-178 87 -178 320q0 174 107.5 271t324.5 97q92 0 174 -20h398v-213h-160q20 -59 20 -135q0 -175 -107 -272t-325 -97h-10l-39 -94h209q187 0 264.5 -74 t77.5 -211q0 -76 -24.5 -137t-67 -102t-104 -68t-132.5 -39t-155 -12q-287 0 -475 113zM254 1386v72h223v-53q0 -23 12.5 -36t28.5 -13q18 0 30.5 12.5t12.5 36.5v53h225v-72q0 -118 -71.5 -176.5t-194.5 -58.5q-122 0 -194 58.5t-72 176.5zM381 676q0 -64 35 -99.5 t108 -35.5q144 0 144 135t-144 135q-143 0 -143 -135z" />
<glyph unicode="&#x120;" horiz-adv-x="1427" d="M90 715q0 164 34 292t92 211t141 137t176 76.5t202 22.5q452 0 584 -414l-266 -84q-72 254 -318 254q-356 0 -356 -495q0 -113 19 -200t50.5 -141.5t78 -89t97 -48t111.5 -13.5q68 0 118.5 15t92.5 51t66.5 102.5t31.5 163.5h-385v244h678v-172q0 -317 -162 -482 t-440 -165q-109 0 -201.5 22t-176 75.5t-141.5 136t-92 210t-34 291.5zM588 1575v246h252v-246h-252z" />
<glyph unicode="&#x121;" horiz-adv-x="1107" d="M68 -317l104 211q100 -54 177 -72.5t183 -18.5q205 0 205 119q0 37 -21.5 57.5t-74.5 20.5h-471v113l100 243q-178 87 -178 320q0 174 107.5 271t324.5 97q92 0 174 -20h398v-213h-160q20 -59 20 -135q0 -175 -107 -272t-325 -97h-10l-39 -94h209q187 0 264.5 -74 t77.5 -211q0 -76 -24.5 -137t-67 -102t-104 -68t-132.5 -39t-155 -12q-287 0 -475 113zM381 676q0 -64 35 -99.5t108 -35.5q144 0 144 135t-144 135q-143 0 -143 -135zM393 1165v246h252v-246h-252z" />
<glyph unicode="&#x122;" horiz-adv-x="1427" d="M90 715q0 164 34 292t92 211t141 137t176 76.5t202 22.5q452 0 584 -414l-266 -84q-72 254 -318 254q-356 0 -356 -495q0 -113 19 -200t50.5 -141.5t78 -89t97 -48t111.5 -13.5q68 0 118.5 15t92.5 51t66.5 102.5t31.5 163.5h-385v244h678v-172q0 -317 -162 -482 t-440 -165q-109 0 -201.5 22t-176 75.5t-141.5 136t-92 210t-34 291.5zM588 -567q49 65 75.5 119.5t34.5 121.5h-80v230h234v-160q0 -110 -27 -183.5t-86 -152.5z" />
<glyph unicode="&#x123;" horiz-adv-x="1107" d="M68 -317l104 211q100 -54 177 -72.5t183 -18.5q205 0 205 119q0 37 -21.5 57.5t-74.5 20.5h-471v113l100 243q-178 87 -178 320q0 174 107.5 271t324.5 97q92 0 174 -20h398v-213h-160q20 -59 20 -135q0 -175 -107 -272t-325 -97h-10l-39 -94h209q187 0 264.5 -74 t77.5 -211q0 -76 -24.5 -137t-67 -102t-104 -68t-132.5 -39t-155 -12q-287 0 -475 113zM381 676q0 -64 35 -99.5t108 -35.5q144 0 144 135t-144 135q-143 0 -143 -135zM412 1112v160q0 110 26.5 184t85.5 152l152 -25q-49 -65 -76 -120t-35 -122h80v-229h-233z" />
<glyph unicode="&#x124;" horiz-adv-x="1378" d="M121 0v1434h289v-615h559v615h288v-1434h-288v575h-559v-575h-289zM344 1561l242 307h215l239 -307h-274l-74 94l-74 -94h-274z" />
<glyph unicode="&#x125;" horiz-adv-x="1140" d="M-82 1561l242 307h215l239 -307h-274l-74 94l-73 -94h-275zM121 0v1495h289v-567q59 60 126.5 88t157.5 28q157 0 241.5 -97t84.5 -290v-657h-289v651q0 76 -38 113t-105 37q-178 0 -178 -322v-479h-289z" />
<glyph unicode="&#x126;" horiz-adv-x="1378" d="M20 1059v244h101v131h289v-131h559v131h288v-131h101v-244h-101v-1059h-288v575h-559v-575h-289v1059h-101zM410 819h559v240h-559v-240z" />
<glyph unicode="&#x127;" horiz-adv-x="1140" d="M0 1151v244h121v100h289v-100h241v-244h-241v-223q59 60 126.5 88t157.5 28q157 0 241.5 -97t84.5 -290v-657h-289v651q0 76 -38 113t-105 37q-178 0 -178 -322v-479h-289v1151h-121z" />
<glyph unicode="&#x128;" horiz-adv-x="782" d="M63 1620q17 122 70 175.5t123 53.5q55 0 137 -33.5t105 -33.5q19 0 28.5 16t14.5 51l178 -45q-17 -122 -70 -175.5t-123 -53.5q-55 0 -136.5 33.5t-104.5 33.5q-19 0 -28.5 -16t-14.5 -51zM98 0v244h148v946h-148v244h584v-244h-147v-946h147v-244h-584z" />
<glyph unicode="&#x129;" horiz-adv-x="573" d="M-53 1210q17 122 69.5 176t122.5 54q55 0 137 -34t105 -34q19 0 28.5 16t14.5 52l178 -45q-17 -122 -69.5 -176t-122.5 -54q-55 0 -137 34t-105 34q-19 0 -28.5 -16t-14.5 -52zM45 780v244h272q79 0 107.5 -21.5t28.5 -91.5v-911h-289v780h-119z" />
<glyph unicode="&#x12a;" horiz-adv-x="782" d="M82 1575v231h618v-231h-618zM98 0v244h148v946h-148v244h584v-244h-147v-946h147v-244h-584z" />
<glyph unicode="&#x12b;" horiz-adv-x="573" d="M-25 1165v232h619v-232h-619zM45 780v244h272q79 0 107.5 -21.5t28.5 -91.5v-911h-289v780h-119z" />
<glyph unicode="&#x12c;" horiz-adv-x="782" d="M98 0v244h148v946h-148v244h584v-244h-147v-946h147v-244h-584zM125 1796v72h223v-53q0 -23 12.5 -36.5t28.5 -13.5q18 0 30.5 13t12.5 37v53h225v-72q0 -118 -71.5 -176.5t-194.5 -58.5q-122 0 -194 58.5t-72 176.5z" />
<glyph unicode="&#x12d;" horiz-adv-x="573" d="M20 1386v72h224v-53q0 -23 12.5 -36t28.5 -13q18 0 30.5 12.5t12.5 36.5v53h225v-72q0 -118 -71.5 -176.5t-194.5 -58.5q-122 0 -194.5 58.5t-72.5 176.5zM45 780v244h272q79 0 107.5 -21.5t28.5 -91.5v-911h-289v780h-119z" />
<glyph unicode="&#x12e;" horiz-adv-x="782" d="M98 0v244h148v946h-148v244h584v-244h-147v-946h147v-244h-100q-64 -42 -98.5 -85.5t-34.5 -100.5q0 -66 86 -66h61l-88 -192h-27q-128 0 -191 49t-63 151q0 80 35 136.5t111 107.5h-275z" />
<glyph unicode="&#x12f;" horiz-adv-x="573" d="M45 780v244h272q79 0 107.5 -21.5t28.5 -91.5v-911q-64 -42 -99 -85.5t-35 -100.5q0 -66 87 -66h61l-88 -192h-27q-128 0 -191 49t-63 151q0 80 35 136.5t111 107.5h-80v780h-119zM170 1163v271h279v-271h-279z" />
<glyph unicode="&#x130;" horiz-adv-x="782" d="M98 0v244h148v946h-148v244h584v-244h-147v-946h147v-244h-584zM264 1575v246h252v-246h-252z" />
<glyph unicode="&#x131;" horiz-adv-x="573" d="M45 780v244h272q79 0 107.5 -21.5t28.5 -91.5v-911h-289v780h-119z" />
<glyph unicode="&#x134;" horiz-adv-x="800" d="M10 109l129 235q74 -84 148 -84q104 0 104 141v789h-172v244h461v-1047q0 -203 -96 -305t-256 -102q-186 0 -318 129zM125 1561l242 307h215l239 -307h-274l-74 94l-74 -94h-274z" />
<glyph unicode="&#x135;" horiz-adv-x="573" d="M-51 1151l241 307h216l239 -307h-274l-74 94l-74 -94h-274zM43 -289q73 97 97 164t24 184v721h-119v244h272q79 0 107.5 -21.5t28.5 -91.5v-839q0 -172 -30.5 -278t-127.5 -224z" />
<glyph unicode="&#x136;" horiz-adv-x="1302" d="M121 0v1434h289v-590l487 590h369l-494 -588q111 -53 181.5 -139.5t131.5 -231.5l199 -475h-315l-168 406q-42 98 -86 150t-115 85l-190 -229v-412h-289zM510 -567q49 65 76 119.5t35 121.5h-80v230h233v-160q0 -110 -26.5 -184t-85.5 -152z" />
<glyph unicode="&#x137;" horiz-adv-x="1126" d="M121 0v1495h289v-807l311 336h381l-354 -375q61 -30 102.5 -85.5t87.5 -162.5l168 -401h-315l-115 276q-53 124 -121 168l-145 -155v-289h-289zM446 -567q49 65 76 119.5t35 121.5h-80v230h234v-160q0 -110 -27 -183.5t-86 -152.5z" />
<glyph unicode="&#x138;" horiz-adv-x="1126" d="M121 0v1024h289v-336l311 336h381l-354 -375q61 -30 102.5 -85.5t87.5 -162.5l168 -401h-315l-115 276q-53 124 -121 168l-145 -155v-289h-289z" />
<glyph unicode="&#x139;" horiz-adv-x="1073" d="M82 1571l201 344l204 -172l-331 -238zM121 0v1434h289v-1190h583v-244h-872z" />
<glyph unicode="&#x13a;" horiz-adv-x="624" d="M98 264v1231h289v-1163q0 -96 70 -96q31 0 71 18l41 -240q-112 -34 -204 -34q-126 0 -196.5 65.5t-70.5 218.5zM102 1624l201 344l205 -172l-332 -237z" />
<glyph unicode="&#x13b;" horiz-adv-x="1073" d="M121 0v1434h289v-1190h583v-244h-872zM422 -567q49 65 75.5 119.5t34.5 121.5h-79v230h233v-160q0 -110 -27 -183.5t-86 -152.5z" />
<glyph unicode="&#x13c;" horiz-adv-x="624" d="M121 264v1231h289v-1163q0 -96 69 -96q31 0 72 18l41 -240q-112 -34 -205 -34q-125 0 -195.5 65t-70.5 219zM188 -567q49 65 76 119.5t35 121.5h-80v230h234v-160q0 -110 -27 -183.5t-86 -152.5z" />
<glyph unicode="&#x13d;" horiz-adv-x="1073" d="M121 0v1434h289v-1190h583v-244h-872zM504 1182v252h274v-105q0 -138 -24.5 -224t-77.5 -163l-152 45q69 93 84 195h-104z" />
<glyph unicode="&#x13e;" horiz-adv-x="790" d="M121 264v1231h289v-1163q0 -96 69 -96q31 0 72 18l41 -240q-112 -34 -205 -34q-125 0 -195.5 65t-70.5 219zM522 1182v252h275v-105q0 -137 -25 -223.5t-78 -163.5l-151 45q69 93 84 195h-105z" />
<glyph unicode="&#x13f;" horiz-adv-x="1073" d="M121 0v1434h289v-1190h583v-244h-872zM541 481v246h252v-246h-252z" />
<glyph unicode="&#x140;" horiz-adv-x="815" d="M121 264v1231h289v-1163q0 -96 69 -96q31 0 72 18l41 -240q-112 -34 -205 -34q-125 0 -195.5 65t-70.5 219zM543 481v246h252v-246h-252z" />
<glyph unicode="&#x141;" horiz-adv-x="1073" d="M20 340v274l101 50v770h289v-625l292 145v-274l-292 -145v-291h583v-244h-872v389z" />
<glyph unicode="&#x142;" horiz-adv-x="624" d="M20 340v274l101 50v831h289v-688l194 96v-274l-194 -97v-200q0 -96 69 -96q31 0 72 18l41 -240q-112 -34 -205 -34q-125 0 -195.5 65t-70.5 219v125z" />
<glyph unicode="&#x143;" horiz-adv-x="1368" d="M121 0v1434h262l575 -869v869h289v-1434h-262l-575 866v-866h-289zM514 1571l201 344l205 -172l-332 -238z" />
<glyph unicode="&#x144;" horiz-adv-x="1140" d="M121 0v1024h289v-96q59 60 126.5 88t157.5 28q157 0 241.5 -97t84.5 -290v-657h-289v651q0 76 -38 113t-105 37q-178 0 -178 -318v-483h-289zM383 1161l201 344l204 -172l-331 -237z" />
<glyph unicode="&#x145;" horiz-adv-x="1368" d="M121 0v1434h262l575 -869v869h289v-1434h-262l-575 866v-866h-289zM549 -567q49 65 75.5 119.5t34.5 121.5h-79v230h233v-160q0 -110 -27 -183.5t-86 -152.5z" />
<glyph unicode="&#x146;" horiz-adv-x="1140" d="M121 0v1024h289v-96q59 60 126.5 88t157.5 28q157 0 241.5 -97t84.5 -290v-657h-289v651q0 76 -38 113t-105 37q-178 0 -178 -318v-483h-289zM422 -567q49 65 75.5 119.5t34.5 121.5h-79v230h233v-160q0 -110 -27 -183.5t-86 -152.5z" />
<glyph unicode="&#x147;" horiz-adv-x="1368" d="M121 0v1434h262l575 -869v869h289v-1434h-262l-575 866v-866h-289zM352 1868h275l73 -96l74 96h275l-240 -307h-215z" />
<glyph unicode="&#x148;" horiz-adv-x="1140" d="M121 0v1024h289v-96q59 60 126.5 88t157.5 28q157 0 241.5 -97t84.5 -290v-657h-289v651q0 76 -38 113t-105 37q-178 0 -178 -318v-483h-289zM221 1458h275l73 -96l74 96h275l-240 -307h-215z" />
<glyph unicode="&#x149;" horiz-adv-x="1400" d="M47 1182v252h275v-105q0 -137 -25 -223.5t-78 -163.5l-151 45q69 93 84 195h-105zM381 0v1024h289v-96q59 60 126.5 88t157.5 28q157 0 241.5 -97t84.5 -290v-657h-289v651q0 76 -38 113t-105 37q-178 0 -178 -318v-483h-289z" />
<glyph unicode="&#x14a;" horiz-adv-x="1368" d="M121 0v1434h262l575 -869v869h289v-1457q0 -203 -96 -305t-256 -102q-185 0 -317 129l129 235q74 -84 147 -84q104 0 104 142v47l-548 827v-866h-289z" />
<glyph unicode="&#x14b;" horiz-adv-x="1140" d="M121 0v1024h289v-96q59 60 126.5 88t157.5 28q157 0 241.5 -97t84.5 -290v-680q0 -203 -96 -305t-256 -102q-186 0 -318 129l129 235q74 -84 148 -84q104 0 104 142v659q0 76 -38 113t-105 37q-178 0 -178 -318v-483h-289z" />
<glyph unicode="&#x14c;" horiz-adv-x="1452" d="M90 717q0 165 30 291.5t83.5 210.5t134 137t175 75.5t212.5 22.5q119 0 214 -22.5t175.5 -75.5t134 -137t83.5 -210.5t30 -291.5t-30 -291.5t-83.5 -210.5t-134 -137t-175.5 -75.5t-214 -22.5q-118 0 -212.5 22.5t-175 75.5t-134 137t-83.5 210.5t-30 291.5zM379 717 q0 -142 24 -240.5t72 -153t108 -77.5t142 -23q83 0 143.5 23t108 77.5t72 153t24.5 240.5t-24.5 240.5t-72 152.5t-108 77t-143.5 23q-82 0 -142 -23t-108 -77t-72 -152.5t-24 -240.5zM416 1575v231h618v-231h-618z" />
<glyph unicode="&#x14d;" horiz-adv-x="1204" d="M92 512q0 246 130.5 389t379.5 143t378.5 -143t129.5 -389t-129.5 -389t-378.5 -143t-379.5 143t-130.5 389zM293 1165v232h618v-232h-618zM381 512q0 -136 55.5 -212.5t165.5 -76.5t164.5 76.5t54.5 212.5t-54.5 212.5t-164.5 76.5t-165.5 -76.5t-55.5 -212.5z" />
<glyph unicode="&#x14e;" horiz-adv-x="1452" d="M90 717q0 165 30 291.5t83.5 210.5t134 137t175 75.5t212.5 22.5q119 0 214 -22.5t175.5 -75.5t134 -137t83.5 -210.5t30 -291.5t-30 -291.5t-83.5 -210.5t-134 -137t-175.5 -75.5t-214 -22.5q-118 0 -212.5 22.5t-175 75.5t-134 137t-83.5 210.5t-30 291.5zM379 717 q0 -142 24 -240.5t72 -153t108 -77.5t142 -23q83 0 143.5 23t108 77.5t72 153t24.5 240.5t-24.5 240.5t-72 152.5t-108 77t-143.5 23q-82 0 -142 -23t-108 -77t-72 -152.5t-24 -240.5zM461 1796v72h223v-53q0 -23 12.5 -36.5t28.5 -13.5q18 0 30.5 13t12.5 37v53h225v-72 q0 -118 -71.5 -176.5t-194.5 -58.5q-122 0 -194 58.5t-72 176.5z" />
<glyph unicode="&#x14f;" horiz-adv-x="1204" d="M92 512q0 246 130.5 389t379.5 143t378.5 -143t129.5 -389t-129.5 -389t-378.5 -143t-379.5 143t-130.5 389zM336 1386v72h223v-53q0 -23 12.5 -36t28.5 -13q18 0 30.5 12.5t12.5 36.5v53h225v-72q0 -118 -71.5 -176.5t-194.5 -58.5q-122 0 -194 58.5t-72 176.5zM381 512 q0 -136 55.5 -212.5t165.5 -76.5t164.5 76.5t54.5 212.5t-54.5 212.5t-164.5 76.5t-165.5 -76.5t-55.5 -212.5z" />
<glyph unicode="&#x150;" horiz-adv-x="1452" d="M90 717q0 165 30 291.5t83.5 210.5t134 137t175 75.5t212.5 22.5q119 0 214 -22.5t175.5 -75.5t134 -137t83.5 -210.5t30 -291.5t-30 -291.5t-83.5 -210.5t-134 -137t-175.5 -75.5t-214 -22.5q-118 0 -212.5 22.5t-175 75.5t-134 137t-83.5 210.5t-30 291.5zM379 717 q0 -142 24 -240.5t72 -153t108 -77.5t142 -23q83 0 143.5 23t108 77.5t72 153t24.5 240.5t-24.5 240.5t-72 152.5t-108 77t-143.5 23q-82 0 -142 -23t-108 -77t-72 -152.5t-24 -240.5zM500 1550l131 365l209 -127l-258 -283zM791 1550l131 365l208 -127l-260 -283z" />
<glyph unicode="&#x151;" horiz-adv-x="1204" d="M92 512q0 246 130.5 389t379.5 143t378.5 -143t129.5 -389t-129.5 -389t-378.5 -143t-379.5 143t-130.5 389zM358 1141l131 364l209 -127l-258 -282zM381 512q0 -136 55.5 -212.5t165.5 -76.5t164.5 76.5t54.5 212.5t-54.5 212.5t-164.5 76.5t-165.5 -76.5t-55.5 -212.5z M649 1141l131 364l209 -127l-260 -282z" />
<glyph unicode="&#x152;" horiz-adv-x="2107" d="M90 717q0 165 30 291.5t83.5 210.5t134 137t175 75.5t212.5 22.5q181 0 348 -94v74h932v-244h-643v-350h612v-244h-612v-352h663v-244h-952v74q-167 -94 -348 -94q-118 0 -212.5 22.5t-175 75.5t-134 137t-83.5 210.5t-30 291.5zM379 717q0 -142 24 -240.5t72 -153 t108 -77.5t142 -23q67 0 118.5 14t95.5 48.5t73 90.5t45 141.5t16 199.5q0 142 -24.5 240.5t-72 152.5t-108 77t-143.5 23q-82 0 -142 -23t-108 -77t-72 -152.5t-24 -240.5z" />
<glyph unicode="&#x153;" horiz-adv-x="1902" d="M92 512q0 246 130.5 389t379.5 143q233 0 365 -129q132 129 364 129t354.5 -133.5t122.5 -353.5v-151h-688q46 -183 271 -183q132 0 307 84l92 -227q-207 -100 -406 -100q-259 0 -407 139q-133 -139 -375 -139q-249 0 -379.5 143t-130.5 389zM381 512q0 -136 55.5 -212.5 t165.5 -76.5t164.5 76.5t54.5 212.5t-54.5 212.5t-164.5 76.5t-165.5 -76.5t-55.5 -212.5zM1126 641h392q-6 80 -56.5 120t-130.5 40q-159 0 -205 -160z" />
<glyph unicode="&#x154;" horiz-adv-x="1193" d="M121 0v1434h487q237 0 363.5 -107t126.5 -301q0 -342 -295 -420l354 -606h-330l-340 584h-77v-584h-289zM410 827h198q105 0 153 42t48 149q0 79 -51.5 125.5t-149.5 46.5h-198v-363zM432 1571l201 344l205 -172l-332 -238z" />
<glyph unicode="&#x155;" horiz-adv-x="757" d="M121 0v1024h289v-96q72 116 196 116q54 0 113 -20l-49 -268q-64 20 -113 20q-88 0 -117.5 -60.5t-29.5 -187.5v-528h-289zM233 1161l201 344l205 -172l-332 -237z" />
<glyph unicode="&#x156;" horiz-adv-x="1193" d="M121 0v1434h487q237 0 363.5 -107t126.5 -301q0 -342 -295 -420l354 -606h-330l-340 584h-77v-584h-289zM410 827h198q105 0 153 42t48 149q0 79 -51.5 125.5t-149.5 46.5h-198v-363zM453 -567q49 65 75.5 119.5t34.5 121.5h-80v230h234v-160q0 -110 -27 -183.5 t-86 -152.5z" />
<glyph unicode="&#x157;" horiz-adv-x="757" d="M117 -567q49 65 75.5 119.5t34.5 121.5h-80v230h234v-160q0 -110 -27 -183.5t-86 -152.5zM121 0v1024h289v-96q72 116 196 116q54 0 113 -20l-49 -268q-64 20 -113 20q-88 0 -117.5 -60.5t-29.5 -187.5v-528h-289z" />
<glyph unicode="&#x158;" horiz-adv-x="1193" d="M121 0v1434h487q237 0 363.5 -107t126.5 -301q0 -342 -295 -420l354 -606h-330l-340 584h-77v-584h-289zM221 1868h275l73 -96l74 96h275l-240 -307h-215zM410 827h198q105 0 153 42t48 149q0 79 -51.5 125.5t-149.5 46.5h-198v-363z" />
<glyph unicode="&#x159;" horiz-adv-x="757" d="M88 1458h274l74 -96l74 96h274l-239 -307h-215zM121 0v1024h289v-96q72 116 196 116q54 0 113 -20l-49 -268q-64 20 -113 20q-88 0 -117.5 -60.5t-29.5 -187.5v-528h-289z" />
<glyph unicode="&#x15a;" horiz-adv-x="1234" d="M80 119l113 231q114 -73 201 -100t212 -27q252 0 252 187q0 49 -25.5 83t-68 53.5t-98.5 34t-117.5 29.5t-122.5 33.5t-117 51.5t-98.5 79t-68 121.5t-25.5 173.5q0 96 39 171t107.5 121t158 69.5t194.5 23.5q267 0 498 -113l-96 -229q-188 98 -402 98q-94 0 -152 -36 t-58 -105q0 -55 25.5 -94t68 -61t98.5 -37t117 -28.5t122.5 -30.5t117.5 -47t98.5 -73t68 -114.5t25.5 -165.5q0 -97 -28 -173t-76 -125t-117.5 -81t-147 -45.5t-170.5 -13.5q-286 0 -528 139zM432 1571l201 344l205 -172l-332 -238z" />
<glyph unicode="&#x15b;" horiz-adv-x="995" d="M59 115l134 221q166 -113 299 -113q28 0 48.5 2.5t42 10t33 23.5t11.5 40q0 31 -29 52.5t-75 35.5t-101.5 28.5t-111.5 38t-102 56.5t-75 91.5t-29 135.5q0 106 59.5 177t149.5 100.5t203 29.5q100 0 199 -23.5t174 -64.5l-107 -233q-144 78 -276 78q-52 0 -82.5 -16.5 t-30.5 -47.5q0 -26 29 -45t75 -33.5t101.5 -29.5t111 -39.5t101.5 -57t75 -87.5t29 -126q0 -88 -32 -154.5t-90.5 -106t-134.5 -59t-169 -19.5q-266 0 -430 135zM309 1161l201 344l205 -172l-332 -237z" />
<glyph unicode="&#x15c;" horiz-adv-x="1234" d="M80 119l113 231q114 -73 201 -100t212 -27q252 0 252 187q0 49 -25.5 83t-68 53.5t-98.5 34t-117.5 29.5t-122.5 33.5t-117 51.5t-98.5 79t-68 121.5t-25.5 173.5q0 96 39 171t107.5 121t158 69.5t194.5 23.5q267 0 498 -113l-96 -229q-188 98 -402 98q-94 0 -152 -36 t-58 -105q0 -55 25.5 -94t68 -61t98.5 -37t117 -28.5t122.5 -30.5t117.5 -47t98.5 -73t68 -114.5t25.5 -165.5q0 -97 -28 -173t-76 -125t-117.5 -81t-147 -45.5t-170.5 -13.5q-286 0 -528 139zM287 1561l241 307h215l240 -307h-274l-74 94l-74 -94h-274z" />
<glyph unicode="&#x15d;" horiz-adv-x="995" d="M59 115l134 221q166 -113 299 -113q28 0 48.5 2.5t42 10t33 23.5t11.5 40q0 31 -29 52.5t-75 35.5t-101.5 28.5t-111.5 38t-102 56.5t-75 91.5t-29 135.5q0 106 59.5 177t149.5 100.5t203 29.5q100 0 199 -23.5t174 -64.5l-107 -233q-144 78 -276 78q-52 0 -82.5 -16.5 t-30.5 -47.5q0 -26 29 -45t75 -33.5t101.5 -29.5t111 -39.5t101.5 -57t75 -87.5t29 -126q0 -88 -32 -154.5t-90.5 -106t-134.5 -59t-169 -19.5q-266 0 -430 135zM150 1151l241 307h215l240 -307h-275l-73 94l-74 -94h-274z" />
<glyph unicode="&#x15e;" horiz-adv-x="1234" d="M80 119l113 231q114 -73 201 -100t212 -27q252 0 252 187q0 49 -25.5 83t-68 53.5t-98.5 34t-117.5 29.5t-122.5 33.5t-117 51.5t-98.5 79t-68 121.5t-25.5 173.5q0 96 39 171t107.5 121t158 69.5t194.5 23.5q267 0 498 -113l-96 -229q-188 98 -402 98q-94 0 -152 -36 t-58 -105q0 -55 25.5 -94t68 -61t98.5 -37t117 -28.5t122.5 -30.5t117.5 -47t98.5 -73t68 -114.5t25.5 -165.5q0 -107 -33 -188t-94 -131.5t-138 -78t-175 -36.5l-13 -66q86 -10 125 -52.5t39 -107.5q0 -105 -69.5 -153.5t-178.5 -48.5q-94 0 -198 34l47 160q14 -6 62.5 -16 t84.5 -10q53 0 53 26q0 31 -79 31h-115l43 205q-233 20 -428 133z" />
<glyph unicode="&#x15f;" horiz-adv-x="995" d="M59 115l134 221q166 -113 299 -113q28 0 48.5 2.5t42 10t33 23.5t11.5 40q0 31 -29 52.5t-75 35.5t-101.5 28.5t-111.5 38t-102 56.5t-75 91.5t-29 135.5q0 106 59.5 177t149.5 100.5t203 29.5q100 0 199 -23.5t174 -64.5l-107 -233q-144 78 -276 78q-52 0 -82.5 -16.5 t-30.5 -47.5q0 -26 29 -45t75 -33.5t101.5 -29.5t111 -39.5t101.5 -57t75 -87.5t29 -126q0 -148 -87 -229.5t-238 -101.5l-12 -70q163 -19 163 -160q0 -105 -69 -153.5t-178 -48.5q-95 0 -199 34l47 160q14 -6 62.5 -16t84.5 -10q54 0 54 26q0 31 -80 31h-115l43 205 q-205 21 -332 129z" />
<glyph unicode="&#x160;" horiz-adv-x="1234" d="M80 119l113 231q114 -73 201 -100t212 -27q252 0 252 187q0 49 -25.5 83t-68 53.5t-98.5 34t-117.5 29.5t-122.5 33.5t-117 51.5t-98.5 79t-68 121.5t-25.5 173.5q0 96 39 171t107.5 121t158 69.5t194.5 23.5q267 0 498 -113l-96 -229q-188 98 -402 98q-94 0 -152 -36 t-58 -105q0 -55 25.5 -94t68 -61t98.5 -37t117 -28.5t122.5 -30.5t117.5 -47t98.5 -73t68 -114.5t25.5 -165.5q0 -97 -28 -173t-76 -125t-117.5 -81t-147 -45.5t-170.5 -13.5q-286 0 -528 139zM287 1868h274l74 -96l74 96h274l-240 -307h-215z" />
<glyph unicode="&#x161;" horiz-adv-x="995" d="M59 115l134 221q166 -113 299 -113q28 0 48.5 2.5t42 10t33 23.5t11.5 40q0 31 -29 52.5t-75 35.5t-101.5 28.5t-111.5 38t-102 56.5t-75 91.5t-29 135.5q0 106 59.5 177t149.5 100.5t203 29.5q100 0 199 -23.5t174 -64.5l-107 -233q-144 78 -276 78q-52 0 -82.5 -16.5 t-30.5 -47.5q0 -26 29 -45t75 -33.5t101.5 -29.5t111 -39.5t101.5 -57t75 -87.5t29 -126q0 -88 -32 -154.5t-90.5 -106t-134.5 -59t-169 -19.5q-266 0 -430 135zM150 1458h274l74 -96l73 96h275l-240 -307h-215z" />
<glyph unicode="&#x162;" horiz-adv-x="1204" d="M74 1190v244h1054v-244h-383v-1190h-288v1190h-383zM446 -567q49 65 76 119.5t35 121.5h-80v230h234v-160q0 -110 -27 -183.5t-86 -152.5z" />
<glyph unicode="&#x163;" horiz-adv-x="776" d="M37 780v244h137v328h289v-328h254v-244h-254v-403q0 -83 25.5 -118.5t80.5 -35.5q61 0 127 41l60 -231q-127 -53 -240 -53q-167 0 -254.5 90t-87.5 290v420h-137zM270 -567q49 65 76 119.5t35 121.5h-80v230h234v-160q0 -110 -27 -183.5t-86 -152.5z" />
<glyph unicode="&#x164;" horiz-adv-x="1204" d="M74 1190v244h1054v-244h-383v-1190h-288v1190h-383zM256 1868h274l74 -96l74 96h274l-239 -307h-215z" />
<glyph unicode="&#x165;" horiz-adv-x="1024" d="M37 780v244h137v328h289v-328h254v-244h-254v-403q0 -83 25.5 -118.5t80.5 -35.5q61 0 127 41l60 -231q-127 -53 -240 -53q-167 0 -254.5 90t-87.5 290v420h-137zM756 1182v252h274v-105q0 -138 -24.5 -224t-77.5 -163l-152 45q69 93 84 195h-104z" />
<glyph unicode="&#x166;" horiz-adv-x="1204" d="M74 1190v244h1054v-244h-383v-279h240v-249h-240v-662h-288v662h-240v249h240v279h-383z" />
<glyph unicode="&#x167;" horiz-adv-x="776" d="M37 422v244h137v114h-137v244h137v328h289v-328h254v-244h-254v-114h254v-244h-254v-45q0 -83 25.5 -118.5t80.5 -35.5q61 0 127 41l60 -231q-127 -53 -240 -53q-167 0 -254.5 90t-87.5 290v62h-137z" />
<glyph unicode="&#x168;" horiz-adv-x="1398" d="M121 463v971h289v-971q0 -63 24 -111t66 -75.5t91.5 -40.5t106.5 -13t107 13t92.5 40.5t67 75.5t24.5 111v971h289v-971q0 -102 -33 -185t-88 -137.5t-130.5 -91.5t-157 -53t-171.5 -16q-89 0 -171 16.5t-157 53.5t-129.5 91.5t-87 137t-32.5 184.5zM373 1620 q17 122 69.5 175.5t122.5 53.5q55 0 137 -33.5t105 -33.5q19 0 28.5 16t14.5 51l178 -45q-17 -122 -69.5 -175.5t-122.5 -53.5q-55 0 -137 33.5t-105 33.5q-19 0 -28.5 -16t-14.5 -51z" />
<glyph unicode="&#x169;" horiz-adv-x="1140" d="M121 369v655h289v-643q0 -79 36 -118.5t99 -39.5q87 0 136.5 80t49.5 225v496h289v-651q0 -207 22 -373h-286q-22 59 -25 115q-41 -65 -108 -100t-150 -35q-352 0 -352 389zM242 1210q17 122 69.5 176t122.5 54q55 0 137 -34t105 -34q19 0 28.5 16t14.5 52l178 -45 q-17 -122 -69.5 -176t-122.5 -54q-55 0 -137 34t-105 34q-19 0 -28.5 -16t-14.5 -52z" />
<glyph unicode="&#x16a;" horiz-adv-x="1398" d="M121 463v971h289v-971q0 -63 24 -111t66 -75.5t91.5 -40.5t106.5 -13t107 13t92.5 40.5t67 75.5t24.5 111v971h289v-971q0 -102 -33 -185t-88 -137.5t-130.5 -91.5t-157 -53t-171.5 -16q-89 0 -171 16.5t-157 53.5t-129.5 91.5t-87 137t-32.5 184.5zM389 1575v231h619 v-231h-619z" />
<glyph unicode="&#x16b;" horiz-adv-x="1140" d="M121 369v655h289v-643q0 -79 36 -118.5t99 -39.5q87 0 136.5 80t49.5 225v496h289v-651q0 -207 22 -373h-286q-22 59 -25 115q-41 -65 -108 -100t-150 -35q-352 0 -352 389zM258 1165v232h619v-232h-619z" />
<glyph unicode="&#x16c;" horiz-adv-x="1398" d="M121 463v971h289v-971q0 -63 24 -111t66 -75.5t91.5 -40.5t106.5 -13t107 13t92.5 40.5t67 75.5t24.5 111v971h289v-971q0 -102 -33 -185t-88 -137.5t-130.5 -91.5t-157 -53t-171.5 -16q-89 0 -171 16.5t-157 53.5t-129.5 91.5t-87 137t-32.5 184.5zM434 1796v72h223v-53 q0 -23 12.5 -36.5t28.5 -13.5q18 0 30.5 13t12.5 37v53h226v-72q0 -118 -72 -176.5t-195 -58.5q-122 0 -194 58.5t-72 176.5z" />
<glyph unicode="&#x16d;" horiz-adv-x="1140" d="M121 369v655h289v-643q0 -79 36 -118.5t99 -39.5q87 0 136.5 80t49.5 225v496h289v-651q0 -207 22 -373h-286q-22 59 -25 115q-41 -65 -108 -100t-150 -35q-352 0 -352 389zM301 1386v72h223v-53q0 -23 12.5 -36t28.5 -13q18 0 30.5 12.5t12.5 36.5v53h226v-72 q0 -118 -72 -176.5t-195 -58.5q-122 0 -194 58.5t-72 176.5z" />
<glyph unicode="&#x16e;" horiz-adv-x="1398" d="M121 463v971h289v-971q0 -63 24 -111t66 -75.5t91.5 -40.5t106.5 -13t107 13t92.5 40.5t67 75.5t24.5 111v971h289v-971q0 -102 -33 -185t-88 -137.5t-130.5 -91.5t-157 -53t-171.5 -16q-89 0 -171 16.5t-157 53.5t-129.5 91.5t-87 137t-32.5 184.5zM506 1739 q0 91 52.5 140.5t141.5 49.5q88 0 141.5 -50t53.5 -140q0 -91 -53.5 -142t-141.5 -51q-89 0 -141.5 51t-52.5 142zM649 1739q0 -25 14 -39t37 -14t37.5 14t14.5 39t-14.5 38t-37.5 13t-37 -13t-14 -38z" />
<glyph unicode="&#x16f;" horiz-adv-x="1140" d="M121 369v655h289v-643q0 -79 36 -118.5t99 -39.5q87 0 136.5 80t49.5 225v496h289v-651q0 -207 22 -373h-286q-22 59 -25 115q-41 -65 -108 -100t-150 -35q-352 0 -352 389zM373 1329q0 91 52.5 141t141.5 50q88 0 141.5 -50.5t53.5 -140.5q0 -91 -53.5 -141.5 t-141.5 -50.5q-89 0 -141.5 50.5t-52.5 141.5zM516 1329q0 -25 14 -39t37 -14t37 14t14 39t-14 38t-37 13t-37 -13t-14 -38z" />
<glyph unicode="&#x170;" horiz-adv-x="1398" d="M121 463v971h289v-971q0 -63 24 -111t66 -75.5t91.5 -40.5t106.5 -13t107 13t92.5 40.5t67 75.5t24.5 111v971h289v-971q0 -102 -33 -185t-88 -137.5t-130.5 -91.5t-157 -53t-171.5 -16q-89 0 -171 16.5t-157 53.5t-129.5 91.5t-87 137t-32.5 184.5zM469 1550l131 365 l209 -127l-258 -283zM760 1550l131 365l209 -127l-260 -283z" />
<glyph unicode="&#x171;" horiz-adv-x="1140" d="M121 369v655h289v-643q0 -79 36 -118.5t99 -39.5q87 0 136.5 80t49.5 225v496h289v-651q0 -207 22 -373h-286q-22 59 -25 115q-41 -65 -108 -100t-150 -35q-352 0 -352 389zM338 1141l131 364l209 -127l-258 -282zM629 1141l131 364l209 -127l-260 -282z" />
<glyph unicode="&#x172;" horiz-adv-x="1398" d="M121 463v971h289v-971q0 -63 24 -111t66 -75.5t91.5 -40.5t106.5 -13t107 13t92.5 40.5t67 75.5t24.5 111v971h289v-971q0 -103 -32.5 -186t-90.5 -138.5t-130 -90.5t-159 -52q-125 -84 -125 -182q0 -66 86 -66h62l-88 -192h-27q-128 0 -191 49t-63 151q0 138 119 226 q-83 6 -157 25.5t-141 58t-115 92.5t-76.5 132t-28.5 173z" />
<glyph unicode="&#x173;" horiz-adv-x="1140" d="M121 369v655h289v-643q0 -79 36 -118.5t99 -39.5q87 0 136.5 80t49.5 225v496h289v-651q0 -207 22 -373q-64 -42 -98.5 -85.5t-34.5 -100.5q0 -66 86 -66h62l-88 -192h-27q-128 0 -191 49t-63 151q0 80 35 136.5t111 107.5h-78q-22 59 -25 115q-41 -65 -108 -100 t-150 -35q-352 0 -352 389z" />
<glyph unicode="&#x174;" horiz-adv-x="2070" d="M35 1434h301l272 -883l273 883h309l272 -883l273 883h301l-443 -1434h-262l-297 958l-295 -958h-262zM686 1561l242 307h215l239 -307h-274l-74 94l-73 -94h-275z" />
<glyph unicode="&#x175;" horiz-adv-x="1462" d="M20 1024l304 -1024h251l156 539l156 -539h252l303 1024h-314l-122 -512l-132 512h-286l-133 -512l-121 512h-314zM381 1151l242 307h215l239 -307h-274l-74 94l-74 -94h-274z" />
<glyph unicode="&#x176;" horiz-adv-x="1222" d="M35 1434h325l250 -473l252 473h326l-432 -801v-633h-289v633zM262 1561l242 307h215l239 -307h-274l-74 94l-73 -94h-275z" />
<glyph unicode="&#x177;" horiz-adv-x="1089" d="M20 1024h314l211 -606l213 606h309l-578 -1434h-311l211 519zM199 1151l241 307h215l240 -307h-274l-74 94l-74 -94h-274z" />
<glyph unicode="&#x178;" horiz-adv-x="1222" d="M35 1434h325l250 -473l252 473h326l-432 -801v-633h-289v633zM297 1575v246h252v-246h-252zM674 1575v246h252v-246h-252z" />
<glyph unicode="&#x179;" horiz-adv-x="1273" d="M82 0v125l657 1055h-626v254h1046v-125l-659 -1055h690v-254h-1108zM436 1571l201 344l205 -172l-332 -238z" />
<glyph unicode="&#x17a;" horiz-adv-x="989" d="M51 0v129l432 641h-413v254h848v-129l-435 -641h453v-254h-885zM301 1161l201 344l205 -172l-332 -237z" />
<glyph unicode="&#x17b;" horiz-adv-x="1273" d="M82 0v125l657 1055h-626v254h1046v-125l-659 -1055h690v-254h-1108zM498 1575v246h252v-246h-252z" />
<glyph unicode="&#x17c;" horiz-adv-x="989" d="M51 0v129l432 641h-413v254h848v-129l-435 -641h453v-254h-885zM373 1165v246h252v-246h-252z" />
<glyph unicode="&#x17d;" horiz-adv-x="1273" d="M82 0v125l657 1055h-626v254h1046v-125l-659 -1055h690v-254h-1108zM274 1868h275l74 -96l73 96h275l-240 -307h-215z" />
<glyph unicode="&#x17e;" horiz-adv-x="989" d="M51 0v129l432 641h-413v254h848v-129l-435 -641h453v-254h-885zM150 1458h274l74 -96l73 96h275l-240 -307h-215z" />
<glyph unicode="&#x192;" horiz-adv-x="1261" d="M68 -162l61 230q100 -29 158 -29q72 0 114 45.5t48 155.5l24 456h-303v244h317l9 133q23 443 399 443q117 0 272 -43l-61 -230q-114 29 -158 29q-72 0 -114 -45.5t-48 -155.5l-8 -131h314v-244h-328l-25 -458q-23 -443 -399 -443q-117 0 -272 43z" />
<glyph unicode="&#x2c6;" horiz-adv-x="704" d="M4 1151l242 307h215l239 -307h-274l-74 94l-73 -94h-275z" />
<glyph unicode="&#x2c7;" horiz-adv-x="704" d="M4 1458h275l73 -96l74 96h274l-239 -307h-215z" />
<glyph unicode="&#x2d8;" horiz-adv-x="561" d="M14 1386v72h224v-53q0 -23 12.5 -36t28.5 -13q18 0 30.5 12.5t12.5 36.5v53h225v-72q0 -118 -71.5 -176.5t-194.5 -58.5q-122 0 -194.5 58.5t-72.5 176.5z" />
<glyph unicode="&#x2d9;" horiz-adv-x="321" d="M35 1165v246h252v-246h-252z" />
<glyph unicode="&#x2da;" horiz-adv-x="471" d="M41 1329q0 91 53 141t142 50q88 0 141 -50t53 -141t-53 -141.5t-141 -50.5q-89 0 -142 50.5t-53 141.5zM184 1329q0 -25 14.5 -39t37.5 -14t37 14t14 39t-14 38t-37 13t-37.5 -13t-14.5 -38z" />
<glyph unicode="&#x2db;" horiz-adv-x="423" d="M41 -244q0 80 35 136.5t110 107.5h209q-64 -42 -98.5 -85.5t-34.5 -100.5q0 -66 86 -66h62l-88 -192h-27q-128 0 -191 49t-63 151z" />
<glyph unicode="&#x2dc;" horiz-adv-x="684" d="M14 1210q17 122 70 176t123 54q55 0 137 -34t105 -34q19 0 28.5 16t14.5 52l178 -45q-17 -122 -70 -176t-123 -54q-55 0 -136.5 34t-104.5 34q-19 0 -28.5 -16t-14.5 -52z" />
<glyph unicode="&#x2dd;" horiz-adv-x="663" d="M16 1141l131 364l209 -127l-258 -282zM307 1141l131 364l209 -127l-260 -282z" />
<glyph unicode="&#x3c0;" horiz-adv-x="1318" d="M61 944v244h1223v-244h-211v-627q0 -81 60 -81q34 0 92 28l55 -241q-134 -43 -225 -43q-140 0 -205.5 81.5t-65.5 272.5v610h-270v-944h-289v944h-164z" />
<glyph unicode="&#xe01;" horiz-adv-x="1112" d="M78 987q269 57 457 57q132 0 222 -25t144 -78t77 -127.5t23 -180.5v-633h-288v625q0 101 -40.5 138.5t-119.5 37.5q-34 0 -104 -8l57 -111q-68 -42 -87.5 -98t-19.5 -178v-406h-288v436q0 132 17.5 184t84.5 107z" />
<glyph unicode="&#xe02;" horiz-adv-x="1038" d="M102 299v86q0 110 13.5 154.5t60.5 95.5l111 117v28h-185v244h267q119 0 158.5 -35t39.5 -137v-170l-123 -129q-36 -38 -44.5 -64t-8.5 -100v-63q0 -49 37.5 -76t87.5 -27t86.5 27t36.5 78v696h289v-715q0 -100 -61 -177t-153.5 -114.5t-197.5 -37.5q-107 0 -200 36 t-153.5 110.5t-60.5 172.5z" />
<glyph unicode="&#xe03;" horiz-adv-x="1038" d="M68 891v133h235v-90q0 -45 25 -45q30 0 51 59l27 76h161v-385l-123 -129q-35 -37 -44 -64t-9 -102v-18q0 -49 37.5 -76t87.5 -27t86.5 27t36.5 78v696h289v-715q0 -100 -61 -177t-153.5 -114.5t-197.5 -37.5q-107 0 -200 36t-153.5 110.5t-60.5 172.5v43 q0 110 13.5 154.5t60.5 95.5l164 170v39q-62 -68 -143 -68q-54 0 -91.5 41t-37.5 117z" />
<glyph unicode="&#xe04;" horiz-adv-x="1097" d="M72 0l145 356q-141 111 -141 303q0 180 120.5 282.5t348.5 102.5q93 0 170 -21t139.5 -64t97.5 -118t35 -175v-666h-289v631q0 94 -41 132t-129 38q-163 0 -163 -180v-27h260v-244h-99l-141 -350h-313z" />
<glyph unicode="&#xe05;" horiz-adv-x="1097" d="M72 0l145 356q-141 113 -141 303q0 179 91.5 282t242.5 103q94 0 156 -35.5t112 -115.5h37l43 131h229v-1024h-289v649h-98q-37 0 -52 13t-30 49q-22 51 -39.5 70.5t-48.5 19.5q-34 0 -49.5 -25.5t-15.5 -87.5v-158h260v-243h-123l-117 -287h-313z" />
<glyph unicode="&#xe06;" horiz-adv-x="1097" d="M68 891v133h235v-90q0 -45 25 -45q30 0 51 59l27 76h169v-385l-129 -135q-36 -37 -48.5 -72.5t-12.5 -81.5q0 -61 44 -94t112 -33q78 0 117.5 39t39.5 127v635h289v-672q0 -82 -20.5 -147t-54 -106.5t-80.5 -69t-96.5 -38.5t-104.5 -11q-82 0 -144.5 35.5t-101.5 90.5 q-5 -42 -20 -106h-289q20 131 20 313v25q0 110 13.5 154.5t60.5 95.5l170 174v39q-62 -68 -143 -68q-54 0 -91.5 41t-37.5 117z" />
<glyph unicode="&#xe07;" horiz-adv-x="976" d="M14 580h303l142 -336q69 0 107 79.5t38 215.5q0 128 -59.5 184.5t-206.5 56.5h-27v244h66q273 0 394.5 -122t121.5 -363q0 -259 -127 -399t-365 -140h-49q-55 0 -76.5 13t-39.5 53z" />
<glyph unicode="&#xe08;" horiz-adv-x="1093" d="M59 313v244h349l100 -313h12q95 0 150 83t55 224q0 140 -47.5 195t-145.5 55q-156 0 -198 -154l-271 94q55 145 173.5 224t295.5 79q241 0 361.5 -118.5t120.5 -374.5q0 -119 -31 -218.5t-92.5 -174.5t-160.5 -116.5t-228 -41.5h-113q-61 0 -83.5 18t-37.5 64l-71 231 h-138z" />
<glyph unicode="&#xe09;" horiz-adv-x="1148" d="M63 352v244h183q119 0 156.5 -34.5t37.5 -141.5v-27q0 -87 34 -128.5t89 -41.5q88 0 137.5 65.5t49.5 188.5v139q0 94 -48 139.5t-133 45.5q-82 0 -137 -38t-86 -124l-270 94q118 311 485 311q223 0 350 -108.5t127 -319.5v-303q0 -175 21 -313h-285q-18 53 -24 106 q-120 -126 -285 -126q-136 0 -224.5 91t-88.5 257v24h-89z" />
<glyph unicode="&#xe0a;" horiz-adv-x="1038" d="M102 299v86q0 110 13.5 154.5t60.5 95.5l111 117v28h-185v244h267q119 0 158.5 -35t39.5 -137v-23h6l146 236h309l-188 -309q49 -35 68.5 -90.5t19.5 -145.5v-211q0 -100 -61 -177t-153.5 -114.5t-197.5 -37.5q-107 0 -200 36t-153.5 110.5t-60.5 172.5zM391 326 q0 -49 37.5 -76t87.5 -27t86.5 27t36.5 78v161q0 92 -21 120.5t-90 31.5l-84 -88q-36 -38 -44.5 -64t-8.5 -100v-63z" />
<glyph unicode="&#xe0b;" horiz-adv-x="1038" d="M68 891v133h235v-90q0 -45 27 -45q12 0 26.5 16t22.5 43l27 76h161v-207l152 248h309l-188 -309q49 -35 68.5 -90.5t19.5 -145.5v-211q0 -100 -61 -177t-153.5 -114.5t-197.5 -37.5q-107 0 -200 36t-153.5 110.5t-60.5 172.5v43q0 110 13.5 154.5t60.5 95.5l164 170v39 q-62 -68 -143 -68q-54 0 -91.5 41t-37.5 117zM391 326q0 -49 37.5 -76t87.5 -27t86.5 27t36.5 78v161q0 83 -15.5 110t-64.5 30l-115 -119q-35 -37 -44 -64t-9 -102v-18z" />
<glyph unicode="&#xe0c;" horiz-adv-x="1714" d="M78 987q269 57 457 57q132 0 222 -25t144 -78t77 -127.5t23 -180.5v-144q0 -125 51 -195.5t124 -70.5q139 0 139 166v635h289v-672q0 -95 -26 -168t-71.5 -116.5t-103 -65.5t-123.5 -22q-175 0 -279 126q-7 -60 -20 -106h-289q21 138 21 313v312q0 101 -40.5 138.5 t-119.5 37.5q-34 0 -104 -8l57 -111q-68 -42 -87.5 -98t-19.5 -178v-162h170v-244h-311q-82 0 -114.5 26t-32.5 95v315q0 132 17.5 184t84.5 107z" />
<glyph unicode="&#xe0d;" horiz-adv-x="1714" d="M78 987q269 57 457 57q132 0 222 -25t144 -78t77 -127.5t23 -180.5v-250q0 -80 46.5 -120t111.5 -40t110.5 40t45.5 120v641h289v-698q0 -142 -93 -228q93 -80 93 -196q0 -112 -84.5 -182t-245.5 -70h-477l110 244h314q44 0 69 17.5t25 43.5q0 17 -15 39 q-66 -14 -143 -14q-87 0 -164 20t-141 61t-101.5 111t-37.5 162v291q0 101 -40.5 138.5t-119.5 37.5q-34 0 -104 -8l57 -111q-68 -42 -87.5 -98t-19.5 -178v-162h170v-244h-311q-82 0 -114.5 26t-32.5 95v315q0 132 17.5 184t84.5 107z" />
<glyph unicode="&#xe0e;" horiz-adv-x="1112" d="M20 0v244h138l-47 129v63q0 132 17.5 184t84.5 107l-135 260q269 57 457 57q132 0 222 -25t144 -78t77 -127.5t23 -180.5v-649q0 -114 -20 -186.5t-71 -120.5t-132.5 -67.5t-208.5 -19.5h-473v244h447q97 0 133.5 35.5t36.5 146.5v609q0 101 -40.5 138.5t-119.5 37.5 q-34 0 -104 -8l57 -111q-68 -42 -87.5 -98t-19.5 -178v-218q0 -110 -40.5 -149t-159.5 -39h-179z" />
<glyph unicode="&#xe0f;" horiz-adv-x="1112" d="M20 0v244h138l-47 129v63q0 132 17.5 184t84.5 107l-135 260q269 57 457 57q132 0 222 -25t144 -78t77 -127.5t23 -180.5v-1043h-270l-223 144q-154 -144 -432 -144v244q279 0 350 139h149l138 -86v738q0 101 -40.5 138.5t-119.5 37.5q-34 0 -104 -8l57 -111 q-68 -42 -87.5 -98t-19.5 -178v-218q0 -110 -40.5 -149t-159.5 -39h-179z" />
<glyph unicode="&#xe10;" horiz-adv-x="1003" d="M35 -166q143 0 230.5 25.5t121.5 93.5h150l137 -76v76h289v-363h-271l-223 125q-71 -65 -173.5 -95t-260.5 -30v244zM53 217v244h309l70 -230h37q82 0 114.5 46t32.5 141v90h-550v113q0 201 118.5 312t364.5 111q161 0 366 -45l-57 -217q-160 45 -293 45q-170 0 -211 -88 h377q102 0 138 -35t36 -122v-164q0 -102 -22 -176.5t-72.5 -130t-137 -83.5t-210.5 -28h-242l-65 217h-103z" />
<glyph unicode="&#xe11;" horiz-adv-x="1161" d="M31 891v133h235v-90q0 -23 6 -33t23 -10q33 0 39 41l14 92h191v-94q49 61 106.5 87.5t136.5 26.5q129 0 199 -92.5t70 -267.5v-684h-289v651q0 79 -32.5 114.5t-102.5 35.5q-168 0 -168 -269v-532h-289v268q0 127 24.5 225.5t58.5 178t42 119.5q-61 -58 -135 -58 q-56 0 -92.5 41.5t-36.5 116.5z" />
<glyph unicode="&#xe12;" horiz-adv-x="1736" d="M55 477q0 293 94 430t277 137q113 0 180.5 -47t122.5 -151h14l56 178h225v-535q0 -125 50.5 -195.5t123.5 -70.5q139 0 139 166v635h289v-672q0 -95 -26 -168t-71.5 -116.5t-102.5 -65.5t-123 -22q-175 0 -279 126q-7 -60 -20 -106h-289q20 131 20 313v289h-45 q-58 0 -85 22.5t-54 75.5q-26 52 -50 76.5t-55 24.5q-102 0 -102 -291q0 -287 168 -287q32 0 90 15l57 -222q-85 -36 -178 -36q-199 0 -312.5 132.5t-113.5 364.5z" />
<glyph unicode="&#xe13;" horiz-adv-x="1714" d="M78 987q269 57 457 57q132 0 222 -25t144 -78t77 -127.5t23 -180.5v-215q0 -195 121 -195q92 0 142.5 77.5t50.5 236.5v487h289v-711q0 -182 20 -313h-297q-9 63 -12 115q-66 -66 -134.5 -100.5t-156.5 -34.5q-147 0 -229 99.5t-82 307.5v238q0 101 -40.5 138.5 t-119.5 37.5q-34 0 -104 -8l57 -111q-68 -42 -87.5 -98t-19.5 -178v-162h170v-244h-311q-82 0 -114.5 26t-32.5 95v315q0 132 17.5 184t84.5 107z" />
<glyph unicode="&#xe14;" horiz-adv-x="1134" d="M55 492q0 280 130 416t370 136q469 0 469 -462v-582h-289v584q0 217 -180 217q-106 0 -158.5 -83t-52.5 -226q0 -128 43 -198.5t125 -70.5q32 0 90 15l57 -222q-85 -36 -178 -36q-208 0 -317 134.5t-109 377.5z" />
<glyph unicode="&#xe15;" horiz-adv-x="1134" d="M55 477q0 293 94 430t277 137q113 0 180.5 -47t122.5 -151h14l56 178h225v-1024h-289v602h-45q-58 0 -85 22.5t-54 75.5q-26 52 -50 76.5t-55 24.5q-102 0 -102 -291q0 -287 168 -287q32 0 90 15l57 -222q-85 -36 -178 -36q-199 0 -312.5 132.5t-113.5 364.5z" />
<glyph unicode="&#xe16;" horiz-adv-x="1112" d="M78 987q269 57 457 57q132 0 222 -25t144 -78t77 -127.5t23 -180.5v-633h-288v625q0 101 -40.5 138.5t-119.5 37.5q-34 0 -104 -8l57 -111q-68 -42 -87.5 -98t-19.5 -178v-162h170v-244h-311q-88 0 -117.5 29.5t-29.5 113.5v293q0 132 17.5 184t84.5 107z" />
<glyph unicode="&#xe17;" horiz-adv-x="1101" d="M90 1024h291q14 -50 18 -106q56 61 116 93.5t140 32.5q51 0 97.5 -11t90.5 -38.5t76.5 -69t52 -107t19.5 -148.5v-670h-289v651q0 79 -32.5 114.5t-102.5 35.5q-168 0 -168 -269v-532h-288v711q0 175 -21 313z" />
<glyph unicode="&#xe18;" horiz-adv-x="1050" d="M90 508v108q0 101 24 176t65.5 122.5t105 76.5t134.5 40t163 11q151 0 362 -43l-49 -215q-46 13 -127.5 24t-146.5 11q-178 0 -224 -86h334q124 0 166.5 -38.5t42.5 -151.5v-209q0 -93 -34.5 -163t-94.5 -110.5t-134 -60.5t-161 -20q-88 0 -161.5 19.5t-132.5 60.5 t-92.5 111.5t-33.5 164.5v125h289v-99q0 -80 33.5 -109.5t97.5 -29.5t99.5 30.5t35.5 111.5v143h-561z" />
<glyph unicode="&#xe19;" horiz-adv-x="1112" d="M111 387v637h288v-606q0 -195 121 -195q92 0 142.5 77.5t50.5 236.5v487h288v-711q0 -175 21 -313h-297q-9 63 -12 115q-66 -66 -134.5 -100.5t-156.5 -34.5q-147 0 -229 99.5t-82 307.5z" />
<glyph unicode="&#xe1a;" horiz-adv-x="1112" d="M111 330v694h288v-657q0 -70 46 -107t110 -37q66 0 112 37t46 107v657h288v-694q0 -88 -37.5 -157t-101 -110t-141.5 -62t-166 -21q-86 0 -164 21t-141.5 62t-101 110t-37.5 157z" />
<glyph unicode="&#xe1b;" horiz-adv-x="1112" d="M111 330v694h288v-657q0 -70 46 -107t110 -37q66 0 112 37t46 107v1067h288v-1104q0 -88 -37.5 -157t-101 -110t-141.5 -62t-166 -21q-86 0 -164 21t-141.5 62t-101 110t-37.5 157z" />
<glyph unicode="&#xe1c;" horiz-adv-x="1255" d="M111 0v647q0 77 5.5 130t20.5 97.5t40 71t66 45.5t96 26t132 7h121v-244h-100q-55 0 -74 -27t-19 -116v-223l131 266h195l131 -266v610h289v-1024h-289l-229 342l-228 -342h-288z" />
<glyph unicode="&#xe1d;" horiz-adv-x="1255" d="M111 0v647q0 77 5.5 130t20.5 97.5t40 71t66 45.5t96 26t132 7h121v-244h-100q-55 0 -74 -27t-19 -116v-223l131 266h195l131 -266v1020h289v-1434h-289l-229 342l-228 -342h-288z" />
<glyph unicode="&#xe1e;" horiz-adv-x="1255" d="M111 0v1024h288v-502l138 357h182l137 -357v502h289v-1024h-289l-229 442l-228 -442h-288z" />
<glyph unicode="&#xe1f;" horiz-adv-x="1255" d="M111 0v1024h288v-502l138 357h182l137 -357v912h289v-1434h-289l-229 442l-228 -442h-288z" />
<glyph unicode="&#xe20;" horiz-adv-x="1112" d="M20 0v244h138l-47 129v63q0 132 17.5 184t84.5 107l-135 260q269 57 457 57q132 0 222 -25t144 -78t77 -127.5t23 -180.5v-633h-288v625q0 101 -40.5 138.5t-119.5 37.5q-34 0 -104 -8l57 -111q-68 -42 -87.5 -98t-19.5 -178v-218q0 -110 -40.5 -149t-159.5 -39h-179z " />
<glyph unicode="&#xe21;" horiz-adv-x="1112" d="M90 0q21 138 21 313v711h288v-535q0 -125 50.5 -195.5t123.5 -70.5q140 0 140 166v635h288v-672q0 -95 -26 -168t-71.5 -116.5t-102.5 -65.5t-123 -22q-175 0 -279 126q-7 -60 -20 -106h-289z" />
<glyph unicode="&#xe22;" horiz-adv-x="1099" d="M66 328q0 162 151 245q-121 81 -121 252v56q0 84 30.5 113.5t123.5 29.5h309v-244h-174q0 -49 22 -70.5t82 -21.5h121v-244h-112q-76 0 -110 -22t-34 -76q0 -123 162 -123q184 0 184 191v610h291v-680q0 -123 -62.5 -206.5t-163.5 -120.5t-233 -37q-97 0 -177 17.5 t-147 56t-104.5 108.5t-37.5 166z" />
<glyph unicode="&#xe23;" horiz-adv-x="974" d="M59 61l80 248q160 -73 318 -73q67 0 108 15t41 44q0 32 -29 55t-75 38t-101.5 30t-111 39t-101.5 58t-75 93.5t-29 139.5q0 76 32 134.5t88.5 93t126.5 51.5t152 17q197 0 369 -73l-84 -242q-165 59 -295 59q-100 0 -100 -47q0 -27 29 -46.5t75 -32t101.5 -26t111 -35.5 t101.5 -53t75 -85.5t29 -126.5q0 -97 -34 -168t-94.5 -111t-133.5 -58.5t-160 -18.5q-105 0 -220 22.5t-194 58.5z" />
<glyph unicode="&#xe24;" horiz-adv-x="1112" d="M78 987q269 57 457 57q132 0 222 -25t144 -78t77 -127.5t23 -180.5v-1043h-288v1035q0 101 -40.5 138.5t-119.5 37.5q-34 0 -104 -8l57 -111q-68 -42 -87.5 -98t-19.5 -178v-162h170v-244h-311q-88 0 -117.5 29.5t-29.5 113.5v293q0 132 17.5 184t84.5 107z" />
<glyph unicode="&#xe25;" horiz-adv-x="1071" d="M45 291q0 162 112.5 253t346.5 91q42 0 168 -12v41q0 63 -41 100t-113 37q-134 0 -172 -125l-272 88q51 138 169.5 209t295.5 71q188 0 305 -98t117 -284v-662h-289v375q-94 16 -152 16q-186 0 -186 -94q0 -74 88 -74q46 0 137 27l47 -223q-103 -47 -221 -47 q-89 0 -164.5 33t-125.5 105.5t-50 172.5z" />
<glyph unicode="&#xe26;" horiz-adv-x="1112" d="M20 0v244h138l-47 129v63q0 132 17.5 184t84.5 107l-135 260q269 57 457 57q132 0 222 -25t144 -78t77 -127.5t23 -180.5v-1043h-288v1035q0 101 -40.5 138.5t-119.5 37.5q-34 0 -104 -8l57 -111q-68 -42 -87.5 -98t-19.5 -178v-218q0 -110 -40.5 -149t-159.5 -39h-179z " />
<glyph unicode="&#xe27;" horiz-adv-x="1048" d="M49 733q65 161 175 236t270 75q235 0 356 -135t121 -391q0 -121 -26 -216.5t-82 -169t-151.5 -113t-226.5 -39.5q-75 0 -137 17t-103 42.5t-75 63.5t-53 71t-37 74l256 119q23 -73 57 -108.5t92 -35.5q107 0 152 76.5t45 218.5q0 283 -188 283q-68 0 -106.5 -36.5 t-72.5 -115.5z" />
<glyph unicode="&#xe28;" horiz-adv-x="1097" d="M72 0l145 356q-141 111 -141 303q0 180 120.5 282.5t348.5 102.5q97 0 182 -24l43 65h328l-154 -229q43 -81 43 -190v-666h-289v631q0 94 -41 132t-129 38q-163 0 -163 -180v-27h260v-244h-99l-141 -350h-313z" />
<glyph unicode="&#xe29;" horiz-adv-x="1112" d="M111 330v694h288v-657q0 -70 46 -107t110 -37q66 0 112 37t46 107v82h-158v243h158v332h288v-332h91v-121l-91 -92v-149q0 -88 -37.5 -157t-101 -110t-141.5 -62t-166 -21q-86 0 -164 21t-141.5 62t-101 110t-37.5 157z" />
<glyph unicode="&#xe2a;" horiz-adv-x="1071" d="M45 291q0 162 112.5 253t346.5 91q42 0 168 -12v41q0 63 -41 100t-113 37q-134 0 -172 -125l-272 88q51 138 169.5 209t295.5 71q84 0 161 -22l43 63h328l-156 -231q46 -84 46 -192v-662h-289v375q-94 16 -152 16q-186 0 -186 -94q0 -74 88 -74q46 0 137 27l47 -223 q-103 -47 -221 -47q-89 0 -164.5 33t-125.5 105.5t-50 172.5z" />
<glyph unicode="&#xe2b;" horiz-adv-x="1114" d="M111 0v1024h288v-297h80l197 297h325l-210 -317q121 -32 171 -118.5t50 -252.5v-336h-289v301q0 100 -33.5 141t-124.5 41h-166v-483h-288z" />
<glyph unicode="&#xe2c;" horiz-adv-x="1255" d="M111 0v1024h288v-502l138 357h182l137 -357v344q0 78 -21 106.5t-87 28.5h-132v162l201 271h328l-180 -242q90 -26 135 -103t45 -223v-866h-289l-229 442l-228 -442h-288z" />
<glyph unicode="&#xe2d;" horiz-adv-x="1126" d="M76 424v49q0 86 30 117t123 31h367v-244h-231q0 -72 49 -113t127 -41q108 0 163.5 70t55.5 229q0 77 -18 133.5t-49 87t-66 44.5t-74 14q-137 0 -174 -127l-273 90q40 131 157.5 205.5t289.5 74.5q111 0 199 -29t156 -90t104.5 -163t36.5 -240q0 -542 -508 -542 q-207 0 -336 112.5t-129 331.5z" />
<glyph unicode="&#xe2e;" horiz-adv-x="1126" d="M76 424v49q0 86 30 117t123 31h367v-244h-231q0 -72 49 -113t127 -41q108 0 163.5 70t55.5 229q0 77 -18 133.5t-49 87t-66 44.5t-74 14q-137 0 -174 -127l-273 90q40 131 157.5 205.5t289.5 74.5q107 0 199 -28l47 69h327l-157 -235q80 -125 80 -328q0 -542 -508 -542 q-207 0 -336 112.5t-129 331.5z" />
<glyph unicode="&#xe2f;" horiz-adv-x="1013" d="M70 727q0 153 85 235t238 82q76 0 182 -28l-55 -232q-53 17 -86 17q-76 0 -76 -74q0 -72 66 -72q75 0 123 65t88 193l35 111h233v-1024h-289v504q-98 -92 -256 -92q-63 0 -113 16t-90.5 51.5t-62.5 98.5t-22 149z" />
<glyph unicode="&#xe30;" horiz-adv-x="706" d="M88 217v207h289v-107h248v-243h-381q-85 0 -120.5 31.5t-35.5 111.5zM88 793v208h289v-108h248v-244h-381q-84 0 -120 32.5t-36 111.5z" />
<glyph unicode="&#xe31;" d="M-705 1264v221h263v-129h475l-84 -232h-518q-80 0 -108 27t-28 113z" />
<glyph unicode="&#xe32;" horiz-adv-x="747" d="M20 1001q140 43 263 43q169 0 261.5 -83.5t92.5 -276.5v-684h-289v668q0 73 -28.5 103t-86.5 30q-77 0 -155 -37z" />
<glyph unicode="&#xe33;" horiz-adv-x="747" d="M-471 1300q0 86 47.5 132.5t132.5 46.5t132.5 -46.5t47.5 -132.5t-47.5 -132t-132.5 -46t-132.5 46t-47.5 132zM-340 1300q0 -49 49 -49q47 0 47 49q0 50 -47 50q-23 0 -36 -13.5t-13 -36.5zM20 1001q140 43 263 43q169 0 261.5 -83.5t92.5 -276.5v-684h-289v668 q0 73 -28.5 103t-86.5 30q-77 0 -155 -37z" />
<glyph unicode="&#xe34;" d="M-891 1124v232h780l-104 -232h-676z" />
<glyph unicode="&#xe35;" d="M-891 1124l107 232h411v123h262v-355h-780z" />
<glyph unicode="&#xe36;" d="M-891 1124l107 232h331q15 59 61 91t113 32q84 0 132.5 -47t48.5 -132q0 -83 -48.5 -129.5t-132.5 -46.5h-612zM-336 1300q0 -26 15.5 -40.5t41.5 -14.5q27 0 42.5 14.5t15.5 40.5t-16 42t-42 16t-41.5 -16t-15.5 -42z" />
<glyph unicode="&#xe37;" d="M-891 1124l107 232h233v123h195v-123h49v123h196v-355h-780z" />
<glyph unicode="&#xe38;" d="M-416 -72h166q77 0 109 -27t32 -112v-250h-235v170h-72v219z" />
<glyph unicode="&#xe39;" d="M-580 -72h209v-151q0 -43 21 -43q20 0 20 43v151h209v-174q0 -215 -229 -215q-230 0 -230 215v174z" />
<glyph unicode="&#xe3a;" d="M-449 -246q0 71 52.5 122.5t124.5 51.5q73 0 125.5 -51.5t52.5 -122.5q0 -72 -52 -123t-126 -51q-72 0 -124.5 51t-52.5 123z" />
<glyph unicode="&#xe3f;" horiz-adv-x="1261" d="M174 0v1307h307v188h289v-192q169 -19 255.5 -106t86.5 -239q0 -197 -154 -299q85 -42 127.5 -113t42.5 -181q0 -168 -88 -256t-270 -105v-197h-289v193h-307zM463 244h176q105 0 153 33t48 116q0 76 -48.5 106.5t-154.5 30.5h-174v-286zM463 774h176q96 0 140 37t44 123 q0 70 -46.5 99.5t-147.5 29.5h-166v-289z" />
<glyph unicode="&#xe40;" horiz-adv-x="546" d="M111 145v879h288v-780h107v-244h-248q-88 0 -117.5 29.5t-29.5 115.5z" />
<glyph unicode="&#xe41;" horiz-adv-x="1062" d="M111 145v879h288v-780h127v-244h-268q-88 0 -117.5 29.5t-29.5 115.5zM627 145v879h288v-780h107v-244h-250q-87 0 -116 29.5t-29 115.5z" />
<glyph unicode="&#xe42;" horiz-adv-x="561" d="M-12 1585v156h717l-107 -244h-225q31 -59 39 -120t8 -203v-930h106v-244h-250q-87 0 -116 29.5t-29 115.5v1029q0 173 -26 251.5t-117 159.5z" />
<glyph unicode="&#xe43;" horiz-adv-x="561" d="M-43 1399v47q0 132 81 213.5t238 81.5q152 0 237 -69t85 -206q0 -88 -28 -181t-61 -162.5t-61 -174t-28 -213.5v-491h106v-244h-250q-87 0 -116 29.5t-29 115.5v646q0 88 30 183.5t65.5 164t65.5 145.5t30 131q0 82 -43 82q-46 0 -46 -72v-110z" />
<glyph unicode="&#xe44;" horiz-adv-x="561" d="M-121 1497l109 244h542v-172q-68 -94 -89 -191t-21 -264v-870h106v-244h-250q-87 0 -116 29.5t-29 115.5v1018q0 131 12 201t43 133h-307z" />
<glyph unicode="&#xe45;" horiz-adv-x="747" d="M20 1001q140 43 263 43q169 0 261.5 -83.5t92.5 -276.5v-1094h-289v1078q0 73 -28.5 103t-86.5 30q-77 0 -155 -37z" />
<glyph unicode="&#xe46;" horiz-adv-x="1050" d="M70 702q0 161 84.5 251.5t234.5 90.5q93 0 153 -35.5t128 -117.5h28l50 133h192v-1434h-289v1057h-14q-35 0 -59.5 19.5t-57.5 66.5q-16 23 -26 34.5t-28.5 22.5t-39.5 11q-68 0 -68 -96q0 -53 23 -80t61 -27q33 0 76 16l57 -221q-101 -39 -196 -39q-138 0 -223.5 85.5 t-85.5 262.5z" />
<glyph unicode="&#xe47;" d="M-809 1151v149q0 142 55.5 197t206.5 55h408l-82 -180h-303q-26 0 -37.5 -6t-11.5 -23q0 -28 49 -28h272v-31q0 -79 -38.5 -117.5t-119.5 -38.5q-62 0 -104.5 25t-79.5 78l-33 -80h-182z" />
<glyph unicode="&#xe48;" d="M-352 1516v319h221v-319h-221z" />
<glyph unicode="&#xe49;" d="M-631 1661v174h203q64 0 82 -17t18 -73v-55h404l-80 -174h-522v145h-105z" />
<glyph unicode="&#xe4a;" d="M-618 1686q0 77 37.5 117t99.5 40q78 0 127 -67l22 57h99v-188q22 0 28 11t6 46v131h144v-141q0 -176 -174 -176h-146v59q0 78 -11 110.5t-38 32.5q-31 0 -31 -35q0 -38 35 -38h17l-27 -129h-33q-48 0 -80.5 14.5t-48 40.5t-21 53t-5.5 62z" />
<glyph unicode="&#xe4b;" d="M-481 1622v121h129v92h221v-92h131v-121h-131v-106h-221v106h-129z" />
<glyph unicode="&#xe4c;" d="M-616 1434q0 66 3.5 109t14.5 82t30.5 61.5t51.5 39t77 23t109 6.5h365l-90 -194h-242q-59 0 -77.5 -27.5t-18.5 -99.5h-223z" />
<glyph unicode="&#xe4d;" d="M-471 1300q0 86 47.5 132.5t132.5 46.5t132.5 -46.5t47.5 -132.5t-47.5 -132t-132.5 -46t-132.5 46t-47.5 132zM-340 1300q0 -49 49 -49q47 0 47 49q0 50 -47 50q-23 0 -36 -13.5t-13 -36.5z" />
<glyph unicode="&#xe4e;" d="M-485 1315q0 176 198 176h27q26 88 135 127l143 -86q-82 -30 -105.5 -71.5t-23.5 -123.5h-161q-31 0 -43.5 -5.5t-12.5 -22.5q0 -18 13 -25.5t43 -7.5h161q0 -43 -14 -72t-42 -43.5t-60 -20t-78 -5.5q-82 0 -131 46.5t-49 133.5z" />
<glyph unicode="&#xe4f;" horiz-adv-x="1052" d="M59 463q0 192 135.5 327.5t327.5 135.5t327.5 -135.5t135.5 -327.5t-135.5 -327.5t-327.5 -135.5t-327.5 135.5t-135.5 327.5zM164 463q0 -148 105 -253.5t253 -105.5t253.5 105.5t105.5 253.5t-105.5 253t-253.5 105t-253 -105t-105 -253zM279 463q0 100 71.5 172 t171.5 72t172 -72t72 -172t-72 -172t-172 -72t-171.5 72t-71.5 172z" />
<glyph unicode="&#xe50;" horiz-adv-x="1046" d="M70 410q0 93 23.5 168t75 135.5t141 93.5t212.5 33q124 0 214 -33t141.5 -93.5t75.5 -135.5t24 -168q0 -91 -24 -166t-75.5 -135.5t-142 -94.5t-213.5 -34q-99 0 -176.5 22.5t-128.5 61.5t-84.5 94.5t-48 117.5t-14.5 134zM358 410q0 -187 164 -187q166 0 166 187 q0 186 -166 186q-164 0 -164 -186z" />
<glyph unicode="&#xe51;" horiz-adv-x="1046" d="M70 401q0 93 24 169.5t75.5 138.5t141.5 96.5t213 34.5q453 0 453 -453q0 -161 -49.5 -290t-165.5 -240l-191 198q117 165 117 332q0 209 -164 209q-89 0 -127.5 -54t-38.5 -141q0 -39 5 -68t17 -55.5t36.5 -40.5t60.5 -14h49l-14 -243h-47q-395 0 -395 421z" />
<glyph unicode="&#xe52;" horiz-adv-x="1046" d="M41 305v719h274v-674q0 -62 55 -94.5t150 -32.5t151 33t56 94v148q0 56 -21 80t-61 24v-229h-266v248q0 112 38.5 165.5t131.5 53.5q120 0 215 -113l53 92h187v-516q0 -103 -71.5 -178t-179 -110t-231.5 -35q-125 0 -232 35t-178 110.5t-71 179.5z" />
<glyph unicode="&#xe53;" horiz-adv-x="1046" d="M78 385q0 225 82 340t237 115q99 0 165 -40.5t130 -127.5h37l35 147h213v-819h-289v428h-65q-26 0 -45.5 7t-34.5 22t-22.5 26t-20.5 33q-2 4 -9 17t-10 17.5t-9 14t-10.5 13.5t-11 9t-13.5 7t-15 2q-55 0 -55 -193q0 -92 23 -136t83 -44q39 0 94 17l80 -215 q-110 -45 -215 -45q-167 0 -260.5 105t-93.5 300z" />
<glyph unicode="&#xe54;" horiz-adv-x="1046" d="M31 367q0 247 108.5 349.5t339.5 102.5h187l67 205h297l-147 -430h-418q-78 0 -112 -46t-34 -142q0 -92 25.5 -137.5t81.5 -45.5q52 0 75 29.5t23 87.5v41q0 79 27.5 108t101.5 29h283v-225h-123q0 -35 26 -52.5t95 -17.5h67v-223h-100q-175 0 -233 86 q-95 -106 -271 -106q-366 0 -366 387z" />
<glyph unicode="&#xe55;" horiz-adv-x="1046" d="M31 367q0 157 42.5 253t129.5 144q-10 33 -10 65q0 89 63.5 153.5t151.5 64.5q90 0 154.5 -64.5t64.5 -153.5v-10h39l67 205h297l-147 -430h-418q-78 0 -112 -46t-34 -142q0 -92 25.5 -137.5t81.5 -45.5q52 0 75 29.5t23 87.5v41q0 79 27.5 108t101.5 29h283v-225h-123 q0 -35 26 -52.5t95 -17.5h67v-223h-100q-175 0 -233 86q-95 -106 -271 -106q-366 0 -366 387zM346 829q0 -26 18 -43.5t44 -17.5q28 0 45.5 17.5t17.5 43.5q0 28 -17.5 46t-45.5 18q-26 0 -44 -18t-18 -46z" />
<glyph unicode="&#xe56;" horiz-adv-x="1046" d="M14 1024h316l67 -205h121q113 0 199 -21.5t140 -57.5t87.5 -90.5t46.5 -115t13 -135.5q0 -90 -27 -164t-82.5 -132t-148.5 -90.5t-216 -32.5q-100 0 -177 23t-124.5 60t-78 90t-42.5 108t-12 118q0 77 30.5 109t109.5 32h342v-235h-185q12 -34 43.5 -48t93.5 -14 q95 0 140 47.5t45 128.5q0 55 -10.5 86.5t-42.5 53t-86 29t-146 7.5h-264z" />
<glyph unicode="&#xe57;" horiz-adv-x="1241" d="M43 389q0 221 81 336t232 115q85 0 139.5 -41.5t100.5 -126.5h14l45 147h162v-575q43 0 67.5 29.5t24.5 105.5v645h275v-664q0 -186 -107 -273t-295 -87h-241v432q-27 0 -47 22.5t-41 63.5l-6.5 13l-6.5 13t-6 11.5t-6.5 11t-6.5 9.5t-7 8.5t-7 6t-8 4.5t-8 1 q-59 0 -59 -207q0 -166 94 -166q16 0 37 6l24 -217q-74 -32 -147 -32q-142 0 -219.5 114.5t-77.5 294.5z" />
<glyph unicode="&#xe58;" horiz-adv-x="1046" d="M43 0v377q0 240 106 341t326 101h191l67 205h297l-147 -430h-375q-91 0 -127.5 -39.5t-44.5 -130.5h113q55 -112 89.5 -156.5t82.5 -44.5q41 0 41 43v13h-72v235h229q79 0 105 -32t26 -115v-140q0 -113 -77 -180t-211 -67q-67 0 -114.5 11.5t-86.5 41t-64 58.5t-65 85 v-176h-289z" />
<glyph unicode="&#xe59;" horiz-adv-x="1046" d="M43 395q0 208 93.5 316t252.5 108h285l67 205h297l-153 -449h-123l225 -575h-307l-197 504q-16 40 -31 55.5t-42 15.5q-40 0 -59 -41t-19 -139q0 -172 100 -172q31 0 86 25l72 -230q-89 -38 -176 -38q-179 0 -275 105t-96 310z" />
<glyph unicode="&#xe5a;" horiz-adv-x="1392" d="M70 727q0 153 85 235t238 82q76 0 182 -28l-55 -232q-53 17 -86 17q-76 0 -76 -74q0 -72 66 -72q75 0 123 65t88 193l35 111h233v-1024h-289v504q-98 -92 -256 -92q-63 0 -113 16t-90.5 51.5t-62.5 98.5t-22 149zM993 0v1024h289v-1024h-289z" />
<glyph unicode="&#xe5b;" horiz-adv-x="1273" d="M49 580q0 156 89 244.5t222 88.5q94 0 181 -43l-68 -221q-37 21 -67 21q-36 0 -52 -26t-16 -66q0 -37 13 -63t40 -26q44 0 84 74t84 215h184l74 -141l39 74h369v-242h-219l-62 -123h-229l-60 113q-47 -98 -117 -155.5t-178 -57.5q-136 0 -223.5 88.5t-87.5 245.5z" />
<glyph unicode="&#x2000;" horiz-adv-x="984" />
<glyph unicode="&#x2001;" horiz-adv-x="1968" />
<glyph unicode="&#x2002;" horiz-adv-x="984" />
<glyph unicode="&#x2003;" horiz-adv-x="1968" />
<glyph unicode="&#x2004;" horiz-adv-x="656" />
<glyph unicode="&#x2005;" horiz-adv-x="492" />
<glyph unicode="&#x2006;" horiz-adv-x="328" />
<glyph unicode="&#x2007;" horiz-adv-x="328" />
<glyph unicode="&#x2008;" horiz-adv-x="246" />
<glyph unicode="&#x2009;" horiz-adv-x="393" />
<glyph unicode="&#x200a;" horiz-adv-x="109" />
<glyph unicode="&#x2010;" horiz-adv-x="616" d="M55 403v244h506v-244h-506z" />
<glyph unicode="&#x2011;" horiz-adv-x="616" d="M55 403v244h506v-244h-506z" />
<glyph unicode="&#x2012;" horiz-adv-x="616" d="M55 403v244h506v-244h-506z" />
<glyph unicode="&#x2013;" horiz-adv-x="874" d="M55 403v244h764v-244h-764z" />
<glyph unicode="&#x2014;" horiz-adv-x="1236" d="M55 403v244h1127v-244h-1127z" />
<glyph unicode="&#x2018;" horiz-adv-x="397" d="M61 963v104q0 137 25 223.5t78 163.5l151 -45q-69 -90 -88 -195h109v-251h-275z" />
<glyph unicode="&#x2019;" horiz-adv-x="397" d="M61 1182v252h275v-105q0 -137 -25 -223.5t-78 -163.5l-151 45q69 93 84 195h-105z" />
<glyph unicode="&#x201a;" horiz-adv-x="397" d="M61 0v252h275v-105q0 -136 -25 -223t-78 -164l-151 45q70 98 84 195h-105z" />
<glyph unicode="&#x201e;" horiz-adv-x="749" d="M61 0v252h275v-105q0 -136 -25 -223t-78 -164l-151 45q70 98 84 195h-105zM414 0v252h274v-105q0 -137 -24.5 -224.5t-77.5 -162.5l-152 45q68 91 86 195h-106z" />
<glyph unicode="&#x2020;" horiz-adv-x="931" d="M82 786v238h217l119 -78l-94 287v201h282v-201l-92 -287l119 78h217v-238h-217l-119 70l92 -547v-514h-282v514l94 547l-119 -70h-217z" />
<glyph unicode="&#x2021;" horiz-adv-x="931" d="M82 205v237h217l119 -69l-94 188v107l94 188l-119 -70h-217v238h217l119 -78l-94 287v201h282v-201l-92 -287l119 78h217v-238h-217l-119 70l92 -188v-107l-92 -188l119 69h217v-237h-217l-119 78l92 -287v-201h-282v201l94 287l-119 -78h-217z" />
<glyph unicode="&#x2022;" horiz-adv-x="581" d="M143 606q0 148 148 148q147 0 147 -148q0 -147 -147 -147q-148 0 -148 147z" />
<glyph unicode="&#x2026;" horiz-adv-x="1126" d="M72 0v229h233v-229h-233zM446 0v229h234v-229h-234zM823 0v229h234v-229h-234z" />
<glyph unicode="&#x202f;" horiz-adv-x="393" />
<glyph unicode="&#x2030;" horiz-adv-x="2418" d="M88 1100q0 166 86.5 260t231.5 94t231 -94t86 -260q0 -167 -86.5 -261t-230.5 -94q-145 0 -231.5 94.5t-86.5 260.5zM201 0l958 1434h330l-959 -1434h-329zM350 1100q0 -113 56 -113q55 0 55 113q0 112 -55 112q-56 0 -56 -112zM967 334q0 166 86 260t231 94t231.5 -94 t86.5 -260t-86.5 -260t-231.5 -94t-231 94t-86 260zM1229 334q0 -113 55 -113t55 113q0 112 -55 112t-55 -112zM1696 334q0 166 86 260t231 94t231.5 -94t86.5 -260t-86.5 -260t-231.5 -94t-231 94t-86 260zM1958 334q0 -113 55 -113t55 113q0 112 -55 112t-55 -112z" />
<glyph unicode="&#x2039;" horiz-adv-x="649" d="M82 410v204l485 420v-362l-180 -160l180 -160v-362z" />
<glyph unicode="&#x203a;" horiz-adv-x="649" d="M82 -10v362l178 160l-178 160v362l485 -420v-204z" />
<glyph unicode="&#x205f;" horiz-adv-x="492" />
<glyph unicode="&#x2070;" horiz-adv-x="694" d="M27 1311q0 212 76.5 310.5t242.5 98.5q167 0 243.5 -98t76.5 -311t-76.5 -311.5t-243.5 -98.5q-166 0 -242.5 99t-76.5 311zM262 1311q0 -119 20.5 -174.5t63.5 -55.5t63.5 55.5t20.5 174.5t-20.5 174t-63.5 55t-63.5 -55t-20.5 -174z" />
<glyph unicode="&#x2074;" horiz-adv-x="694" d="M16 1016v137l363 567l170 -106l-266 -418h79v102h209v-102h103v-180h-103v-94h-209v94h-346z" />
<glyph unicode="&#x2075;" horiz-adv-x="694" d="M33 1155l198 37q12 -111 101 -111q38 0 64 26.5t26 74.5q0 40 -21.5 66t-64.5 26q-42 0 -98 -39h-162l20 465h512v-193h-311l-4 -69q57 16 108 16q69 0 120 -22t80 -61t42.5 -85t13.5 -100q0 -139 -91 -212t-234 -73q-118 0 -200 66t-99 188z" />
<glyph unicode="&#x2076;" horiz-adv-x="694" d="M37 1280q0 208 82 324t256 116q181 0 258 -131l-158 -121q-42 72 -106 72q-45 0 -69 -32.5t-24 -90.5q39 33 113 33q116 0 191 -69t75 -197q0 -54 -17.5 -103t-53.5 -90t-97 -65.5t-141 -24.5q-309 0 -309 379zM270 1174q0 -37 17.5 -65t52.5 -28q42 0 61 28.5t19 68.5 q0 92 -74 92q-39 0 -57.5 -27.5t-18.5 -68.5z" />
<glyph unicode="&#x2077;" horiz-adv-x="694" d="M37 1507v193h618v-148l-264 -630h-256l248 585h-346z" />
<glyph unicode="&#x2078;" horiz-adv-x="694" d="M37 1151q0 121 98 188q-69 57 -69 142q0 108 69.5 173.5t210.5 65.5q142 0 211.5 -65.5t69.5 -173.5q0 -84 -70 -142q98 -67 98 -188q0 -112 -76.5 -181t-232.5 -69q-155 0 -232 69.5t-77 180.5zM272 1161q0 -36 18.5 -58t55.5 -22q38 0 56 22t18 58q0 82 -74 82 q-37 0 -55.5 -22.5t-18.5 -59.5zM289 1481q0 -23 15.5 -40.5t41.5 -17.5q27 0 43.5 17.5t16.5 40.5q0 28 -16 43.5t-44 15.5q-57 0 -57 -59z" />
<glyph unicode="&#x2079;" horiz-adv-x="694" d="M37 1438q0 54 18 103t54 90t97.5 65t141.5 24q307 0 307 -379q0 -440 -338 -440q-179 0 -256 131l158 121q42 -72 105 -72q46 0 70 32.5t24 90.5q-39 -33 -113 -33q-116 0 -192 69.5t-76 197.5zM272 1444q0 -40 18 -66t58 -26q39 0 57.5 27.5t18.5 68.5q0 37 -17.5 64.5 t-52.5 27.5q-42 0 -62 -28.5t-20 -67.5z" />
<glyph unicode="&#x2080;" horiz-adv-x="694" d="M27 102q0 212 76.5 311t242.5 99q167 0 243.5 -98.5t76.5 -311.5t-76.5 -311t-243.5 -98q-166 0 -242.5 98.5t-76.5 310.5zM262 102q0 -119 20.5 -174t63.5 -55t63.5 55t20.5 174t-20.5 174.5t-63.5 55.5t-63.5 -55.5t-20.5 -174.5z" />
<glyph unicode="&#x2081;" horiz-adv-x="694" d="M31 408l231 104h209v-606h154v-193h-545v193h156v381l-130 -58z" />
<glyph unicode="&#x2082;" horiz-adv-x="694" d="M35 -137l213 217q77 79 107 119t30 77q0 56 -49 56q-32 0 -47.5 -23.5t-22.5 -64.5l-227 51q23 96 102 156.5t199 60.5q74 0 135.5 -22.5t104.5 -77t43 -133.5q0 -59 -22.5 -112t-55 -93t-99.5 -109l-47 -47h256v-205h-620v150z" />
<glyph unicode="&#x2083;" horiz-adv-x="694" d="M29 -76l209 53q3 -49 27.5 -76.5t64.5 -27.5q44 0 72 21t28 59q0 34 -27.5 58t-83.5 24h-124v180h129q41 0 59 18t18 43q0 56 -65 56q-73 0 -80 -70l-211 45q19 97 106.5 151t200.5 54q145 0 215 -59t70 -144q0 -101 -86 -172q115 -62 115 -190q0 -124 -89.5 -189 t-230.5 -65q-125 0 -211 59.5t-106 171.5z" />
<glyph unicode="&#x2084;" horiz-adv-x="694" d="M16 -55l363 567l170 -106l-266 -418h79v102h209v-102h103v-181h-103v-94h-209v94h-346v138z" />
<glyph unicode="&#x2085;" horiz-adv-x="694" d="M33 -53l198 37q12 -111 101 -111q38 0 64 26t26 74q0 40 -21.5 66.5t-64.5 26.5q-42 0 -98 -39h-162l20 465h512v-193h-311l-4 -70q61 17 108 17q69 0 120 -22.5t80 -61t42.5 -85t13.5 -100.5q0 -139 -91 -211.5t-234 -72.5q-118 0 -200 66t-99 188z" />
<glyph unicode="&#x2086;" horiz-adv-x="694" d="M37 72q0 208 82 324t256 116q181 0 258 -131l-158 -121q-42 72 -106 72q-45 0 -69 -32.5t-24 -90.5q39 33 113 33q116 0 191 -69.5t75 -197.5q0 -116 -77.5 -199t-231.5 -83q-309 0 -309 379zM270 -35q0 -37 17.5 -64.5t52.5 -27.5q42 0 61 28.5t19 67.5q0 92 -74 92 q-39 0 -57.5 -27.5t-18.5 -68.5z" />
<glyph unicode="&#x2087;" horiz-adv-x="694" d="M37 299v193h618v-148l-264 -631h-256l248 586h-346z" />
<glyph unicode="&#x2088;" horiz-adv-x="694" d="M37 -57q0 121 98 188q-69 57 -69 141q0 108 69.5 174t210.5 66q142 0 211.5 -66t69.5 -174q0 -83 -70 -141q98 -67 98 -188q0 -112 -76.5 -181t-232.5 -69q-155 0 -232 69.5t-77 180.5zM272 -47q0 -36 18.5 -58t55.5 -22q38 0 56 22t18 58q0 82 -74 82q-37 0 -55.5 -22.5 t-18.5 -59.5zM289 272q0 -23 15.5 -40t41.5 -17q27 0 43.5 17t16.5 40q0 28 -16 44t-44 16q-27 0 -42 -16t-15 -44z" />
<glyph unicode="&#x2089;" horiz-adv-x="694" d="M37 229q0 116 78.5 199.5t232.5 83.5q307 0 307 -379q0 -440 -338 -440q-179 0 -256 131l158 121q42 -72 105 -72q46 0 70 32.5t24 90.5q-39 -33 -113 -33q-116 0 -192 69t-76 197zM272 236q0 -40 18 -66.5t58 -26.5q38 0 57 28t19 69q0 37 -17.5 64.5t-52.5 27.5 q-42 0 -62 -28.5t-20 -67.5z" />
<glyph unicode="&#x20ac;" horiz-adv-x="1261" d="M12 428v242h168v90h-168v241h195q53 241 198 347t371 106h8q321 0 465 -203l-219 -178q-38 74 -101 105.5t-153 31.5q-106 0 -174 -48t-102 -161h440v-241h-471v-90h471v-242h-438q34 -113 101 -159t173 -46h8q168 0 238 119l227 -160q-146 -202 -473 -202 q-111 0 -199.5 23t-163.5 74.5t-127 139.5t-79 211h-195z" />
<glyph unicode="&#x2126;" horiz-adv-x="1662" d="M88 0v242h244q-207 228 -207 544q0 158 57.5 286.5t155.5 211t224.5 126.5t268.5 44t268.5 -44t224.5 -126.5t155 -211t57 -286.5q0 -314 -205 -544h242v-242h-692v180q90 61 153 118.5t113.5 130t75 161t24.5 196.5q0 131 -57.5 229t-151 146.5t-207.5 48.5 q-176 0 -296.5 -114.5t-120.5 -309.5q0 -108 25 -196.5t76 -161t113.5 -130t153.5 -118.5v-180h-694z" />
<glyph unicode="&#x2153;" horiz-adv-x="1677" d="M31 1350l231 104h209v-606h154v-193h-545v193h156v381l-130 -58zM225 0l1006 1434h291l-1006 -1434h-291zM1012 211l209 53q3 -49 27.5 -76.5t64.5 -27.5q44 0 72 21t28 59q0 34 -27 58t-83 24h-125v180h129q41 0 59 18t18 43q0 29 -15.5 42t-49.5 13q-73 0 -80 -69 l-211 45q19 97 106.5 151t200.5 54q145 0 215 -59t70 -144q0 -101 -86 -172q115 -62 115 -191q0 -124 -89.5 -188.5t-230.5 -64.5q-125 0 -211 59.5t-106 171.5z" />
<glyph unicode="&#x2154;" horiz-adv-x="1677" d="M35 655v150l213 217q76 78 106.5 119t30.5 78q0 55 -49 55q-32 0 -47.5 -23.5t-22.5 -64.5l-227 51q23 96 102 156.5t199 60.5q74 0 135.5 -22.5t104.5 -77t43 -133.5q0 -59 -22.5 -112t-55 -93t-99.5 -109l-47 -47h256v-205h-620zM240 0l1005 1434h291l-1006 -1434h-290 zM1012 211l209 53q3 -49 27.5 -76.5t64.5 -27.5q44 0 72 21t28 59q0 34 -27 58t-83 24h-125v180h129q41 0 59 18t18 43q0 29 -15.5 42t-49.5 13q-73 0 -80 -69l-211 45q19 97 106.5 151t200.5 54q145 0 215 -59t70 -144q0 -101 -86 -172q115 -62 115 -191 q0 -124 -89.5 -188.5t-230.5 -64.5q-125 0 -211 59.5t-106 171.5z" />
<glyph unicode="&#x2155;" horiz-adv-x="1677" d="M31 1350l231 104h209v-606h154v-193h-545v193h156v381l-130 -58zM205 0l1005 1434h291l-1005 -1434h-291zM1016 233l198 37q12 -110 101 -110q38 0 64 26t26 74q0 40 -21.5 66t-64.5 26q-42 0 -98 -39h-162l20 465h512v-192h-311l-4 -70q57 16 108 16q69 0 120 -22 t80 -61t42.5 -85t13.5 -100q0 -139 -91 -211.5t-234 -72.5q-118 0 -200 65.5t-99 187.5z" />
<glyph unicode="&#x2156;" horiz-adv-x="1677" d="M35 655v150l213 217q76 78 106.5 119t30.5 78q0 55 -49 55q-32 0 -47.5 -23.5t-22.5 -64.5l-227 51q23 96 102 156.5t199 60.5q74 0 135.5 -22.5t104.5 -77t43 -133.5q0 -59 -22.5 -112t-55 -93t-99.5 -109l-47 -47h256v-205h-620zM223 0l1006 1434h291l-1006 -1434h-291 zM1016 233l198 37q12 -110 101 -110q38 0 64 26t26 74q0 40 -21.5 66t-64.5 26q-42 0 -98 -39h-162l20 465h512v-192h-311l-4 -70q57 16 108 16q69 0 120 -22t80 -61t42.5 -85t13.5 -100q0 -139 -91 -211.5t-234 -72.5q-118 0 -200 65.5t-99 187.5z" />
<glyph unicode="&#x2157;" horiz-adv-x="1677" d="M29 866l209 54q3 -49 27.5 -77t64.5 -28q44 0 72 21t28 59q0 34 -27.5 58t-83.5 24h-124v180h129q40 0 58.5 18.5t18.5 43.5q0 29 -15.5 42t-49.5 13q-73 0 -80 -70l-211 45q19 97 106.5 151t200.5 54q145 0 215 -59t70 -144q0 -101 -86 -172q115 -62 115 -190 q0 -124 -89.5 -189t-230.5 -65q-125 0 -211 59.5t-106 171.5zM182 0l1006 1434h291l-1006 -1434h-291zM1016 233l198 37q12 -110 101 -110q38 0 64 26t26 74q0 40 -21.5 66t-64.5 26q-42 0 -98 -39h-162l20 465h512v-192h-311l-4 -70q57 16 108 16q69 0 120 -22t80 -61 t42.5 -85t13.5 -100q0 -139 -91 -211.5t-234 -72.5q-118 0 -200 65.5t-99 187.5z" />
<glyph unicode="&#x2158;" horiz-adv-x="1677" d="M16 750v137l363 567l170 -106l-266 -418h79v102h209v-102h103v-180h-103v-95h-209v95h-346zM197 0l1005 1434h291l-1006 -1434h-290zM1016 233l198 37q12 -110 101 -110q38 0 64 26t26 74q0 40 -21.5 66t-64.5 26q-42 0 -98 -39h-162l20 465h512v-192h-311l-4 -70 q57 16 108 16q69 0 120 -22t80 -61t42.5 -85t13.5 -100q0 -139 -91 -211.5t-234 -72.5q-118 0 -200 65.5t-99 187.5z" />
<glyph unicode="&#x2159;" horiz-adv-x="1677" d="M31 1350l231 104h209v-606h154v-193h-545v193h156v381l-130 -58zM240 0l1005 1434h291l-1006 -1434h-290zM1020 358q0 208 82 324.5t256 116.5q181 0 258 -131l-158 -121q-41 71 -106 71q-45 0 -68.5 -32t-23.5 -90q38 32 112 32q116 0 191 -69t75 -197 q0 -116 -77.5 -199t-231.5 -83q-309 0 -309 378zM1253 252q0 -37 17.5 -64.5t52.5 -27.5q42 0 61 28.5t19 67.5q0 92 -74 92q-39 0 -57.5 -27.5t-18.5 -68.5z" />
<glyph unicode="&#x215a;" horiz-adv-x="1677" d="M33 889l198 37q12 -111 101 -111q38 0 64 26t26 74q0 40 -21.5 66.5t-64.5 26.5q-42 0 -98 -39h-162l20 465h512v-193h-311l-4 -70q61 17 108 17q69 0 120 -22t80 -61t42.5 -85t13.5 -100q0 -139 -91 -212t-234 -73q-118 0 -200 66t-99 188zM207 0l1005 1434h291 l-1005 -1434h-291zM1020 358q0 208 82 324.5t256 116.5q181 0 258 -131l-158 -121q-41 71 -106 71q-45 0 -68.5 -32t-23.5 -90q38 32 112 32q116 0 191 -69t75 -197q0 -116 -77.5 -199t-231.5 -83q-309 0 -309 378zM1253 252q0 -37 17.5 -64.5t52.5 -27.5q42 0 61 28.5 t19 67.5q0 92 -74 92q-39 0 -57.5 -27.5t-18.5 -68.5z" />
<glyph unicode="&#x215b;" horiz-adv-x="1677" d="M31 1350l231 104h209v-606h154v-193h-545v193h156v381l-130 -58zM229 0l1006 1434h291l-1006 -1434h-291zM1020 229q0 122 98 189q-69 57 -69 141q0 108 69.5 174t210.5 66q142 0 211.5 -66t69.5 -174q0 -83 -70 -141q98 -67 98 -189q0 -112 -76.5 -180.5t-232.5 -68.5 q-155 0 -232 69t-77 180zM1255 240q0 -36 18.5 -58t55.5 -22q38 0 56 22t18 58q0 82 -74 82q-37 0 -55.5 -22.5t-18.5 -59.5zM1272 559q0 -23 15.5 -40t41.5 -17q27 0 43.5 17t16.5 40q0 28 -16 43.5t-44 15.5q-57 0 -57 -59z" />
<glyph unicode="&#x215c;" horiz-adv-x="1677" d="M29 866l209 54q3 -49 27.5 -77t64.5 -28q44 0 72 21t28 59q0 34 -27.5 58t-83.5 24h-124v180h129q40 0 58.5 18.5t18.5 43.5q0 29 -15.5 42t-49.5 13q-73 0 -80 -70l-211 45q19 97 106.5 151t200.5 54q145 0 215 -59t70 -144q0 -101 -86 -172q115 -62 115 -190 q0 -124 -89.5 -189t-230.5 -65q-125 0 -211 59.5t-106 171.5zM203 0l1005 1434h291l-1005 -1434h-291zM1020 229q0 122 98 189q-69 57 -69 141q0 108 69.5 174t210.5 66q142 0 211.5 -66t69.5 -174q0 -83 -70 -141q98 -67 98 -189q0 -112 -76.5 -180.5t-232.5 -68.5 q-155 0 -232 69t-77 180zM1255 240q0 -36 18.5 -58t55.5 -22q38 0 56 22t18 58q0 82 -74 82q-37 0 -55.5 -22.5t-18.5 -59.5zM1272 559q0 -23 15.5 -40t41.5 -17q27 0 43.5 17t16.5 40q0 28 -16 43.5t-44 15.5q-57 0 -57 -59z" />
<glyph unicode="&#x215d;" horiz-adv-x="1677" d="M33 889l198 37q12 -111 101 -111q38 0 64 26t26 74q0 40 -21.5 66.5t-64.5 26.5q-42 0 -98 -39h-162l20 465h512v-193h-311l-4 -70q61 17 108 17q69 0 120 -22t80 -61t42.5 -85t13.5 -100q0 -139 -91 -212t-234 -73q-118 0 -200 66t-99 188zM195 0l1005 1434h291 l-1006 -1434h-290zM1020 229q0 122 98 189q-69 57 -69 141q0 108 69.5 174t210.5 66q142 0 211.5 -66t69.5 -174q0 -83 -70 -141q98 -67 98 -189q0 -112 -76.5 -180.5t-232.5 -68.5q-155 0 -232 69t-77 180zM1255 240q0 -36 18.5 -58t55.5 -22q38 0 56 22t18 58q0 82 -74 82 q-37 0 -55.5 -22.5t-18.5 -59.5zM1272 559q0 -23 15.5 -40t41.5 -17q27 0 43.5 17t16.5 40q0 28 -16 43.5t-44 15.5q-57 0 -57 -59z" />
<glyph unicode="&#x215e;" horiz-adv-x="1677" d="M37 1241v193h618v-148l-264 -631h-256l248 586h-346zM147 0l1006 1434h291l-1006 -1434h-291zM1020 229q0 122 98 189q-69 57 -69 141q0 108 69.5 174t210.5 66q142 0 211.5 -66t69.5 -174q0 -83 -70 -141q98 -67 98 -189q0 -112 -76.5 -180.5t-232.5 -68.5 q-155 0 -232 69t-77 180zM1255 240q0 -36 18.5 -58t55.5 -22q38 0 56 22t18 58q0 82 -74 82q-37 0 -55.5 -22.5t-18.5 -59.5zM1272 559q0 -23 15.5 -40t41.5 -17q27 0 43.5 17t16.5 40q0 28 -16 43.5t-44 15.5q-57 0 -57 -59z" />
<glyph unicode="&#x215f;" horiz-adv-x="1677" d="M31 1350l231 104h209v-606h154v-193h-545v193h156v381l-130 -58zM225 0l1006 1434h291l-1006 -1434h-291z" />
<glyph unicode="&#x2206;" horiz-adv-x="1312" d="M14 0l641 1516l643 -1516h-1284zM424 242h463l-232 553z" />
<glyph unicode="&#x220f;" horiz-adv-x="1300" d="M41 1190v244h1219v-244h-175v-1395h-288v1395h-293v-1395h-289v1395h-174z" />
<glyph unicode="&#x2211;" horiz-adv-x="1056" d="M61 0v215l435 502l-435 502v215h932v-267h-510l344 -397v-106l-344 -398h510v-266h-932z" />
<glyph unicode="&#x2212;" horiz-adv-x="954" d="M55 516v279h844v-279h-844z" />
<glyph unicode="&#x2215;" horiz-adv-x="1243" d="M-27 0l1006 1434h291l-1006 -1434h-291z" />
<glyph unicode="&#x221a;" horiz-adv-x="1153" d="M35 539v241h379l108 -315l352 1030h306l-512 -1495h-287l-186 539h-160z" />
<glyph unicode="&#x221e;" horiz-adv-x="1259" d="M55 780q0 164 92.5 257t262.5 93q141 0 219 -98q75 98 221 98q171 0 262.5 -92.5t91.5 -257.5q0 -163 -91.5 -255.5t-262.5 -92.5q-70 0 -128 26t-93 70q-79 -96 -219 -96q-170 0 -262.5 92.5t-92.5 255.5zM303 780q0 -43 24.5 -67.5t69.5 -24.5q46 0 73.5 25t27.5 67 q0 44 -27.5 70.5t-73.5 26.5q-45 0 -69.5 -26t-24.5 -71zM760 780q0 -92 90 -92q48 0 76 24.5t28 67.5q0 44 -28.5 70.5t-75.5 26.5q-45 0 -67.5 -25.5t-22.5 -71.5z" />
<glyph unicode="&#x222b;" horiz-adv-x="739" d="M33 -184l28 243q56 -20 99 -20q56 0 75 33.5t19 107.5q0 109 -29.5 469.5t-29.5 468.5q0 196 77 297t248 101q80 0 185 -21l-27 -244q-58 21 -98 21q-58 0 -77.5 -34.5t-19.5 -109.5q0 -99 30 -458.5t30 -479.5q0 -195 -77 -295t-247 -100q-81 0 -186 21z" />
<glyph unicode="&#x2248;" horiz-adv-x="954" d="M29 330q0 135 73.5 225t202.5 90q56 0 121.5 -25t120 -50t82.5 -25q51 0 51 76h246q0 -135 -74 -225.5t-203 -90.5q-44 0 -95.5 16t-88.5 34.5t-76.5 34.5t-62.5 16q-27 0 -39.5 -22t-12.5 -54h-245zM29 692q0 135 73.5 225.5t202.5 90.5q56 0 121.5 -25t120 -50.5 t82.5 -25.5q51 0 51 76h246q0 -135 -74 -225t-203 -90q-56 0 -121.5 25t-119.5 50t-82 25q-27 0 -39.5 -22t-12.5 -54h-245z" />
<glyph unicode="&#x2260;" horiz-adv-x="954" d="M55 315v279h228l65 123h-293v278h441l51 97h323l-51 -97h80v-278h-227l-66 -123h293v-279h-440l-49 -94h-324l49 94h-80z" />
<glyph unicode="&#x2264;" horiz-adv-x="954" d="M55 0v279h844v-279h-844zM55 707v272l844 342v-303l-428 -176l428 -174v-303z" />
<glyph unicode="&#x2265;" horiz-adv-x="954" d="M55 0v279h844v-279h-844zM55 365v305l424 174l-424 174v303l844 -342v-272z" />
<glyph unicode="&#x25ca;" horiz-adv-x="952" d="M12 748l463 768l465 -768l-465 -768zM336 748l139 -232l139 232l-139 231z" />
<glyph unicode="&#x25fc;" horiz-adv-x="1024" d="M0 0v1024h1024v-1024h-1024z" />
<glyph unicode="&#xf700;" horiz-adv-x="1003" d="M53 217v244h309l70 -230h37q82 0 114.5 46t32.5 141v90h-550v113q0 201 118.5 312t364.5 111q161 0 366 -45l-57 -217q-166 45 -270 45q-186 0 -232 -88h375q102 0 138 -35t36 -122v-164q0 -102 -22 -176.5t-72.5 -130t-137 -83.5t-210.5 -28h-242l-65 217h-103z" />
<glyph unicode="&#xf701;" d="M-1079 1124v232h616l-104 -232h-512z" />
<glyph unicode="&#xf702;" d="M-1079 1124l106 232h248v123h262v-355h-616z" />
<glyph unicode="&#xf703;" d="M-1079 1124l106 232h156q15 59 61 91t113 32q84 0 132 -47t48 -132q0 -83 -48 -129.5t-132 -46.5h-436zM-700 1300q0 -26 15.5 -40.5t41.5 -14.5t41.5 14.5t15.5 40.5t-15.5 42t-41.5 16t-41.5 -16t-15.5 -42z" />
<glyph unicode="&#xf704;" d="M-1079 1124l106 232h70v123h196v-123h50v123h194v-355h-616z" />
<glyph unicode="&#xf705;" d="M-725 1124v381h262v-381h-262z" />
<glyph unicode="&#xf706;" d="M-872 1298v207h235q79 0 101 -20t22 -88v-66h467l-94 -207h-609v174h-122z" />
<glyph unicode="&#xf707;" d="M-1139 1315q0 101 45 152t119 51q90 0 158 -74l22 61h125v-225q19 0 27 12t8 41v172h172v-157q0 -122 -49 -173t-158 -51h-172v101q0 141 -61 141q-35 0 -35 -45q0 -41 41 -41h23l-39 -156h-23q-61 0 -103 15.5t-62.5 44.5t-29 60t-8.5 71z" />
<glyph unicode="&#xf708;" d="M-1036 1251v144h155v110h263v-110h155v-144h-155v-127h-263v127h-155z" />
<glyph unicode="&#xf709;" d="M-793 1122q0 78 4.5 130t18 98t36.5 73t61.5 47t92 27.5t129.5 7.5h412l-104 -231h-271q-72 0 -94 -32.5t-22 -119.5h-263z" />
<glyph unicode="&#xf70a;" d="M-373 1124v381h262v-381h-262z" />
<glyph unicode="&#xf70b;" d="M-766 1298v207h236q79 0 100.5 -20t21.5 -88v-66h437l-95 -207h-577v174h-123z" />
<glyph unicode="&#xf70c;" d="M-815 1315q0 101 45 152t119 51q89 0 157 -74l23 61h125v-225q19 0 27 12t8 41v172h172v-157q0 -122 -49 -173t-158 -51h-172v101q0 141 -62 141q-34 0 -34 -45q0 -41 41 -41h22l-39 -156h-22q-61 0 -103 15.5t-62.5 44.5t-29 60t-8.5 71z" />
<glyph unicode="&#xf70d;" d="M-684 1251v144h156v110h262v-110h155v-144h-155v-127h-262v127h-156z" />
<glyph unicode="&#xf70e;" d="M-666 1122q0 78 4.5 130t18 98t36.5 73t61.5 47t92 27.5t129.5 7.5h304l-105 -231h-162q-72 0 -94 -32.5t-22 -119.5h-263z" />
<glyph unicode="&#xf70f;" horiz-adv-x="1714" d="M78 987q269 57 457 57q132 0 222 -25t144 -78t77 -127.5t23 -180.5v-250q0 -80 46.5 -120t111.5 -40t110.5 40t45.5 120v641h289v-698q0 -72 -25.5 -131t-68 -98.5t-100.5 -66t-121.5 -38.5t-131.5 -12q-87 0 -164 20t-141 61t-101.5 111t-37.5 162v291 q0 101 -40.5 138.5t-119.5 37.5q-34 0 -104 -8l57 -111q-68 -42 -87.5 -98t-19.5 -178v-162h170v-244h-311q-82 0 -114.5 26t-32.5 95v315q0 132 17.5 184t84.5 107z" />
<glyph unicode="&#xf710;" d="M-795 1264v221h263v-129h471l-82 -232h-516q-81 0 -108.5 27t-27.5 113z" />
<glyph unicode="&#xf711;" d="M-823 1300q0 86 47.5 132.5t132.5 46.5q86 0 133 -46.5t47 -132.5t-47 -132t-133 -46q-85 0 -132.5 46t-47.5 132zM-690 1300q0 -49 47 -49q49 0 49 49q0 50 -49 50q-47 0 -47 -50z" />
<glyph unicode="&#xf712;" d="M-1006 1151v149q0 142 56 197t207 55h710l-82 -180h-606q-26 0 -37.5 -6t-11.5 -23q0 -28 49 -28h258v-31q0 -81 -32 -118.5t-111 -37.5q-62 0 -105 25t-80 78l-32 -80h-183z" />
<glyph unicode="&#xf713;" d="M-705 1516v319h224v-319h-224z" />
<glyph unicode="&#xf714;" d="M-768 1661v174h203q64 0 82 -17t18 -73v-55h402l-80 -174h-521v145h-104z" />
<glyph unicode="&#xf715;" d="M-874 1686q0 77 37.5 117t99.5 40q78 0 127 -67l22 57h99v-188q22 0 28 11t6 46v131h144v-141q0 -176 -174 -176h-146v59q0 78 -11 110.5t-38 32.5q-31 0 -31 -35q0 -38 35 -38h17l-27 -129h-33q-48 0 -80.5 14.5t-48 40.5t-21 53t-5.5 62z" />
<glyph unicode="&#xf716;" d="M-834 1622v121h129v92h224v-92h129v-121h-129v-106h-224v106h-129z" />
<glyph unicode="&#xf717;" d="M-754 1434q0 79 6 128t23 89.5t50 61.5t83 31.5t127 10.5h346l-90 -194h-225q-59 0 -77.5 -27.5t-18.5 -99.5h-224z" />
<glyph unicode="&#xf718;" d="M-416 -471h166q80 0 110.5 -28t30.5 -119v-240h-235v170h-72v217z" />
<glyph unicode="&#xf719;" d="M-580 -471h209v-152q0 -43 21 -43q20 0 20 43v152h209v-172q0 -215 -229 -215q-230 0 -230 215v172z" />
<glyph unicode="&#xf71a;" d="M-449 -645q0 72 52.5 123t124.5 51q74 0 126 -51t52 -123t-52 -123t-126 -51q-72 0 -124.5 51t-52.5 123z" />
<glyph unicode="&#xf71d;" horiz-adv-x="1255" d="M111 0v1024h288v-602l138 225h182l137 -225v199q0 81 -24.5 111t-94.5 30h-47v188l127 156h326l-137 -166q74 -32 106.5 -106t32.5 -201v-633h-289l-229 305l-228 -305h-288z" />
<glyph horiz-adv-x="747" d="M-823 1300q0 86 47.5 132.5t132.5 46.5q86 0 133 -46.5t47 -132.5t-47 -132t-133 -46q-85 0 -132.5 46t-47.5 132zM-690 1300q0 -49 47 -49q49 0 49 49q0 50 -49 50q-47 0 -47 -50zM20 1001q140 43 263 43q169 0 261.5 -83.5t92.5 -276.5v-684h-289v668q0 73 -28.5 103 t-86.5 30q-77 0 -155 -37z" />
<glyph horiz-adv-x="1073" d="M-838 1315q0 176 199 176h27q26 88 135 127l143 -86q-82 -30 -105.5 -71.5t-23.5 -123.5h-162q-31 0 -43 -5.5t-12 -22.5q0 -18 12.5 -25.5t42.5 -7.5h162q0 -43 -14 -72t-42 -43.5t-60 -20t-78 -5.5q-82 0 -131.5 46.5t-49.5 133.5z" />
<glyph horiz-adv-x="1243" d="M76 909l164 113q33 25 102 18l143 -12v62q0 85 78 120l185 82v-35l-101 -47v-159l-80 -33l146 -14v159l35 17v-181l440 -45v-12l-184 -82q-67 -30 -116.5 -35.5t-115.5 11.5l-24 6v-172l-35 -31v209l-66 14v-536q0 -78 -80 -117l-196 -88q121 -78 260 -78q28 0 82 8v420 l35 31q0 -51 35.5 -87t86.5 -36t87 36t36 87q0 52 -36 87.5t-87 35.5v34l228 97q27 -41 41 -104.5t14 -123.5q0 -184 -115 -326.5t-290 -181.5v-100l-33 -35l-2 2v125q-41 -6 -82 -6q-106 0 -203 41.5t-166.5 111.5t-111 166.5t-41.5 202.5q0 132 63 236zM117 903l86 -125 l389 96l-303 64q-40 11 -76 8.5t-70 -24.5zM147 528q0 -116 51 -217t140 -168l149 68v608l-290 -74q-50 -100 -50 -217zM213 528q0 108 49 201l60 21q-70 -98 -70 -222q0 -194 162 -311l-37 -18q-76 58 -120 144.5t-44 184.5zM215 971q32 6 88 -6l475 -95q48 -13 99 -9.5 t112 30.5l101 45l-754 78q-41 5 -80 -15zM518 223l43 21q53 21 53 82v526l-96 -25v-604zM518 1034l96 37v123l-43 -18q-53 -24 -53 -82v-60zM748 57q160 40 264 172t104 299q0 103 -37 185l-155 -62q47 -19 75.5 -59t28.5 -90q0 -64 -47 -111t-111 -47q-41 0 -75 18.5 t-47 43.5v-349zM803 502q0 28 19 47.5t48 19.5q28 0 47 -19.5t19 -47.5t-19 -48t-47 -20q-29 0 -48 20t-19 48z" />
<glyph horiz-adv-x="1226" d="M55 717q0 388 127 562.5t430 174.5q304 0 431.5 -174.5t127.5 -562.5t-127.5 -562.5t-431.5 -174.5q-303 0 -430 174.5t-127 562.5zM344 717q0 -121 12 -203t41.5 -144.5t82.5 -92t132 -29.5q80 0 133.5 29.5t83.5 92t42 145t12 202.5q0 255 -58 374t-213 119 q-79 0 -132 -31t-82.5 -97t-41.5 -152.5t-12 -212.5z" />
<glyph horiz-adv-x="1036" d="M41 1243l465 211h158v-1210h280v-244h-850v244h281v866l-236 -109z" />
<glyph horiz-adv-x="1204" d="M61 0v193l500 516q116 120 150 164q84 107 84 196q0 72 -52.5 106.5t-138.5 34.5q-108 0 -162 -62.5t-59 -174.5l-289 61q12 132 82 228t182 144t254 48q208 0 339.5 -106t131.5 -265q0 -88 -17.5 -155t-73.5 -147t-105 -134t-167 -176q-19 -19 -28 -29l-168 -174h619 v-268h-1082z" />
<glyph horiz-adv-x="1210" d="M51 408l289 63q8 -109 74 -178.5t182 -69.5q115 0 180.5 54t65.5 155q0 197 -307 197h-197v243h203q130 0 194 49t64 138q0 73 -52.5 112t-152.5 39t-153.5 -43.5t-61.5 -119.5l-289 49q26 166 163 262t333 96q103 0 192 -21.5t159 -63t110 -109t40 -154.5 q0 -219 -186 -342q229 -110 229 -336q0 -219 -147 -333.5t-387 -114.5q-221 0 -372.5 112.5t-172.5 315.5z" />
<glyph horiz-adv-x="1206" d="M35 223v187l667 1044l248 -123l-551 -864h295v348h289v-348h188v-244h-188v-223h-289v223h-659z" />
<glyph horiz-adv-x="1214" d="M61 410l273 77q9 -118 86 -191t182 -73q111 0 179.5 71.5t68.5 197.5q0 103 -51.5 171t-167.5 68q-99 0 -195 -59h-291l37 762h879v-254h-604l-13 -246q118 41 242 41q77 0 143.5 -16.5t124 -53.5t98 -92.5t64 -137t23.5 -183.5q0 -254 -145.5 -383t-399.5 -129 q-94 0 -182.5 27.5t-162 80t-124 136t-64.5 186.5z" />
<glyph horiz-adv-x="1204" d="M76 682q0 232 62 404t189.5 270t309.5 98q143 0 252 -53.5t198 -163.5l-223 -168q-87 141 -237 141q-122 0 -191 -90.5t-69 -253.5q123 99 290 99q209 0 340 -121.5t131 -345.5q0 -78 -16.5 -150t-55 -140t-95.5 -118t-144.5 -80t-195.5 -30q-185 0 -308.5 87.5t-180 242 t-56.5 372.5zM365 471q0 -50 12 -92t38 -78.5t73.5 -57t111.5 -20.5q126 0 183 71t57 177q0 49 -12.5 92t-39.5 79.5t-75 57.5t-113 21t-112.5 -21t-73 -57.5t-37.5 -79t-12 -92.5z" />
<glyph horiz-adv-x="1202" d="M51 1165v269h1100v-138l-547 -1296h-311l489 1165h-731z" />
<glyph horiz-adv-x="1222" d="M109 406q0 247 194 358q-143 108 -143 319q0 168 111.5 269.5t338.5 101.5q229 0 341 -101.5t112 -269.5q0 -209 -143 -319q194 -113 194 -358q0 -92 -29.5 -167.5t-88.5 -134.5t-157.5 -91.5t-228.5 -32.5q-129 0 -227 32.5t-157 91.5t-88 134.5t-29 167.5zM397 440 q0 -100 52 -158.5t161 -58.5q110 0 162.5 58.5t52.5 158.5q0 85 -53 141t-162 56q-107 0 -160 -56t-53 -141zM449 1053q0 -172 161 -172q84 0 124 46.5t40 125.5q0 73 -40 115t-124 42q-161 0 -161 -157z" />
<glyph horiz-adv-x="1204" d="M76 936q0 78 16.5 150t55 140t96 118t145 80t195.5 30q139 0 243.5 -49t170 -142t98 -220.5t32.5 -290.5q0 -232 -62 -404t-189.5 -270t-309.5 -98q-143 0 -252 53.5t-198 163.5l223 168q87 -142 238 -142q122 0 191 90.5t69 253.5q-122 -98 -291 -98q-209 0 -340 121.5 t-131 345.5zM365 963q0 -50 12.5 -92.5t39 -79t74.5 -57.5t113 -21t112.5 21t73.5 57.5t38 79t12 92.5t-12.5 92t-38.5 78t-73.5 56.5t-111.5 20.5q-126 0 -182.5 -70.5t-56.5 -176.5z" />
<glyph horiz-adv-x="694" d="M27 1044q0 212 76.5 311t242.5 99q167 0 243.5 -98.5t76.5 -311.5t-76.5 -311t-243.5 -98q-166 0 -242.5 98.5t-76.5 310.5zM262 1044q0 -119 20.5 -174t63.5 -55t63.5 55t20.5 174t-20.5 174.5t-63.5 55.5t-63.5 -55.5t-20.5 -174.5z" />
<glyph horiz-adv-x="694" d="M31 1350l231 104h209v-606h154v-193h-545v193h156v381l-130 -58z" />
<glyph horiz-adv-x="694" d="M35 655v150l213 217q76 78 106.5 119t30.5 78q0 55 -49 55q-32 0 -47.5 -23.5t-22.5 -64.5l-227 51q23 96 102 156.5t199 60.5q74 0 135.5 -22.5t104.5 -77t43 -133.5q0 -59 -22.5 -112t-55 -93t-99.5 -109l-47 -47h256v-205h-620z" />
<glyph horiz-adv-x="694" d="M29 866l209 54q3 -49 27.5 -77t64.5 -28q44 0 72 21t28 59q0 34 -27.5 58t-83.5 24h-124v180h129q40 0 58.5 18.5t18.5 43.5q0 29 -15.5 42t-49.5 13q-73 0 -80 -70l-211 45q19 97 106.5 151t200.5 54q145 0 215 -59t70 -144q0 -101 -86 -172q115 -62 115 -190 q0 -124 -89.5 -189t-230.5 -65q-125 0 -211 59.5t-106 171.5z" />
<glyph horiz-adv-x="694" d="M16 750v137l363 567l170 -106l-266 -418h79v102h209v-102h103v-180h-103v-95h-209v95h-346z" />
<glyph horiz-adv-x="694" d="M33 889l198 37q12 -111 101 -111q38 0 64 26t26 74q0 40 -21.5 66.5t-64.5 26.5q-42 0 -98 -39h-162l20 465h512v-193h-311l-4 -70q61 17 108 17q69 0 120 -22t80 -61t42.5 -85t13.5 -100q0 -139 -91 -212t-234 -73q-118 0 -200 66t-99 188z" />
<glyph horiz-adv-x="694" d="M37 1014q0 208 82 324t256 116q181 0 258 -131l-158 -121q-42 72 -106 72q-45 0 -69 -32.5t-24 -90.5q39 33 113 33q116 0 191 -69t75 -197q0 -54 -17.5 -103t-53.5 -90t-97 -65.5t-141 -24.5q-309 0 -309 379zM270 907q0 -37 17.5 -64.5t52.5 -27.5q42 0 61 28.5 t19 67.5q0 93 -74 93q-38 0 -57 -28t-19 -69z" />
<glyph horiz-adv-x="694" d="M37 1241v193h618v-148l-264 -631h-256l248 586h-346z" />
<glyph horiz-adv-x="694" d="M37 885q0 121 98 188q-69 57 -69 141q0 108 69.5 174t210.5 66q142 0 211.5 -66t69.5 -174q0 -83 -70 -141q98 -67 98 -188q0 -112 -76.5 -181t-232.5 -69q-155 0 -232 69.5t-77 180.5zM272 895q0 -36 18.5 -58t55.5 -22q38 0 56 22t18 58q0 82 -74 82q-37 0 -55.5 -22.5 t-18.5 -59.5zM289 1214q0 -23 15.5 -40t41.5 -17q27 0 43.5 17t16.5 40q0 28 -16 44t-44 16q-27 0 -42 -16t-15 -44z" />
<glyph horiz-adv-x="694" d="M37 1171q0 116 78.5 199.5t232.5 83.5q307 0 307 -379q0 -440 -338 -440q-179 0 -256 131l158 121q42 -72 105 -72q46 0 70 32.5t24 90.5q-39 -33 -113 -33q-116 0 -192 69t-76 197zM272 1178q0 -40 18 -66.5t58 -26.5q38 0 57 28t19 69q0 37 -17.5 64.5t-52.5 27.5 q-42 0 -62 -28.5t-20 -67.5z" />
<glyph horiz-adv-x="694" d="M27 389q0 212 76.5 311t242.5 99q167 0 243.5 -98.5t76.5 -311.5t-76.5 -311t-243.5 -98q-166 0 -242.5 98.5t-76.5 310.5zM262 389q0 -119 20.5 -174t63.5 -55t63.5 55t20.5 174t-20.5 174t-63.5 55t-63.5 -55t-20.5 -174z" />
<glyph horiz-adv-x="694" d="M31 694l231 105h209v-606h154v-193h-545v193h156v380l-130 -57z" />
<glyph horiz-adv-x="694" d="M35 0v150l213 217q77 79 107 119t30 77q0 55 -49 55q-32 0 -47.5 -23.5t-22.5 -64.5l-227 52q23 96 102 156.5t199 60.5q54 0 103 -13.5t90 -40.5t65.5 -73.5t24.5 -106.5q0 -85 -39 -148t-138 -165l-47 -47h256v-205h-620z" />
<glyph horiz-adv-x="694" d="M29 211l209 53q3 -49 27.5 -76.5t64.5 -27.5q44 0 72 21t28 59q0 34 -27.5 58t-83.5 24h-124v180h129q41 0 59 18t18 43q0 29 -15.5 42t-49.5 13q-73 0 -80 -69l-211 45q19 97 106.5 151t200.5 54q145 0 215 -59t70 -144q0 -101 -86 -172q115 -62 115 -191 q0 -124 -89.5 -188.5t-230.5 -64.5q-125 0 -211 59.5t-106 171.5z" />
<glyph horiz-adv-x="694" d="M16 94v137l363 568l170 -107l-266 -418h79v103h209v-103h103v-180h-103v-94h-209v94h-346z" />
<glyph horiz-adv-x="694" d="M33 233l198 37q12 -110 101 -110q38 0 64 26t26 74q0 40 -21.5 66t-64.5 26q-42 0 -98 -39h-162l20 465h512v-192h-311l-4 -70q57 16 108 16q69 0 120 -22t80 -61t42.5 -85t13.5 -100q0 -139 -91 -211.5t-234 -72.5q-118 0 -200 65.5t-99 187.5z" />
<glyph horiz-adv-x="694" d="M37 358q0 208 82 324.5t256 116.5q181 0 258 -131l-158 -121q-41 71 -106 71q-45 0 -69 -32t-24 -90q38 32 113 32q116 0 191 -69t75 -197q0 -116 -77.5 -199t-231.5 -83q-309 0 -309 378zM270 252q0 -37 17.5 -64.5t52.5 -27.5q42 0 61 28.5t19 67.5q0 92 -74 92 q-39 0 -57.5 -27.5t-18.5 -68.5z" />
<glyph horiz-adv-x="694" d="M37 586v192h618v-147l-264 -631h-256l248 586h-346z" />
<glyph horiz-adv-x="694" d="M37 229q0 122 98 189q-69 57 -69 141q0 108 69.5 174t210.5 66q142 0 211.5 -66t69.5 -174q0 -83 -70 -141q98 -67 98 -189q0 -112 -76.5 -180.5t-232.5 -68.5q-155 0 -232 69t-77 180zM272 240q0 -36 18.5 -58t55.5 -22q38 0 56 22t18 58q0 82 -74 82q-37 0 -55.5 -22.5 t-18.5 -59.5zM289 559q0 -23 15.5 -40t41.5 -17q27 0 43.5 17t16.5 40q0 28 -16 43.5t-44 15.5q-57 0 -57 -59z" />
<glyph horiz-adv-x="694" d="M37 516q0 116 78.5 199.5t232.5 83.5q307 0 307 -379q0 -440 -338 -440q-179 0 -256 131l158 120q41 -71 105 -71q46 0 70 32.5t24 90.5q-39 -33 -113 -33q-116 0 -192 69t-76 197zM272 522q0 -40 18 -66t58 -26q39 0 57.5 27.5t18.5 68.5q0 37 -17.5 64.5t-52.5 27.5 q-42 0 -62 -28.5t-20 -67.5z" />
<glyph horiz-adv-x="1161" d="M76 512q0 134 37.5 237t105.5 167t159 96t202 32q230 0 367.5 -133.5t137.5 -398.5t-137.5 -398.5t-367.5 -133.5q-111 0 -202 32t-159 96t-105.5 167t-37.5 237zM365 512q0 -143 61 -216t154 -73q94 0 155.5 73t61.5 216t-61.5 216t-155.5 73q-93 0 -154 -73t-61 -216z " />
<glyph horiz-adv-x="1161" d="M139 885l348 159h240v-800h240v-244h-768v244h239v481l-205 -94z" />
<glyph horiz-adv-x="1161" d="M117 0v199q330 156 459 255.5t129 207.5q0 66 -37.5 102.5t-100.5 36.5q-65 0 -104 -40t-43 -120l-266 47q12 173 127 264.5t301 91.5q190 0 300.5 -89t110.5 -263q0 -136 -69.5 -241.5t-212.5 -196.5h336v-254h-930z" />
<glyph horiz-adv-x="1161" d="M76 -211l143 221q144 -114 318 -114q239 0 239 174q0 72 -70 116.5t-204 44.5h-201v244h211q100 0 157.5 45.5t57.5 122.5q0 73 -42 115.5t-130 42.5q-67 0 -118 -34.5t-64 -100.5l-271 88q35 141 161 215.5t292 74.5q227 0 344 -103.5t117 -270.5q0 -197 -152 -308 q201 -97 201 -305q0 -179 -138.5 -292t-387.5 -113q-134 0 -241.5 33t-221.5 104z" />
<glyph horiz-adv-x="1161" d="M76 0v199l538 845l258 -124l-428 -676h195v223h289v-223h157v-244h-157v-328h-289v328h-563z" />
<glyph horiz-adv-x="1161" d="M74 -244l88 248q183 -110 352 -110q119 0 185.5 63t66.5 195q0 202 -164 202q-103 0 -205 -73h-266l66 743h811v-254h-549l-19 -217q102 45 219 45q179 0 287.5 -114t108.5 -337q0 -129 -41 -226.5t-114.5 -155.5t-167.5 -86.5t-208 -28.5q-246 0 -450 106z" />
<glyph horiz-adv-x="1161" d="M55 682q0 232 62 404t189.5 270t309.5 98q143 0 252.5 -53.5t198.5 -163.5l-223 -168q-87 141 -238 141q-122 0 -191 -90.5t-69 -253.5q123 99 291 99q209 0 340 -121.5t131 -345.5q0 -78 -16.5 -150t-55 -140t-96 -118t-145 -80t-195.5 -30q-185 0 -308.5 87.5t-180 242 t-56.5 372.5zM344 471q0 -50 12.5 -92t38.5 -78.5t73.5 -57t111.5 -20.5q66 0 114 20.5t74.5 57t38.5 78.5t12 92t-12.5 92.5t-39 79t-74.5 57.5t-113 21t-112.5 -21t-73.5 -57.5t-38 -79t-12 -92.5z" />
<glyph horiz-adv-x="1161" d="M66 770v254h1030v-211l-535 -1141h-319l518 1098h-694z" />
<glyph horiz-adv-x="1161" d="M78 406q0 247 194 358q-143 108 -143 319q0 168 112 269.5t339 101.5q228 0 340 -101.5t112 -269.5q0 -209 -143 -319q194 -113 194 -358q0 -92 -29 -167.5t-88 -134.5t-157.5 -91.5t-228.5 -32.5q-129 0 -227 32.5t-157 91.5t-88.5 134.5t-29.5 167.5zM367 440 q0 -100 52 -158.5t161 -58.5q110 0 162.5 58.5t52.5 158.5q0 85 -53 141t-162 56q-107 0 -160 -56t-53 -141zM418 1053q0 -80 39 -126t123 -46t123.5 46t39.5 126q0 73 -39.5 115t-123.5 42t-123 -42t-39 -115z" />
<glyph horiz-adv-x="1161" d="M80 553q0 76 16 145t52.5 133t91 110.5t137 74.5t184.5 28q138 0 240 -45.5t163 -132.5t90 -202.5t29 -264.5q0 -365 -143.5 -556t-402.5 -191q-157 0 -344 82l88 235q75 -46 129 -59.5t122 -13.5q128 0 194.5 87t66.5 232q-127 -102 -285 -102q-196 0 -312 118t-116 322 zM369 578q0 -96 52.5 -159t166.5 -63q102 0 152.5 66.5t50.5 163.5q0 57 -19 103.5t-67.5 79t-120.5 32.5q-58 0 -101 -19t-67 -52t-35.5 -71t-11.5 -81z" />
<glyph horiz-adv-x="1161" d="M76 512q0 134 37.5 237t105.5 167t159 96t202 32q230 0 367.5 -133.5t137.5 -398.5t-137.5 -398.5t-367.5 -133.5q-111 0 -202 32t-159 96t-105.5 167t-37.5 237zM365 512q0 -143 61 -216t154 -73q94 0 155.5 73t61.5 216t-61.5 216t-155.5 73q-93 0 -154 -73t-61 -216z " />
<glyph horiz-adv-x="892" d="M2 885l348 159h240v-800h239v-244h-768v244h240v481l-205 -94z" />
<glyph horiz-adv-x="1054" d="M61 0v199q330 156 459 255.5t129 207.5q0 66 -37 102.5t-100 36.5q-65 0 -104 -40t-43 -120l-267 47q12 173 127 264.5t301 91.5q190 0 301 -89t111 -263q0 -136 -70 -241t-213 -197h336v-254h-930z" />
<glyph horiz-adv-x="1085" d="M33 -211l143 221q144 -114 318 -114q239 0 239 174q0 72 -70 116.5t-204 44.5h-201v244h211q100 0 157.5 45.5t57.5 122.5q0 73 -42 115.5t-130 42.5q-67 0 -118 -34.5t-64 -100.5l-271 88q35 141 161 215.5t292 74.5q227 0 344 -103.5t117 -270.5q0 -197 -152 -308 q201 -97 201 -305q0 -179 -138.5 -292t-387.5 -113q-134 0 -241.5 33t-221.5 104z" />
<glyph horiz-adv-x="1093" d="M41 0v199l539 845l258 -124l-428 -676h194v223h289v-223h158v-244h-158v-328h-289v328h-563z" />
<glyph horiz-adv-x="1091" d="M35 -244l88 248q183 -110 352 -110q119 0 185.5 63t66.5 195q0 202 -164 202q-103 0 -205 -73h-266l66 743h811v-254h-549l-19 -217q102 45 220 45q179 0 287 -114t108 -337q0 -129 -41 -226.5t-114.5 -155.5t-167.5 -86.5t-208 -28.5q-246 0 -450 106z" />
<glyph horiz-adv-x="1134" d="M41 682q0 232 62 404t189.5 270t309.5 98q143 0 252.5 -53.5t198.5 -163.5l-224 -168q-87 141 -237 141q-122 0 -191 -90.5t-69 -253.5q123 99 291 99q209 0 340 -121.5t131 -345.5q0 -78 -16.5 -150t-55 -140t-96 -118t-145 -80t-195.5 -30q-185 0 -308.5 87.5t-180 242 t-56.5 372.5zM330 471q0 -50 12 -92t38 -78.5t73.5 -57t111.5 -20.5q126 0 183 71t57 177q0 49 -12.5 92t-39.5 79.5t-75 57.5t-113 21t-112.5 -21t-73 -57.5t-37.5 -79t-12 -92.5z" />
<glyph horiz-adv-x="1073" d="M20 770v254h1031v-211l-535 -1141h-319l518 1098h-695z" />
<glyph horiz-adv-x="1134" d="M63 406q0 247 195 358q-143 108 -143 319q0 168 111.5 269.5t338.5 101.5q229 0 341 -101.5t112 -269.5q0 -208 -144 -319q195 -113 195 -358q0 -92 -29.5 -167.5t-88.5 -134.5t-157.5 -91.5t-228.5 -32.5q-129 0 -227 32.5t-157 91.5t-88.5 134.5t-29.5 167.5zM352 440 q0 -100 52 -158.5t161 -58.5q110 0 162.5 58.5t52.5 158.5q0 85 -53 141t-162 56q-107 0 -160 -56t-53 -141zM403 1053q0 -80 39 -126t123 -46t124 46.5t40 125.5q0 73 -40 115t-124 42t-123 -42t-39 -115z" />
<glyph horiz-adv-x="1134" d="M66 553q0 76 16 145t52.5 133t91 110.5t137 74.5t184.5 28q138 0 240 -45.5t163 -132.5t90 -202.5t29 -264.5q0 -365 -144 -556t-403 -191q-157 0 -344 82l88 235q75 -45 129.5 -59t122.5 -14q128 0 194 87t66 232q-127 -102 -284 -102q-196 0 -312 118t-116 322z M354 578q0 -96 52.5 -159t166.5 -63q102 0 152.5 66.5t50.5 163.5q0 57 -19 103.5t-67.5 79t-120.5 32.5q-58 0 -101 -19t-67 -52t-35.5 -71t-11.5 -81z" />
<glyph horiz-adv-x="696" d="M31 809l106 170q113 -82 203 -82q20 0 32 1.5t23 11t11 26.5q0 21 -26 35.5t-65 23t-84.5 25.5t-84.5 39.5t-65 67t-26 106.5q0 112 85 166.5t212 54.5q156 0 269 -61l-82 -176q-94 57 -179 57q-69 0 -69 -33q0 -19 26 -33t65 -22t84 -24.5t84 -38.5t65 -66t26 -105 q0 -122 -84.5 -178.5t-222.5 -56.5q-87 0 -152 20.5t-151 71.5z" />
<glyph horiz-adv-x="565" d="M25 1253v181h94v225h235v-225h176v-181h-176v-258q0 -45 18 -67.5t50 -22.5q36 0 84 25l35 -176q-84 -37 -172 -37q-121 0 -185.5 62.5t-64.5 201.5v272h-94z" />
<glyph horiz-adv-x="763" d="M55 737v697h236v-66q40 46 84.5 66t105.5 20q109 0 168.5 -68t59.5 -204v-445h-236v445q0 46 -21 69t-57 23q-48 0 -76 -49t-28 -152v-336h-236z" />
<glyph horiz-adv-x="808" d="M47 1077q0 183 86 280t232 97q88 0 153 -59v370h236v-778q0 -136 16 -248h-219q-17 43 -25 78q-41 -50 -86.5 -75t-111.5 -25q-123 0 -202 91t-79 269zM283 1077q0 -89 29.5 -134.5t78.5 -45.5q56 0 91.5 59.5t35.5 163.5v94q-48 60 -112 60q-56 0 -89.5 -53.5 t-33.5 -143.5z" />
<glyph horiz-adv-x="507" d="M55 737v697h236v-64q24 45 51.5 64.5t71.5 19.5q37 0 80 -14l-35 -199q-49 21 -86 21q-47 0 -64.5 -38t-17.5 -124v-363h-236z" />
<glyph horiz-adv-x="763" d="M55 737v1028h236v-397q40 46 84.5 66t105.5 20q109 0 168.5 -68t59.5 -204v-445h-236v445q0 46 -21 69t-57 23q-48 0 -76 -49t-28 -152v-336h-236z" />
</font>
</defs>
</svg>
